<svg><defs><font id="Roboto-Regular" horiz-adv-x="1336"><font-face font-family="Roboto" font-weight="400" units-per-em="2048" panose-1="2 0 0 0 0 0 0 0 0 0" ascent="1536" descent="-512" x-height="1082" cap-height="1456" bbox="-1509 -554.998 2352 2163" underline-thickness="100" underline-position="-100" unicode-range="U+0002-U+FFFD"/><glyph glyph-name="uniFB01" unicode="fi" horiz-adv-x="1134" d="M202 0l-.001 939h-171v143h171v92c0 120.667 34.5 214.667 103.5 282s166.5 101 292.5 101c74.667 0 169-20.333 283-61l-31-156c-83.333 33.333-162.666 50-237.999 50-79.333 0-136.5-17.833-171.5-53.5S388 1247.333 388 1176v-94h221V939H388V0H202zm770.999 0h-186v1082h186V0z"/><glyph glyph-name="uniFB02" unicode="fl" horiz-adv-x="1163" d="M816 1379c-82.667 13.333-149.332 20.001-199.999 20.001-133.333 0-200-70-200-210v-107h231v-143h-231v-939h-185v939h-171v143h171v118c.667 115.333 33 203.666 97 264.999s155 92 273 92c67.333 0 200.666-20.333 399.999-61V0H816v1379z"/><glyph glyph-name="uniFB03" unicode="ffi" horiz-adv-x="1748" d="M231 0l-.001 939h-171v143h171v111c0 116 31 205.667 93 269s149.667 95 263 95c42.667 0 85-5.667 127-17l-10-150c-31.333 6-64.666 9-99.999 9-60 0-106.333-17.5-139-52.5s-49-85.167-49-150.5v-114h400v92c0 120.667 34.5 214.667 103.5 282s166.5 101 292.5 101c74.667 0 169-20.333 283-61l-31-156c-83.333 33.333-163 50-239 50-79.333 0-136.5-17.667-171.5-53s-52.5-89-52.5-161v-94h222V939h-222V0H816v939H416V0H231zm1355 0h-185v1082h185V0z"/><glyph glyph-name="uniFB04" unicode="ffl" horiz-adv-x="1748" d="M231 0l.001 939.001h-171v143h171v111c0 116 31 205.667 93 269s149.667 95 263 95c42.667 0 85-5.667 127-17l-10-150c-31.333 6-64.666 9-99.999 9-60 0-106.333-17.5-139-52.5s-49-85.167-49-150.5v-114h400v118c.667 115.333 33 203.666 97 264.999s155 92 273 92c67.333 0 200.666-20.333 399.999-61V0h-185v1379c-82.667 13.333-149.334 20-200.001 20-133.333 0-200-70-200-210v-107h231V939h-231V0H816v939H416V0H231z"/><glyph glyph-name=".notdef" horiz-adv-x="908" d="M808 0H100v1456h708V0zm-54 84v1287L480 728zM154 1359V96l268 632zM194 54h515L451 660zm257 742l258 606H194z"/><glyph glyph-name="uni0000" horiz-adv-x="0"/><glyph glyph-name="uni0000" horiz-adv-x="0"/><glyph glyph-name="uni0002" horiz-adv-x="0"/><glyph glyph-name="uni000D" horiz-adv-x="507"/><glyph glyph-name="space" horiz-adv-x="507"/><glyph glyph-name="exclam" unicode="!" horiz-adv-x="527" d="M347 411H180l-13 1045h194zM160 93c0 30 9.167 55.167 27.5 75.5S233 199 269 199s63.333-10.167 82-30.5S379 123 379 93s-9.333-54.833-28-74.5S305-11 269-11s-63.167 9.833-81.5 29.5S160 63 160 93z"/><glyph glyph-name="quotedbl" unicode="&quot;" horiz-adv-x="655" d="M277 1400l-30-358H136l1 494h140v-136zm270 0l-30-358H406l1 494h140v-136z"/><glyph glyph-name="numbersign" unicode="#" horiz-adv-x="1261" d="M765 410H501L421 0H278l80 410H119v137h265l69 354H195v139h285l82 416h143l-82-416h264l82 416h144l-82-416h204V901h-231l-69-354h225V410H909L829 0H685zM527 547h264l69 354H596z"/><glyph glyph-name="dollar" unicode="$" horiz-adv-x="1150" d="M856 375c0 61.333-21.5 113.005-64.5 155.005s-115.5 80-217.5 114c-142 43.333-245.5 99.833-310.5 169.5s-97.5 158.167-97.5 265.5c0 109.333 31.833 199 95.5 269s151.167 111.667 262.5 125v219h149v-220c112-15.333 199.167-62.333 261.5-141s93.5-186.334 93.5-323.001H844c0 94-22.333 168.667-67 224s-105 83-181 83c-79.333 0-140-20.5-182-61.5s-63-98.167-63-171.5c0-68 22.167-122.167 66.5-162.5s117.333-77 219-110 181-69.333 238-109 99-85.834 126-138.501 40.5-114.334 40.5-185.001c0-112.667-33.833-203.334-101.5-272.001S777-4.333 655-17v-191H507v191C383-5.667 285.833 38.5 215.5 115.5S110 297 110 429h185c0-92.667 24.333-164 73-214s117.667-75 207-75c87.333 0 156 21 206 63s75 99.333 75 172z"/><glyph glyph-name="percent" unicode="%" horiz-adv-x="1500" d="M105 1176c0 87.333 27.834 159.332 83.501 215.999s127.167 85 214.5 85c88.667 0 160.5-28.5 215.5-85.5s82.5-130.833 82.5-221.5v-71c0-88-27.833-159.833-83.5-215.5s-126.5-83.5-212.5-83.5c-86.667 0-158.334 27.833-215.001 83.5S105 1013.333 105 1106v70zm138.001-77c0-52 14.668-94.834 44.001-128.501s68.666-50.5 117.999-50.5c47.333 0 85.5 16.333 114.5 49s43.5 77.334 43.5 134.001v73c0 52-14.333 95-43 129s-67.667 51-117 51-88.333-17-117-51-43-78.333-43-133v-73zm571.001-742.002c0 87.333 27.835 159.165 83.502 215.498s127.167 84.5 214.5 84.5 159-28 215-84 84-130.333 84-223v-71c0-87.333-27.833-159.166-83.5-215.499s-126.834-84.5-213.501-84.5-158.334 27.833-215.001 83.5-85 129.834-85 222.501v72zm138.002-78.001c0-52.667 14.668-95.833 44.001-129.5s68.666-50.5 117.999-50.5c48 0 86.333 16.5 115 49.5s43 77.833 43 134.5v74c0 52.667-14.5 95.667-43.5 129s-67.833 50-116.5 50c-47.333 0-85.833-16.5-115.5-49.5s-44.5-77.5-44.5-133.5v-74zM447.005 109.998l-105 66 711 1138 105-66z"/><glyph glyph-name="ampersand" unicode="&amp;" horiz-adv-x="1273" d="M101 391c0 70 19.499 134.335 58.499 193.002s113.5 127 223.5 205c-64.667 78.667-108 142-130 190s-33 95.667-33 143c0 110.667 32.667 197.334 98 260.001s154 94 266 94c100 0 182.667-29.167 248-87.5s98-131.833 98-220.5c0-58.667-14.833-112.834-44.5-162.501s-81.5-101.834-155.5-156.501l-107-79 324-387c45.333 86.667 68 183 68 289h167c0-170-41-311-123-423l208-249h-222l-97 115c-49.333-44-107.166-77.5-173.499-100.5s-133.833-34.5-202.5-34.5c-142 0-256 37.667-342 113S101 267.667 101 391zm470.999-259.998c98 0 187.667 37.333 269 112l-355 425-33-24c-111.333-82-167-166.333-167-253 0-78.667 25.5-141.667 76.5-189s120.833-71 209.5-71zm-167 996.998c0-64 39.333-144.001 118-240.001l118 83c45.333 32 76.333 62.5 93 91.5s25 64.167 25 105.5c0 44.667-16.667 81.834-50 111.501s-75.333 44.5-126 44.5c-54.667 0-98-18.5-130-55.5s-48-83.833-48-140.5z"/><glyph glyph-name="quotesingle" unicode="'" horiz-adv-x="357" d="M253 1425l-21-368H103l1 479h149v-111z"/><glyph glyph-name="parenleft" unicode="(" horiz-adv-x="700" d="M133 591c0 150.667 20.167 295.332 60.5 433.999s100.5 264.667 180.5 378 163 193.333 249 240l38-122c-97.333-74.667-177.166-188.667-239.499-342s-96.5-325-102.5-515l-1-85c0-257.333 47-480.666 141-669.999 56.667-113.333 124-202 202-266l-38-113C534.334-420.667 449.667-338 369-222 211.667 4.667 133 275.667 133 591z"/><glyph glyph-name="parenright" unicode=")" horiz-adv-x="712" d="M567 581c0-148.667-19.502-291.167-58.502-427.5s-98.667-262.166-179-377.499-164.5-197.333-252.5-246l-39 113c102.667 78.667 185.167 200.834 247.5 366.501s94.166 349.5 95.499 551.5v32c0 140-14.667 270.167-44 390.5s-70.166 228.166-122.499 323.499S103.332 1476.667 37.999 1530l39 113c88-48.667 171.833-130 251.5-244s139.334-239.667 179.001-377S567 737.667 567 581z"/><glyph glyph-name="asterisk" unicode="*" horiz-adv-x="882" d="M330 983l-302 90 46 151 302-112-9 344h153l-10-349 297 110 46-152-307-91 198-271-124-94-186 288-180-281-125 91z"/><glyph glyph-name="plus" unicode="+" horiz-adv-x="1161" d="M670 781h406V606H670V146H484v460H78v175h406v425h186V781z"/><glyph glyph-name="comma" unicode="," horiz-adv-x="402" d="M134-290L28.999-218.001c62.667 87.333 95.334 177.333 98.001 270v167h181v-145C308 6.666 291.5-60.667 258.5-128S184-249.333 134-290z"/><glyph glyph-name="hyphen" unicode="-" horiz-adv-x="565" d="M525 543H37v151h488V543z"/><glyph glyph-name="period" unicode="." horiz-adv-x="539" d="M144 97c0 32 9.5 58.667 28.5 80s47.5 32 85.5 32 66.833-10.667 86.5-32S374 129 374 97c0-30.667-9.833-56.334-29.5-77.001s-48.5-31-86.5-31-66.5 10.333-85.5 31S144 66.333 144 97z"/><glyph glyph-name="slash" unicode="/" horiz-adv-x="844" d="M177-125H18l608 1581h158z"/><glyph glyph-name="zero" unicode="0" horiz-adv-x="1150" d="M1034 621c0-216.667-36.999-377.668-110.999-483.001s-189.667-158-347-158c-155.333 0-270.333 51.5-345 154.5S117.667 391.332 115 595.999v247c0 214 37 373 111 477s190 156 348 156c156.667 0 272-50.167 346-150.5S1032 1070.333 1034 861V621zM849.001 873.999c0 156.667-22.001 270.833-66.001 342.5s-113.667 107.5-209 107.5c-94.667 0-163.667-35.667-207-107s-65.666-181-66.999-329v-296c0-157.333 22.833-273.5 68.5-348.5s114.834-112.5 207.501-112.5c91.333 0 159.166 35.333 203.499 106s67.5 182 69.5 334v303z"/><glyph glyph-name="one" unicode="1" horiz-adv-x="1150" d="M729 0H543v1233l-373-137v168l530 199h29V0z"/><glyph glyph-name="two" unicode="2" horiz-adv-x="1150" d="M1075 0L121-.001v133l504 560c74.667 84.667 126.167 153.5 154.5 206.5s42.5 107.833 42.5 164.5c0 76-23 138.333-69 187s-107.333 73-184 73c-92 0-163.5-26.167-214.5-78.5S278 1120.333 278 1027H93c0 134 43.167 242.333 129.5 325s201.833 124 346.5 124c135.333 0 242.333-35.5 321-106.5s118-165.5 118-283.5c0-143.333-91.333-314-274-512L344 151h731V0z"/><glyph glyph-name="three" unicode="3" horiz-adv-x="1150" d="M390 818l139.002.002c87.333 1.333 156 24.333 206 69s75 105 75 181c0 170.667-85 256-255 256-80 0-143.833-22.833-191.5-68.5s-71.5-106.167-71.5-181.5h-185c0 115.333 42.167 211.166 126.5 287.499s191.5 114.5 321.5 114.5c137.333 0 245-36.333 323-109s117-173.667 117-303c0-63.333-20.5-124.666-61.5-183.999s-96.833-103.666-167.5-132.999c80-25.333 141.833-67.333 185.5-126s65.5-130.334 65.5-215.001c0-130.667-42.667-234.334-128-311.001s-196.333-115-333-115-247.834 37-333.501 111-128.5 171.667-128.5 293h186c0-76.667 25-138 75-184s117-69 201-69c89.333 0 157.666 23.333 204.999 70s71 113.667 71 201c0 84.667-26 149.667-78 195S627 665.667 529 667H390v151z"/><glyph glyph-name="four" unicode="4" horiz-adv-x="1150" d="M902 489h202V338H902V0H716v338H53v109l652 1009h197V489zm-639 0h453v714l-22-40z"/><glyph glyph-name="five" unicode="5" horiz-adv-x="1150" d="M206 730l73.999 725.999h746v-171h-589l-44-397c71.333 42 152.333 63 243 63 132.667 0 238-43.833 316-131.5s117-206.167 117-355.5c0-150-40.5-268.167-121.5-354.5s-194.167-129.5-339.5-129.5c-128.667 0-233.667 35.667-315 107s-127.666 170-138.999 296h175c11.333-83.333 41-146.166 89-188.499S529.333 131 608 131c86 0 153.5 29.333 202.5 88S884 358.667 884 462c0 97.333-26.5 175.5-79.5 234.5S681 785 593 785c-80.667 0-144-17.667-190-53l-49-40z"/><glyph glyph-name="six" unicode="6" horiz-adv-x="1150" d="M847 1457l-.003-157h-34c-144-2.667-258.667-45.334-344-128.001s-134.666-199-147.999-349c76.667 88 181.334 132 314.001 132 126.667 0 227.834-44.667 303.501-134S1052 616.333 1052 475c0-150-40.833-270-122.5-360S738.333-20 601-20c-139.333 0-252.333 53.5-339 160.5S132 385.333 132 554v71c0 268 57.167 472.833 171.5 614.5S588 1453.667 814 1457h33zM603.997 801c-63.333 0-121.667-18.999-175-56.999s-90.333-85.667-111-143v-68c0-120 27-216.667 81-290s121.333-110 202-110c83.333 0 148.833 30.667 196.5 92s71.5 141.666 71.5 240.999c0 100-24.167 180.833-72.5 242.5s-112.5 92.5-192.5 92.5z"/><glyph glyph-name="seven" unicode="7" horiz-adv-x="1150" d="M1061 1352L458 0H264l601 1304H77v152h984v-104z"/><glyph glyph-name="eight" unicode="8" horiz-adv-x="1150" d="M1004 1076c0-72.667-19.169-137.332-57.502-193.999s-90.166-101-155.499-133c76-32.667 136.167-80.334 180.5-143.001s66.5-133.667 66.5-213c0-126-42.5-226.333-127.5-301S713.666-20 574.999-20c-140 0-252.167 37.5-336.5 112.5s-126.5 175.167-126.5 300.5c0 78.667 21.5 149.667 64.5 213s102.5 111.333 178.5 144c-64.667 32-115.667 76.333-153 133s-56 121-56 193c0 122.667 39.333 220 118 292S446.333 1476 575 1476c128 0 231.5-36 310.5-108s118.5-169.333 118.5-292zM852.998 397.002c0 81.333-25.834 147.668-77.501 199.001s-119.167 77-202.5 77-150.166-25.333-200.499-76-75.5-117.334-75.5-200.001 24.5-147.667 73.5-195 117.167-71 204.5-71c86.667 0 154.667 23.833 204 71.5s74 112.5 74 194.5zM574.997 1324c-72.667 0-131.5-22.5-176.5-67.5s-67.5-106.167-67.5-183.5c0-74 22.167-133.833 66.5-179.5s103.5-68.5 177.5-68.5 133.167 22.833 177.5 68.5 66.5 105.5 66.5 179.5-23 134.333-69 181-104.333 70-175 70z"/><glyph glyph-name="nine" unicode="9" horiz-adv-x="1150" d="M830 640c-38.667-46-84.833-83.002-138.5-111.002s-112.5-42-176.5-42c-84 0-157.167 20.667-219.5 62s-110.5 99.5-144.5 174.5-51 157.833-51 248.5c0 97.333 18.5 185 55.5 263s89.5 137.667 157.5 179 147.333 62 238 62c144 0 257.5-53.833 340.5-161.5s124.5-254.5 124.5-440.5v-54c0-283.333-56-490.166-168-620.499S567 2.333 341-1h-36v156h39c152.667 2.667 270 42.5 352 119.5S822.667 473.333 830 640zm-284.999-.002c62 0 119.167 18.999 171.5 56.999s90.5 85 114.5 141v74c0 121.333-26.333 220-79 296s-119.334 114-200.001 114c-81.333 0-146.666-31.167-195.999-93.5s-74-144.5-74-246.5c0-99.333 23.833-181.166 71.5-245.499s111.5-96.5 191.5-96.5z"/><glyph glyph-name="colon" unicode=":" horiz-adv-x="496" d="M134 97c0 32 9.5 58.667 28.5 80s47.5 32 85.5 32 66.833-10.667 86.5-32S364 129 364 97c0-30.667-9.833-56.334-29.5-77.001s-48.5-31-86.5-31-66.5 10.333-85.5 31S134 66.333 134 97zm1 883c0 32 9.5 58.667 28.5 80s47.5 32 85.5 32 66.833-10.667 86.5-32 29.5-48 29.5-80c0-30.667-9.833-56.334-29.5-77.001s-48.5-31-86.5-31-66.5 10.333-85.5 31S135 949.333 135 980z"/><glyph glyph-name="semicolon" unicode=";" horiz-adv-x="433" d="M111 980c0 32 9.5 58.667 28.5 80s47.5 32 85.5 32 66.833-10.667 86.5-32 29.5-48 29.5-80c0-30.667-9.833-56.334-29.5-77.001s-48.5-31-86.5-31-66.5 10.333-85.5 31S111 949.333 111 980zm35-1270L40.999-218.001c62.667 87.333 95.334 177.333 98.001 270v167h181v-145C320 6.666 303.5-60.667 270.5-128S196-249.333 146-290z"/><glyph glyph-name="less" unicode="&lt;" horiz-adv-x="1041" d="M264 644l626-253V195L72 574v146l818 378V902z"/><glyph glyph-name="equal" unicode="=" horiz-adv-x="1124" d="M986 814H152v161h834V814zm0-415H152v160h834V399z"/><glyph glyph-name="greater" unicode="&gt;" horiz-adv-x="1070" d="M795 650L134 909v190l854-378V575L134 196v192z"/><glyph glyph-name="question" unicode="?" horiz-adv-x="967" d="M357 410c1.333 79.333 10.333 142 27 188s50.667 97 102 153l131 135c56 63.333 84 131.333 84 204 0 70-18.333 124.833-55 164.5s-90 59.5-160 59.5c-68 0-122.667-18-164-54s-62-84.333-62-145H75c1.333 108 39.833 195.167 115.5 261.5S364.667 1476 486 1476c126 0 224.167-33.833 294.5-101.5S886 1214 886 1096c0-116.667-54-231.667-162-345L615 643c-48.667-54-73-131.667-73-233H357zm-8-317c0 30 9.167 55.167 27.5 75.5S422 199 458 199s63.333-10.167 82-30.5S568 123 568 93s-9.333-54.833-28-74.5S494-11 458-11s-63.167 9.833-81.5 29.5S349 63 349 93z"/><glyph glyph-name="at" unicode="@" horiz-adv-x="1839" d="M1738 502c-8-161.333-48-288.663-120-381.996s-168.333-140-289-140c-124.667 0-204.667 56-240 168-36-56.667-77.167-98.834-123.5-126.501s-94.166-41.5-143.499-41.5c-94.667 0-166.334 38.667-215.001 116s-66.667 184.333-54 321c10 110 35.167 208.167 75.5 294.5s92.333 154.166 156 203.499 130.5 74 200.5 74c54 0 102.333-7.167 145-21.5s90.667-42.5 144-84.5l-52-554c-12.667-154 30-231 128-231 75.333 0 136.333 37.333 183 112s72 172 76 292c12.667 259.333-35.5 457-144.5 593s-274.833 204-497.5 204c-134 0-253-33.167-357-99.5s-186-162.166-246-287.499-93.667-270-101-434c-8-165.333 12-308.833 60-430.5s121.167-214.667 219.5-279 217.166-96.5 356.499-96.5c60 0 120.167 7.333 180.5 22s110.5 33.667 150.5 57l37-115c-41.333-26-96.166-47.333-164.499-64s-137.5-25-207.5-25c-166.667 0-310 37.5-430 112.5s-209.833 183-269.5 324-85.5 305.833-77.5 494.5c8 183.333 49 348.166 123 494.499s174.333 259.333 301 339 269.667 119.5 429 119.5c166 0 308.333-37.333 427-112s207-182.334 265-323.001 83-305.334 75-494.001zM712 417.003c-9.333-94.667-.5-167.334 26.5-218.001s69.833-76 128.5-76c40 0 78.5 17 115.5 51s67.5 82.667 91.5 146l1 9 46 503c-37.333 19.333-77.333 29-120 29-78 0-142.5-39.667-193.5-119S724.667 554.336 712 417.003z"/><glyph glyph-name="A" unicode="A" d="M973 380H363L226 0H28l556 1456h168L1309 0h-197zM421 538h495l-248 681z"/><glyph glyph-name="B" unicode="B" horiz-adv-x="1275" d="M169 0l.001 1456h476c158 0 276.833-32.667 356.5-98s119.5-162 119.5-290c0-68-19.333-128.167-58-180.5S971.667 794.667 905 766c78.667-22 140.834-63.833 186.501-125.5s68.5-135.167 68.5-220.5c0-130.667-42.333-233.334-127-308.001S828.667-.001 674-.001H169zm192.001 681.001V157.002h317c89.333 0 159.833 23.167 211.5 69.5s77.5 110.166 77.5 191.499c0 175.333-95.333 263-286 263h-320zm0 154.001h290c84 0 151.167 21 201.5 63s75.5 99 75.5 171c0 80-23.333 138.167-70 174.5s-117.667 54.5-213 54.5h-284v-463z"/><glyph glyph-name="C" unicode="C" horiz-adv-x="1333" d="M1240 462c-18-154-74.83-272.833-170.497-356.5S846.669-20 688.002-20c-172 0-309.833 61.667-413.5 185s-155.5 288.333-155.5 495v140c0 135.333 24.167 254.333 72.5 357s116.833 181.5 205.5 236.5 191.334 82.5 308.001 82.5c154.667 0 278.667-43.167 372-129.5s147.666-205.833 162.999-358.5h-193c-16.667 116-52.834 200-108.501 252s-133.5 78-233.5 78c-122.667 0-218.834-45.333-288.501-136S312 962.333 312 795V654c0-158 33-283.667 99-377s158.333-140 277-140c106.667 0 188.5 24.167 245.5 72.5S1028.333 342 1047 462h193z"/><glyph glyph-name="D" unicode="D" horiz-adv-x="1343" d="M169 0v1456h411c126.667 0 238.667-28 336-84s172.5-135.667 225.5-239 79.833-222 80.5-356v-93c0-137.333-26.5-257.666-79.5-360.999s-128.667-182.666-227-237.999S702.667 1.336 572 .003H169zm192 1298l.001-1141h202c148 0 263.167 46 345.5 138s123.5 223 123.5 393v85c0 165.333-38.833 293.833-116.5 385.5S727.667 1296.667 585 1298H361z"/><glyph glyph-name="E" unicode="E" horiz-adv-x="1164" d="M992 673H361V157h733V0H169v1456h915v-158H361V830h631V673z"/><glyph glyph-name="F" unicode="F" horiz-adv-x="1132" d="M972 643H361V0H169v1456h902v-158H361V800h611V643z"/><glyph glyph-name="G" unicode="G" horiz-adv-x="1395" d="M1244 191c-49.333-70.667-118.169-123.502-206.502-158.502s-191.166-52.5-308.499-52.5c-118.667 0-224 27.833-316 83.5s-163.167 134.834-213.5 237.501-76.166 221.667-77.499 357v127c0 219.333 51.167 389.333 153.5 510s246.166 181 431.499 181c152 0 274.333-38.833 367-116.5s149.334-187.834 170.001-330.501h-192c-36 192.667-150.667 289-344 289-128.667 0-226.167-45.167-292.5-135.5S315.667 961.332 315 789.999v-119c0-163.333 37.333-293.166 112-389.499S602.667 137 730 137c72 0 135 8 189 24s98.667 43 134 81v327H716v156h528V191z"/><glyph glyph-name="H" unicode="H" horiz-adv-x="1460" d="M1288 0h-193v673H361V0H169v1456h192V830h734v626h193V0z"/><glyph glyph-name="I" unicode="I" horiz-adv-x="557" d="M375 0H183v1456h192V0z"/><glyph glyph-name="J" unicode="J" horiz-adv-x="1130" d="M779 1456h193V425c0-139.333-41.833-248.333-125.5-327S651.333-20 512-20C367.333-20 254.666 17 173.999 91s-121 177.667-121 311h192c0-83.333 22.833-148.333 68.5-195S425.333 137 512 137c79.333 0 143.5 25 192.5 75s73.833 120 74.5 210v1034z"/><glyph glyph-name="K" unicode="K" horiz-adv-x="1284" d="M539 677L361 492V0H169v1456h192V736l647 720h232L667 813 1285 0h-230z"/><glyph glyph-name="L" unicode="L" horiz-adv-x="1102" d="M362 157h690V0H169v1456h193V157z"/><glyph glyph-name="M" unicode="M" horiz-adv-x="1788" d="M417 1456L893 268l476 1188h249V0h-192v567l18 612L966 0H819L342 1176l19-609V0H169v1456h248z"/><glyph glyph-name="N" unicode="N" horiz-adv-x="1460" d="M1288 0h-193L362 1122V0H169v1456h193l735-1127v1127h191V0z"/><glyph glyph-name="O" unicode="O" horiz-adv-x="1408" d="M1289 681c0-142.667-23.999-267.165-71.999-373.498s-116-187.5-204-243.5-190.667-84-308-84c-114.667 0-216.334 28.167-305.001 84.5S242.5 201.168 193.5 305.501 119.333 530.667 118 668v105c0 140 24.333 263.667 73 371s117.5 189.5 206.5 246.5S588.333 1476 703 1476c116.667 0 219.5-28.167 308.5-84.5s157.5-138 205.5-245 72-231.5 72-373.5v-92zm-191 94.002c0 172.667-34.666 305.167-103.999 397.5s-166.333 138.5-291 138.5c-121.333 0-216.833-46.167-286.5-138.5s-105.5-220.5-107.5-384.5v-107c0-167.333 35.167-298.833 105.5-394.5s167.166-143.5 290.499-143.5c124 0 220 45.167 288 135.5s103 219.833 105 388.5v108z"/><glyph glyph-name="P" unicode="P" horiz-adv-x="1292" d="M361 570l.001-570.001h-192v1456h537c159.333 0 284.166-40.667 374.499-122s135.5-189 135.5-323c0-141.333-44.167-250.166-132.5-326.499S868.667 570 704 570H361zm.001 156.999L706 727c102.667 0 181.334 24.167 236.001 72.5s82 118.166 82 209.499c0 86.667-27.333 156-82 208s-129.667 79-225 81h-356v-571z"/><glyph glyph-name="Q" unicode="Q" horiz-adv-x="1408" d="M1281 681c0-140.667-22.331-261.831-66.998-363.498s-107.334-181.167-188.001-238.5l260-204-131-121-307 244c-48-12-98.667-18-152-18-114.667 0-216.334 28.167-305.001 84.5S233.5 201.168 184.5 305.501 110.333 530.667 109 668v105c0 140 24.333 263.667 73 371s117.5 189.5 206.5 246.5S579.333 1476 694 1476c117.333 0 220.5-28.333 309.5-85s157.5-138.167 205.5-244.5 72-230.5 72-372.5v-93zm-192 94.003c0 171.333-34.166 303.5-102.499 396.5s-165.833 139.5-292.5 139.5c-120.667 0-215.834-46.167-285.501-138.5S303 952.003 301 788.003v-107c0-166.667 34.833-298 104.5-394s166.5-144 290.5-144 220 45.167 288 135.5 103 219.833 105 388.5v108z"/><glyph glyph-name="R" unicode="R" horiz-adv-x="1261" d="M703 589H361V0H168v1456h482c164 0 290.167-37.333 378.5-112s132.5-183.334 132.5-326.001c0-90.667-24.5-169.667-73.5-237S970.333 663.333 883 630l342-618V0h-206zM361 746h295.001c95.333 0 171.166 24.667 227.499 74S968 935.333 968 1018c0 90-26.833 159-80.5 207s-131.167 72.333-232.5 73H361V746z"/><glyph glyph-name="S" unicode="S" horiz-adv-x="1215" d="M598 649c-164.667 47.333-284.501 105.5-359.501 174.5s-112.5 154.167-112.5 255.5c0 114.667 45.833 209.5 137.5 284.5S474.333 1476 621 1476c100 0 189.167-19.333 267.5-58s139-92 182-160 64.5-142.333 64.5-223H942c0 88-28 157.167-84 207.5S723 1318 621 1318c-94.667 0-168.5-20.833-221.5-62.5S320 1156 320 1082c0-59.333 25.167-109.5 75.5-150.5s136-78.5 257-112.5 215.667-71.5 284-112.5 119-88.833 152-143.5 49.5-119 49.5-193c0-118-46-212.5-138-283.5S785-20 631-20C531-20 437.667-.833 351 37.5S197.5 128.333 150.5 195 80 337.334 80 422.001h193c0-88 32.5-157.5 97.5-208.5s151.833-76.5 260.5-76.5c101.333 0 179 20.667 233 62S945 296.667 945 368s-25 126.5-75 165.5S729.333 611 598 649z"/><glyph glyph-name="T" unicode="T" horiz-adv-x="1222" d="M1175 1298H707V0H516v1298H49v158h1126v-158z"/><glyph glyph-name="U" unicode="U" horiz-adv-x="1328" d="M1194 1456l.001-990.002c-.667-137.333-43.834-249.666-129.501-336.999s-201.834-136.333-348.501-147l-51-2c-159.333 0-286.333 43-381 129s-142.667 204.333-144 355v992h190v-986c0-105.333 29-187.166 87-245.499s140.667-87.5 248-87.5c108.667 0 191.834 29 249.501 87s86.5 139.667 86.5 245v987h193z"/><glyph glyph-name="V" unicode="V" horiz-adv-x="1303" d="M651 255l416 1201h210L737 0H567L28 1456h209z"/><glyph glyph-name="W" unicode="W" horiz-adv-x="1817" d="M483 459l28-192 41 173 288 1016h162l281-1016 40-176 31 196 226 996h193L1420 0h-175L945 1061l-23 111-23-111L588 0H413L61 1456h192z"/><glyph glyph-name="X" unicode="X" horiz-adv-x="1284" d="M644 898l349 558h226L759 734 1230 0h-228L644 568 284 0H57l472 734-461 722h225z"/><glyph glyph-name="Y" unicode="Y" horiz-adv-x="1230" d="M613 725l380 731h218L709 543V0H517v543L15 1456h220z"/><glyph glyph-name="Z" unicode="Z" horiz-adv-x="1226" d="M313 157h833V0H86v144l798 1154H99v158h1015v-141z"/><glyph glyph-name="bracketleft" unicode="[" horiz-adv-x="543" d="M523 1512H332V-160h191v-152H146v1976h377v-152z"/><glyph glyph-name="backslash" unicode="\" horiz-adv-x="840" d="M40 1456h176L824-125H648z"/><glyph glyph-name="bracketright" unicode="]" horiz-adv-x="543" d="M9 1664h378V-312H9v152h193v1672H9v152z"/><glyph glyph-name="asciicircum" unicode="^" horiz-adv-x="856" d="M426 1211L236 729H64l299 727h127l298-727H617z"/><glyph glyph-name="underscore" unicode="_" horiz-adv-x="924" d="M920-151H4V0h916v-151z"/><glyph glyph-name="grave" unicode="`" horiz-adv-x="633" d="M474 1242H315L57 1536h223z"/><glyph glyph-name="a" unicode="a" horiz-adv-x="1114" d="M808 0c-10.667 21.333-19.336 59.332-26.003 113.999-86-89.333-188.667-134-308-134-106.667 0-194.167 30.167-262.5 90.5s-102.5 136.833-102.5 229.5c0 112.667 42.833 200.167 128.5 262.5s206.167 93.5 361.5 93.5h180v85c0 64.667-19.333 116.167-58 154.5s-95.667 57.5-171 57.5c-66 0-121.333-16.667-166-50s-67-73.666-67-120.999h-186c0 54 19.167 106.167 57.5 156.5s90.333 90.166 156 119.499 137.834 44 216.501 44c124.667 0 222.334-31.167 293.001-93.5S961.333 860.333 964 751V253c0-99.333 12.667-178.333 38-237V0H808zM500.998 140.999c58 0 112.999 15 164.999 45s89.667 69 113 117v222h-145c-226.667 0-340-66.333-340-199 0-58 19.333-103.333 58-136s88.334-49 149.001-49z"/><glyph glyph-name="b" unicode="b" horiz-adv-x="1149" d="M1056 529c0-165.333-37.999-298.167-113.999-398.5s-178-150.5-306-150.5C499.334-20 393.667 28.333 319 125L310 0H140v1536h185V963c74.667 92.667 177.667 139 309 139s234.5-49.667 309.5-149S1056 717.667 1056 545v-16zm-184.999 20.999c0 126-24.333 223.333-73 292s-118.667 103-210 103c-122 0-209.667-56.667-263-170v-468c56.667-113.333 145-170 265-170 88.667 0 157.667 34.333 207 103s74 172 74 310z"/><glyph glyph-name="c" unicode="c" horiz-adv-x="1072" d="M574 131c66 0 123.67 20 173.003 60s76.666 90 81.999 150h175c-3.333-62-24.666-121-63.999-177S848.17 63.333 782.503 30s-135.167-50-208.5-50c-147.333 0-264.5 49.167-351.5 147.5S92.003 360.333 92.003 531v31c0 105.333 19.333 199 58 281s94.167 145.667 166.5 191 157.833 68 256.5 68c121.333 0 222.166-36.333 302.499-109s123.166-167 128.499-283h-175c-5.333 70-31.833 127.5-79.5 172.5s-106.5 67.5-176.5 67.5c-94 0-166.833-33.833-218.5-101.5s-77.5-165.5-77.5-293.5v-35c0-124.667 25.667-220.667 77-288S478.667 131 574 131z"/><glyph glyph-name="d" unicode="d" horiz-adv-x="1155" d="M95 550c0 166 39.333 299.5 118 400.5S394.667 1102 522 1102c126.667 0 227-43.333 301-130v564h185V0H838l-9 116C755 25.333 652-20 520-20c-125.333 0-227.5 51.333-306.5 154S95 370.667 95 536v14zm185-21c0-122.667 25.334-218.667 76.001-288s120.667-104 210-104c117.333 0 203 52.667 257 158v497c-55.333 102-140.333 153-255 153-90.667 0-161.334-35-212.001-105s-76-173.667-76-311z"/><glyph glyph-name="e" unicode="e" horiz-adv-x="1085" d="M589-20c-146.667 0-266 48.17-358 144.504S93 349.67 93 511.003v34c0 107.333 20.5 203.166 61.5 287.499s98.333 150.333 172 198 153.5 71.5 239.5 71.5c140.667 0 250-46.333 328-139s117-225.334 117-398.001v-77H278c2.667-106.667 33.834-192.834 93.501-258.501s135.5-98.5 227.5-98.5c65.333 0 120.666 13.333 165.999 40s85 62 119 106l113-88C906.333 49.667 770.333-20 589-20zm-23 970.004c-74.667 0-137.335-27.167-188.002-81.5s-82-130.5-94-228.5h542v14c-5.333 94-30.666 166.833-75.999 218.5s-106.666 77.5-183.999 77.5z"/><glyph glyph-name="f" unicode="f" horiz-adv-x="711" d="M231 0l-.001 939h-171v143h171v111c0 116 31 205.667 93 269s149.667 95 263 95c42.667 0 85-5.667 127-17l-10-150c-31.333 6-64.666 9-99.999 9-60 0-106.333-17.5-139-52.5s-49-85.167-49-150.5v-114h231V939H416V0H231z"/><glyph glyph-name="g" unicode="g" horiz-adv-x="1149" d="M96 550c0 168.667 39 302.833 117 402.5S394.333 1102 523 1102c132 0 235-46.667 309-140l9 120h169V26c0-140-41.5-250.333-124.5-331S691-426 551-426c-78 0-154.333 16.667-229 50s-131.667 79-171 137l96 111c79.333-98 176.333-147 291-147 90 0 160.167 25.333 210.5 76S824-77 824 15v93C750 22.667 649-20 521-20c-126.667 0-229.167 51-307.5 153S96 374 96 550zm186-21.001c0-122 24.999-217.833 74.999-287.5s120-104.5 210-104.5c116.667 0 202.334 53 257.001 159v494c-56.667 103.333-141.667 155-255 155-90 0-160.333-35-211-105s-76-173.667-76-311z"/><glyph glyph-name="h" unicode="h" horiz-adv-x="1128" d="M325 951c82 100.667 188.666 151 319.999 151 228.667 0 344-129 346-387V0h-185v716c-.667 78-18.5 135.667-53.5 173s-89.5 56-163.5 56c-60 0-112.667-16-158-48S350.333 823 325 771V0H140v1536h185V951z"/><glyph glyph-name="i" unicode="i" horiz-adv-x="497" d="M341 0H156v1082h185V0zM141 1369c0 30 9.167 55.333 27.5 76s45.5 31 81.5 31 63.333-10.333 82-31 28-46 28-76-9.333-55-28-75-46-30-82-30-63.167 10-81.5 30-27.5 45-27.5 75z"/><glyph glyph-name="j" unicode="j" horiz-adv-x="489" d="M331 1082l.001-1207c0-208-94.333-312-283-312C7.334-437-30.333-431-65-419v148c21.333-5.333 49.333-8 84-8 41.333 0 72.833 11.167 94.5 33.5S146-184.334 146-129.001v1211h185zm-203.999 287c0 29.333 9.168 54.5 27.501 75.5s45.166 31.5 80.499 31.5c36 0 63.333-10.333 82-31s28-46 28-76-9.333-55-28-75-46-30-82-30-63 10-81 30-27 45-27 75z"/><glyph glyph-name="k" unicode="k" horiz-adv-x="1038" d="M442 501L326 380V0H141v1536h185V607l99 119 337 356h225L566 630 1036 0H819z"/><glyph glyph-name="l" unicode="l" horiz-adv-x="497" d="M341 0H156v1536h185V0z"/><glyph glyph-name="m" unicode="m" horiz-adv-x="1795" d="M314 1082l4.997-119.999c79.333 93.333 186.333 140 321 140 151.333 0 254.333-58 309-174 36 52 82.833 94 140.5 126s125.834 48 204.501 48c237.333 0 358-125.667 362-377v-725h-185v714c0 77.333-17.667 135.166-53 173.499S1323.332 945 1240 945c-68.667 0-125.667-20.5-171-61.5s-71.667-96.167-79-165.5V0H804v709c0 157.333-77 236-231 236-121.333 0-204.333-51.667-249-155V0H139v1082h175z"/><glyph glyph-name="n" unicode="n" horiz-adv-x="1130" d="M315 1082l5.999-136c82.667 104 190.667 156 324 156 228.667 0 344-129 346-387V0h-185v716c-.667 78-18.5 135.667-53.5 173s-89.5 56-163.5 56c-60 0-112.667-16-158-48S350.333 823 325 771V0H140v1082h175z"/><glyph glyph-name="o" unicode="o" horiz-adv-x="1168" d="M91 551c0 106 20.834 201.334 62.501 286.001s99.667 150 174 196 159.166 69 254.499 69c147.333 0 266.5-51 357.5-153s136.5-237.667 136.5-407v-13c0-105.333-20.167-199.833-60.5-283.5S917.5 96.667 842.5 50 681.333-20 584-20c-146.667 0-265.5 51-356.5 153S91 370 91 538v13zm186.001-21.999c0-120 27.832-216.335 83.499-289.002s130.167-109 223.5-109c94 0 168.667 36.833 224 110.5S891 418.333 891 551c0 118.667-28.167 214.834-84.5 288.501s-131.166 110.5-224.499 110.5c-91.333 0-165-36.333-221-109s-84-176.667-84-312z"/><glyph glyph-name="p" unicode="p" horiz-adv-x="1149" d="M1054 529c0-164.667-37.668-297.333-113.001-398s-177.333-151-306-151C503.666-20 400.333 21.667 325 105v-521H140v1498h169l9-120c75.333 93.333 180 140 314 140 130 0 232.833-49 308.5-147S1054 720.667 1054 546v-17zm-185.001 21.001c0 122-26 218.333-78 289s-123.333 106-214 106c-112 0-196-49.667-252-149v-517c55.333-98.667 140-148 254-148 88.667 0 159.167 35.167 211.5 105.5s78.5 174.833 78.5 313.5z"/><glyph glyph-name="q" unicode="q" horiz-adv-x="1164" d="M95 550c0 170 39.001 304.5 117.001 403.5s182.667 148.5 314 148.5c128 0 229-43 303-129l8 109h170V-416h-185v516c-74.667-80-174-120-298-120C393.334-20 289.167 30.833 211.5 132.5S95 369 95 537v13zm185.001-21c0-124 26.167-221.333 78.5-292s122.833-106 211.5-106c110 0 194 48.667 252 146v530c-58.667 95.333-142 143-250 143-89.333 0-160.333-35.5-213-106.5s-79-175.833-79-314.5z"/><glyph glyph-name="r" unicode="r" horiz-adv-x="693" d="M663 916c-28 4.667-58.334 7-91.001 7C450.666 923 368.333 871.333 325 768V0H140v1082h180l3-125c60.667 96.667 146.667 145 258 145 36 0 63.333-4.667 82-14V916z"/><glyph glyph-name="s" unicode="s" horiz-adv-x="1056" d="M770 287c0 50-18.828 88.835-56.495 116.502s-103.334 51.5-197.001 71.5-168 44-223 72-95.667 61.333-122 100-39.5 84.667-39.5 138c0 88.667 37.5 163.667 112.5 225s170.833 92 287.5 92c122.667 0 222.167-31.667 298.5-95s114.5-144.333 114.5-243h-186c0 50.667-21.5 94.334-64.5 131.001s-97.167 55-162.5 55c-67.333 0-120-14.667-158-44s-57-67.666-57-114.999c0-44.667 17.667-78.334 53-101.001s99.166-44.334 191.499-65.001 167.166-45.334 224.499-74.001 99.833-63.167 127.5-103.5 41.5-89.5 41.5-147.5c0-96.667-38.667-174.167-116-232.5s-177.666-87.5-301-87.5c-86.666 0-163.333 15.333-230 46s-118.834 73.5-156.501 128.5-56.5 114.5-56.5 178.5h185c3.333-62 28.166-111.167 74.499-147.5s107.5-54.5 183.5-54.5c70 0 126.167 14.167 168.5 42.5S770 239.667 770 287z"/><glyph glyph-name="t" unicode="t" horiz-adv-x="669" d="M391 1344l.001-262h202V939h-202V268c0-43.333 9-75.833 27-97.5s48.667-32.5 92-32.5c21.333 0 50.666 4 87.999 12V0c-48.667-13.333-96-20-142-20-82.667 0-145 25-187 75s-63 121-63 213v671H9v143h197v262h185z"/><glyph glyph-name="u" unicode="u" horiz-adv-x="1129" d="M808 107C736 22.333 630.332-20 490.999-20 375.666-20 287.833 13.5 227.5 80.5S136.667 246.667 136 378v704h185V383c0-164 66.667-246 200-246 141.333 0 235.333 52.667 282 158v787h185V0H812z"/><glyph glyph-name="v" unicode="v" horiz-adv-x="992" d="M497 251l268 831h189L566 0H425L33 1082h189z"/><glyph glyph-name="w" unicode="w" horiz-adv-x="1539" d="M1098 255l208 827h185L1176 0h-150L763 820 507 0H357L43 1082h184l213-810 252 810h149z"/><glyph glyph-name="x" unicode="x" horiz-adv-x="1015" d="M503 687l240 395h216L605 547 970 0H756L506 405 256 0H41l365 547-354 535h214z"/><glyph glyph-name="y" unicode="y" horiz-adv-x="969" d="M494 271l252 811.001h198l-435-1249c-67.333-180-174.333-270-321-270l-35 3-69 13v150l50-4c62.667 0 111.5 12.667 146.5 38S344.333-165.333 367-98l41 110L22 1082h202z"/><glyph glyph-name="z" unicode="z" horiz-adv-x="1015" d="M314 151h633V0H88v136l597 793H97v153h820V951z"/><glyph glyph-name="braceleft" unicode="{" horiz-adv-x="693" d="M632-366c-118 33.333-206.831 88.167-266.498 164.5s-89.5 177.166-89.5 302.499v199c0 162-70.667 243-212 243v145c141.333 0 212 80.667 212 242v208c1.333 122 31.166 220.5 89.499 295.5s147.166 129.5 266.499 163.5l38-115c-139.333-44.667-209-161-209-349v-202C461 779.666 405.333 674.333 294 615c111.333-60 167-166.333 167-319V90c2-183.333 71.667-297 209-341z"/><glyph glyph-name="bar" unicode="|" horiz-adv-x="499" d="M324-270H175v1726h149V-270z"/><glyph glyph-name="braceright" unicode="}" horiz-adv-x="693" d="M19-251C154.333-207.667 224.333-97.335 229 79.998v220c0 154 60.333 259 181 315-120.667 54.667-181 159.667-181 315v203c0 188-69.667 304.333-209 349l38 115c118-33.333 206.667-87.5 266-162.5s89.333-174.167 90-297.5v-210c0-159.333 70.667-239 212-239v-145c-141.333 0-212-81-212-243v-202c0-125.333-30.167-225.666-90.5-300.999S174.667-332.667 58-366z"/><glyph glyph-name="asciitilde" unicode="~" horiz-adv-x="1393" d="M1263 777c0-105.333-31.172-194.166-93.505-266.499s-139.166-108.5-230.499-108.5c-48 0-93.333 8.833-136 26.5s-92.167 51.167-148.5 100.5-96.833 80-121.5 92-51 18-79 18c-52 0-92-17.833-120-53.5s-42-84.834-42-147.501l-161-2c0 106.667 30.667 194.334 92 263.001s138.333 103 231 103c50.667 0 99.334-10.667 146.001-32s99.334-58.833 158.001-112.5S867.332 573.667 910 567l29-2c50.667 0 91.834 19.333 123.501 58s47.5 89.667 47.5 153z"/><glyph glyph-name="uni00A0" horiz-adv-x="507"/><glyph glyph-name="exclamdown" unicode="¡" horiz-adv-x="499" d="M170 684h168l13-1044H157zm188 312c0-30-9.167-55.333-27.5-76S285 889 249 889s-63.333 10.333-82 31-28 46-28 76 9.333 55 28 75 46 30 82 30 63.167-10 81.5-30 27.5-45 27.5-75z"/><glyph glyph-name="cent" unicode="¢" horiz-adv-x="1120" d="M586 131c66.667 0 124.668 20.166 174.001 60.499S836.667 281.665 842 340.998h175c-4-84-39-159.5-105-226.5S765 5.331 669-12.002v-233H484v234C364.667 11.665 271.667 70.332 205 164.999S105 380.333 105 527v35c0 141.333 33.667 259.5 101 354.5S366 1070 484 1092v226h185v-223c100-15.333 182-58.333 246-129s98-156 102-256H842c-5.333 70-31.833 127.5-79.5 172.5S656 950 586 950c-94 0-166.833-33.833-218.5-101.5S290 683 290 555v-35c0-124.667 25.833-220.667 77.5-288S492 131 586 131z"/><glyph glyph-name="sterling" unicode="£" horiz-adv-x="1190" d="M449 622l7.999-219.999c0-102.667-20.667-184.334-62-245.001h733l-1-157h-1032v157h77c26.667 6 48.334 30.833 65.001 74.5S262.667 329 264 393v8l-8 221H91v157h160l-9 260c0 132.667 40.833 238.667 122.5 318s189.167 119 322.5 119c126.667 0 227-35.333 301-106s111-165 111-283H908c0 71.333-21.167 127.666-63.5 168.999s-100.5 62-174.5 62c-70 0-126.667-25.667-170-77S435 1122.333 435 1039l9-260h319V622H449z"/><glyph glyph-name="currency" unicode="¤" horiz-adv-x="1460" d="M1103 112C997 24 874.333-20 735-20c-138 0-260 43.333-366 130L235-26 105 109l139 141c-69.333 104-104 223.333-104 358 0 137.333 37.333 260.333 112 369l-147 151 130 136 147-150c105.333 80 223 120 353 120 130.667 0 249-40.333 355-121l149 152 132-137-151-154c73.333-108.667 110-230.667 110-366 0-130.667-34-249-102-355l143-144-132-136zM311 608c0-82 19.17-158.33 57.503-228.997s90.166-126.334 155.499-167.001 135.666-61 210.999-61 145.666 20.5 210.999 61.5 116.833 96.667 154.5 167 56.5 146.5 56.5 228.5c0 81.333-18.833 157.166-56.5 227.499s-89.334 125.666-155.001 165.999-135.834 60.5-210.501 60.5c-75.333 0-145.666-20-211-60S406.834 906.667 368.5 836 311 689.333 311 608z"/><glyph glyph-name="yen" unicode="¥" horiz-adv-x="1075" d="M539 793l308 663h213L693 736h261V611H630V446h324V322H630V0H437v322H119v124h318v165H119v125h263L15 1456h216z"/><glyph glyph-name="brokenbar" unicode="¦" horiz-adv-x="491" d="M147-270v791h186v-791H147zm186 968H147v758h186V698z"/><glyph glyph-name="section" unicode="§" horiz-adv-x="1256" d="M1145 431c0-126-62.001-217.333-186.001-274 46-32.667 81-71.667 105-117s36-101.333 36-168c0-112-43.333-201.167-130-267.5s-206-99.5-358-99.5c-74.667 0-145.5 9.333-212.5 28s-123.833 47-170.5 85c-92.667 75.333-139 181.333-139 318l186 2c0-86.667 30-155.167 90-205.5s142-75.5 246-75.5c90.667 0 163.667 19.5 219 58.5s83 90.5 83 154.5c0 59.333-23.667 106.5-71 141.5S702.333 84.667 563 126c-121.333 32-214 66.5-278 103.5s-111.5 81.333-142.5 133S96 477 96 551c0 124 60.667 215.333 182 274-44 32.667-77.833 71.667-101.5 117S141 1043.333 141 1110c0 110.667 44.5 199.334 133.5 266.001s207.5 100 355.5 100c154.667 0 275.334-37.667 362.001-113s130-181.333 130-318h-185c0 83.333-28 150.833-84 202.5s-130.333 77.5-223 77.5c-94.667 0-168.834-19.167-222.501-57.5s-80.5-90.166-80.5-155.499c0-46 9.333-82.333 28-109s50.5-50.834 95.5-72.501 115.333-45.834 211-72.501 171.667-52 228-76 103.333-52.167 141-84.5 66.167-70 85.5-113 29-94.167 29-153.5zM601.999 691c-60 16-115.001 33.001-165.001 51.001-53.333-12.667-92.5-35.834-117.5-69.501s-37.5-73.5-37.5-119.5c0-46.667 9-83.334 27-110.001s49.167-51 93.5-73 113.833-46.667 208.5-74 156.667-46.666 186-57.999c52 13.333 92 36.833 120 70.5s42 73.5 42 119.5c0 58.667-23.167 106.167-69.5 142.5S747.332 647 601.999 691z"/><glyph glyph-name="dieresis" unicode="¨" horiz-adv-x="856" d="M101 1371c0 30 9.167 55.167 27.5 75.5S174 1477 210 1477s63.333-10.167 82-30.5 28-45.5 28-75.5-9.333-55-28-75-46-30-82-30-63.167 10-81.5 30-27.5 45-27.5 75zm430-2c0 30 9.167 55.333 27.5 76s45.5 31 81.5 31 63.333-10.333 82-31 28-46 28-76-9.333-55-28-75-46-30-82-30-63.167 10-81.5 30-27.5 45-27.5 75z"/><glyph glyph-name="copyright" unicode="©" horiz-adv-x="1609" d="M1119 597c0-102-28.832-179.831-86.499-233.498s-139.167-80.5-244.5-80.5c-104.667 0-188.5 35.167-251.5 105.5s-94.5 166.166-94.5 287.499v110c0 117.333 31.833 211.166 95.5 281.499s147.167 105.5 250.5 105.5c106.667 0 188.667-27.333 246-82s86-131.667 86-231h-146c0 66-15.833 113.167-47.5 141.5S848.667 1044 788 1044c-62.667 0-112-23-148-69s-54-110-54-192V670c0-80 18-143 54-189s85.333-69 148-69c61.333 0 107.5 14 138.5 42S973 529.667 973 597h146zM206.001 729.002c0-114.667 26.668-220.836 80.001-318.503s125.833-174.167 217.5-229.5 190.834-83 297.501-83 205.667 27.667 297 83 163.666 131.833 216.999 229.5 80 203.834 80 318.501c0 113.333-26.333 218.333-79 315s-124.834 172.834-216.501 228.501-191.167 83.5-298.5 83.5c-106.667 0-206-27.5-298-82.5s-164.5-131.167-217.5-228.5-79.5-202.666-79.5-315.999zM91.002 729c0 134.667 31.167 259.667 93.5 375s148.666 206.166 258.999 272.499 229.5 99.5 357.5 99.5 247-33.167 357-99.5 196.167-157.166 258.5-272.499 93.5-240.333 93.5-375c0-131.333-30-254.333-90-369s-145.167-206.834-255.5-276.501-231.5-104.5-363.5-104.5c-131.333 0-252.166 34.5-362.499 103.5s-195.833 160.833-256.5 275.5-91 238.334-91 371.001z"/><glyph glyph-name="ordfeminine" unicode="ª" horiz-adv-x="915" d="M618 705c-8 22.667-14.001 46.667-18.001 72-50.667-57.333-118.667-86-204-86-79.333 0-140.666 20.667-183.999 62s-65 96.333-65 165c0 74 27.833 131 83.5 171s140.834 60 255.501 60h108v52c0 90-41.333 135-124 135-46 0-82.167-9-108.5-27s-39.5-44-39.5-78l-161 12c0 68.667 28.667 124.667 86 168s131.666 65 222.999 65c88.667 0 158.667-23.833 210-71.5s77-116.167 77-205.5V883c0-64.667 8.667-124 26-178H618zM434.999 828c28.667 0 57.667 6.667 87 20s53.333 29 72 47v142h-112c-55.333-.667-97.833-11.5-127.5-32.5s-44.5-48.5-44.5-82.5c0-62.667 41.667-94 125-94z"/><glyph glyph-name="guillemotleft" unicode="«" horiz-adv-x="961" d="M280 548l258-397H397L102 539v19l295 389h141zm330 0l258-397H727L432 539v19l295 389h141z"/><glyph glyph-name="logicalnot" unicode="¬" horiz-adv-x="1134" d="M958 375H772v264H127v161h831V375z"/><glyph glyph-name="uni00AD" unicode="­" horiz-adv-x="565" d="M525 543H37v151h488V543z"/><glyph glyph-name="registered" unicode="®" horiz-adv-x="1610" d="M90 729c0 134.667 31.167 259.667 93.5 375s148.666 206.166 258.999 272.499 229.5 99.5 357.5 99.5 247-33.167 357-99.5 196.167-157.166 258.5-272.499 93.5-240.333 93.5-375c0-131.333-30-254.333-90-369s-145.167-206.834-255.5-276.501-231.5-104.5-363.5-104.5c-131.333 0-252.166 34.5-362.499 103.5S241.667 243.332 181 357.999 90 596.333 90 729zm115 0c0-114.667 26.666-220.835 79.999-318.502s125.833-174.167 217.5-229.5 190.834-83 297.501-83c107.333 0 207 28.167 299 84.5s164.167 132.833 216.5 229.5 78.5 202.334 78.5 317.001c0 114-26.167 219.167-78.5 315.5s-124.5 172.333-216.5 228-191.667 83.5-299 83.5c-106.667 0-206-27.5-298-82.5s-164.5-131.167-217.5-228.5S205 842.333 205 729zm447.999-75.001L653 315.998H512v849h276c102 0 181.167-21.833 237.5-65.5s84.5-107.167 84.5-190.5c0-82-42.667-144.667-128-188 81.333-33.333 122.333-101.333 123-204v-61c0-57.333 5.667-98.666 17-123.999v-16H977c-9.333 24-14 66.833-14 128.5s-1 98.167-3 109.5c-10.667 64-54.334 97.333-131.001 100h-176zM653 781.998h156c48 1.333 86.667 13 116 35s44 51 44 87c0 48.667-13 83.167-39 103.5s-72.333 30.5-139 30.5H653v-256z"/><glyph glyph-name="macron" unicode="¯" horiz-adv-x="938" d="M814 1302H142v143h672v-143z"/><glyph glyph-name="degree" unicode="°" horiz-adv-x="765" d="M130 1216c0 69.333 24.832 130 74.499 182s109.834 78 180.501 78c69.333 0 128.5-25.833 177.5-77.5S636 1286 636 1216c0-70.667-24.5-131-73.5-181S454.333 960 385 960c-70 0-130 25-180 75s-75 110.333-75 181zm254.999-128c36 0 66.333 11.833 91 35.5s37 54.5 37 92.5c0 38.667-12.333 70.5-37 95.5s-55 37.5-91 37.5c-36.667 0-67.5-13.167-92.5-39.5s-37.5-57.5-37.5-93.5 12.5-66.333 37.5-91 55.833-37 92.5-37z"/><glyph glyph-name="plusminus" unicode="±" horiz-adv-x="1094" d="M649 854h364V703H649V289H482v414H97v151h385v413h167V854zM970 0H135v152h835V0z"/><glyph glyph-name="uni00B2" unicode="²" horiz-adv-x="751" d="M683 667l-599-.002v108l300 282c72.667 68 109 125 109 171 0 32.667-10.667 59.167-32 79.5s-52 30.5-92 30.5c-50 0-86.833-12.667-110.5-38s-35.5-57-35.5-95H66c0 76 27.833 138.667 83.5 188s127.5 74 215.5 74 157.667-21.167 209-63.5 77-100.166 77-173.499c0-69.333-35.667-139.666-107-210.999l-84-79-176-145h399V667z"/><glyph glyph-name="uni00B3" unicode="³" horiz-adv-x="751" d="M265 1126h84.001c49.333 0 86 10.167 110 30.5s36 46.5 36 78.5c0 30-10.5 54.667-31.5 74s-54.833 29-101.5 29c-38 0-69.5-8.5-94.5-25.5s-37.5-39.167-37.5-66.5h-157c0 65.333 27.167 118.5 81.5 159.5s122.833 61.5 205.5 61.5c91.333 0 163-20.167 215-60.5s78-95.166 78-164.499c0-36.667-11.667-70.167-35-100.5s-57-53.833-101-70.5c99.333-27.333 149-88.666 149-183.999 0-70.667-28.333-126.834-85-168.501s-130.334-62.5-221.001-62.5c-88 0-159.667 21-215 63s-83 98.667-83 170h158c0-30 13.167-55 39.5-75s61.833-30 106.5-30c46.667 0 82.167 10 106.5 30s36.5 47 36.5 81c0 75.333-52 113.666-156 114.999h-88v116z"/><glyph glyph-name="acute" unicode="´" horiz-adv-x="642" d="M316 1536h224l-268-294H123z"/><glyph glyph-name="uni00B5" unicode="µ" horiz-adv-x="1160" d="M339 1082l.001-633c.667-108.667 18.167-189 52.5-241S481.667 130 559 130c132.667 0 219.667 50.667 261 152v800h186V0H839l-9 115C768 25 680.333-20 567-20c-98 0-174 24.333-228 73v-469H154v1498h185z"/><glyph glyph-name="paragraph" unicode="¶" horiz-adv-x="1001" d="M646 0l-.001 519.999h-84c-153.333 0-274.166 42.333-362.499 127S67 845.333 67 988c0 142 44.333 255.5 133 340.5S409.667 1456 563 1456h269V0H646z"/><glyph glyph-name="periodcentered" unicode="·" horiz-adv-x="534" d="M147 729c0 32 9.5 58.667 28.5 80s47.5 32 85.5 32 66.833-10.667 86.5-32 29.5-48 29.5-80c0-31.333-9.833-57.5-29.5-78.5S299 619 261 619s-66.5 10.5-85.5 31.5S147 697.667 147 729z"/><glyph glyph-name="cedilla" unicode="¸" horiz-adv-x="507" d="M285 0l-12.002-51.998c102-18 153-75.667 153-173 0-64.667-26.667-115.834-80-153.501s-127.666-56.5-222.999-56.5l-7 107c52.667 0 93.5 8.667 122.5 26s43.5 41.666 43.5 72.999c0 29.333-10.667 51-32 65S185.333-140 120-134L152 0h133z"/><glyph glyph-name="uni00B9" unicode="¹" horiz-adv-x="751" d="M495 667H338v601l-216-57v128l355 117h18V667z"/><glyph glyph-name="ordmasculine" unicode="º" horiz-adv-x="931" d="M122 1123c0 105.333 31.332 190.5 93.999 255.5S361.333 1476 464 1476c103.333 0 186.333-32.167 249-96.5s94-151.833 94-262.5v-74c0-106-31.167-191.333-93.5-256S568.667 690 466 690s-185.667 32.333-249 97-95 152-95 262v74zm162.999-80c0-66.667 16.166-118.998 48.499-156.998s76.5-57 132.5-57c55.333 0 98.833 19.167 130.5 57.5s47.5 91.166 47.5 158.499v78c0 66-16.167 118-48.5 156s-76.166 57-131.499 57c-54 0-97-18.333-129-55s-48.667-87.334-50-152.001v-86z"/><glyph glyph-name="guillemotright" unicode="»" horiz-adv-x="960" d="M244 949l295-389v-19L244 152H102l258 398-258 399h142zm349 0l295-389v-19L593 152H451l258 398-258 399h142z"/><glyph glyph-name="onequarter" unicode="¼" horiz-adv-x="1500" d="M458 664H301v601l-216-57v128l355 117h18V664zm-15-546l-104 66 711 1138 104-66zm875 181h107V169h-107V0h-157v169H786l-6 102 377 518h161V299zm-380 0h223v289l-17-28z"/><glyph glyph-name="onehalf" unicode="½" horiz-adv-x="1589" d="M399 118l-104 66 711 1138 104-66zm54 546H296v601l-216-57v128l355 117h18V664zM1481 0L882-.002v108l300 282c72.667 68 109 125 109 171 0 32.667-10.667 59.167-32 79.5s-52 30.5-92 30.5c-50 0-86.833-12.667-110.5-38s-35.5-57-35.5-95H864c0 76 27.833 138.667 83.5 188s127.5 74 215.5 74 157.667-21.167 209-63.5 77-100.166 77-173.499c0-69.333-35.667-139.666-107-210.999l-84-79-176-145h399V0z"/><glyph glyph-name="threequarters" unicode="¾" horiz-adv-x="1593" d="M570 118l-104 66 711 1138 104-66zm840 181h107V169h-107V0h-157v169H878l-6 102 377 518h161V299zm-380 0h223v289l-17-28zm-716 827h84.001c49.333 0 86 10.167 110 30.5s36 46.5 36 78.5c0 30-10.5 54.667-31.5 74s-54.833 29-101.5 29c-38 0-69.5-8.5-94.5-25.5s-37.5-39.167-37.5-66.5h-157c0 65.333 27.167 118.5 81.5 159.5s122.833 61.5 205.5 61.5c91.333 0 163-20.167 215-60.5s78-95.166 78-164.499c0-36.667-11.667-70.167-35-100.5s-57-53.833-101-70.5c99.333-27.333 149-88.666 149-183.999 0-70.667-28.333-126.834-85-168.501s-130.334-62.5-221.001-62.5c-88 0-159.667 21-215 63s-83 98.667-83 170h158c0-30 13.167-55 39.5-75s61.833-30 106.5-30c46.667 0 82.167 10 106.5 30s36.5 47 36.5 81c0 75.333-52 113.666-156 114.999h-88v116z"/><glyph glyph-name="questiondown" unicode="¿" horiz-adv-x="969" d="M588 680c-.667-70.667-7.836-127.17-21.503-169.503s-36.5-83.166-68.5-122.499-78.667-91.166-140-155.499-95.666-129.5-102.999-195.5l-2-37c0-72.667 19.333-128.167 58-166.5s94.334-57.5 167.001-57.5c66.667 0 120.834 18.833 162.501 56.5S703-80.667 703-20h185c-1.333-107.333-39.5-195-114.5-263S600-385 478-385c-130.667 0-231.667 33.5-303 100.5S68-124.333 68-5c0 115.333 53.333 231.333 160 348l109 113c44 52 66 126.667 66 224h185zm7.998 316.997c0-30-9.167-55.333-27.5-76s-45.5-31-81.5-31-63.333 10.333-82 31-28 46-28 76c0 29.333 9.333 54 28 74s46 30 82 30 63.167-10 81.5-30 27.5-44.667 27.5-74z"/><glyph glyph-name="Agrave" unicode="À" d="M973 380H363L226 0H28l556 1456h168L1309 0h-197zM421 538h495l-248 681zm357 1014H619l-258 294h223z"/><glyph glyph-name="Aacute" unicode="Á" d="M973 380H363L226 0H28l556 1456h168L1309 0h-197zM421 538h495l-248 681zm342 1308h224l-268-294H570z"/><glyph glyph-name="Acircumflex" unicode="Â" d="M973 380H363L226 0H28l556 1456h168L1309 0h-197zM421 538h495l-248 681zm554 1034v-10H822l-150 170-149-170H370v12l246 272h112z"/><glyph glyph-name="Atilde" unicode="Ã" d="M973 380H363L226 0H28l556 1456h168L1309 0h-197zM421 538h495l-248 681zm606 1276c0-72-20.502-130.334-61.502-175.001s-92.167-67-153.5-67c-27.333 0-51 3.333-71 10s-46.167 20.334-78.5 41.001-55.666 33.167-69.999 37.5-30.833 6.5-49.5 6.5c-27.333 0-50.666-10.5-69.999-31.5s-29-47.833-29-80.5l-124 7c0 71.333 20.167 130.333 60.5 177s91.5 70 153.5 70c23.333 0 44.333-3.333 63-10s44-19.667 76-39 56.5-32 73.5-38 35.833-9 56.5-9c28.667 0 52.5 11.333 71.5 34s28.5 49 28.5 79z"/><glyph glyph-name="Adieresis" unicode="Ä" d="M973 380H363L226 0H28l556 1456h168L1309 0h-197zM421 538h495l-248 681zm-71 1143c0 30 9.167 55.167 27.5 75.5S423 1787 459 1787s63.333-10.167 82-30.5 28-45.5 28-75.5-9.333-55-28-75-46-30-82-30-63.167 10-81.5 30-27.5 45-27.5 75zm430-2c0 30 9.167 55.333 27.5 76s45.5 31 81.5 31 63.333-10.333 82-31 28-46 28-76-9.333-55-28-75-46-30-82-30-63.167 10-81.5 30-27.5 45-27.5 75z"/><glyph glyph-name="Aring" unicode="Å" d="M973 380H363L226 0H28l556 1456h168L1309 0h-197zM421 538h495l-248 681zm466 1191c0-58-20.667-106.499-62-145.499s-92.333-58.5-153-58.5c-61.333 0-112.5 19.667-153.5 59S457 1671.667 457 1729s20.5 106.333 61.5 147 92.167 61 153.5 61 112.5-20.333 153.5-61 61.5-89.667 61.5-147zm-331 0c0-31.333 11.167-58.333 33.5-81s49.833-34 82.5-34c32 0 59.333 11 82 33s34 49.333 34 82-11.167 60.5-33.5 83.5-49.833 34.5-82.5 34.5c-33.333 0-61-11.667-83-35s-33-51-33-83z"/><glyph glyph-name="AE" unicode="Æ" horiz-adv-x="1914" d="M1879 0H996l-15 353H417L212 0H-14l880 1456h951v-152h-691l20-471h590V682h-584l22-531h705V0zM518 527h456l-31 733z"/><glyph glyph-name="Ccedilla" unicode="Ç" horiz-adv-x="1333" d="M1240 462c-18-154-74.83-272.833-170.497-356.5S846.669-20 688.002-20c-172 0-309.833 61.667-413.5 185s-155.5 288.333-155.5 495v140c0 135.333 24.167 254.333 72.5 357s116.833 181.5 205.5 236.5 191.334 82.5 308.001 82.5c154.667 0 278.667-43.167 372-129.5s147.666-205.833 162.999-358.5h-193c-16.667 116-52.834 200-108.501 252s-133.5 78-233.5 78c-122.667 0-218.834-45.333-288.501-136S312 962.333 312 795V654c0-158 33-283.667 99-377s158.333-140 277-140c106.667 0 188.5 24.167 245.5 72.5S1028.333 342 1047 462h193zM751.003-9l-12.002-51.998c102-18 153-75.667 153-173 0-64.667-26.667-115.834-80-153.501s-127.666-56.5-222.999-56.5l-7 107c52.667 0 93.5 8.667 122.5 26s43.5 41.666 43.5 72.999c0 29.333-10.667 51-32 65s-64.666 24-129.999 30l32 134h133z"/><glyph glyph-name="Egrave" unicode="È" horiz-adv-x="1164" d="M992 673H361V157h733V0H169v1456h915v-158H361V830h631V673zm-267 891H566l-258 294h223z"/><glyph glyph-name="Eacute" unicode="É" horiz-adv-x="1164" d="M992 673H361V157h733V0H169v1456h915v-158H361V830h631V673zM710 1858h224l-268-294H517z"/><glyph glyph-name="Ecircumflex" unicode="Ê" horiz-adv-x="1164" d="M992 673H361V157h733V0H169v1456h915v-158H361V830h631V673zm-70 911v-10H769l-150 170-149-170H317v12l246 272h112z"/><glyph glyph-name="Edieresis" unicode="Ë" horiz-adv-x="1164" d="M992 673H361V157h733V0H169v1456h915v-158H361V830h631V673zM297 1693c0 30 9.167 55.167 27.5 75.5S370 1799 406 1799s63.333-10.167 82-30.5 28-45.5 28-75.5-9.333-55-28-75-46-30-82-30-63.167 10-81.5 30-27.5 45-27.5 75zm430-2c0 30 9.167 55.333 27.5 76s45.5 31 81.5 31 63.333-10.333 82-31 28-46 28-76-9.333-55-28-75-46-30-82-30-63.167 10-81.5 30-27.5 45-27.5 75z"/><glyph glyph-name="Igrave" unicode="Ì" horiz-adv-x="557" d="M375 0H183v1456h192V0zm10 1564H226l-258 294h223z"/><glyph glyph-name="Iacute" unicode="Í" horiz-adv-x="557" d="M375 0H183v1456h192V0zm-6 1858h224l-268-294H176z"/><glyph glyph-name="Icircumflex" unicode="Î" horiz-adv-x="557" d="M375 0H183v1456h192V0zm207 1584v-10H429l-150 170-149-170H-23v12l246 272h112z"/><glyph glyph-name="Idieresis" unicode="Ï" horiz-adv-x="557" d="M375 0H183v1456h192V0zM-43 1693c0 30 9.167 55.167 27.5 75.5S30 1799 66 1799s63.333-10.167 82-30.5 28-45.5 28-75.5-9.333-55-28-75-46-30-82-30-63.167 10-81.5 30-27.5 45-27.5 75zm430-2c0 30 9.167 55.333 27.5 76s45.5 31 81.5 31 63.333-10.333 82-31 28-46 28-76-9.333-55-28-75-46-30-82-30-63.167 10-81.5 30-27.5 45-27.5 75z"/><glyph glyph-name="Eth" unicode="Ð" horiz-adv-x="1373" d="M199 0v665.997H7v151h192v639h411c126.667 0 238.667-28 336-84s172.5-135.667 225.5-239 79.833-222 80.5-356v-93c0-137.333-26.5-257.666-79.5-360.999s-128.667-182.666-227-237.999S732.667 1.333 602 0H199zm444 665.997H391.001v-509h201c148 0 263.167 45.667 345.5 137s123.833 220 124.5 386v93c0 165.333-38.833 293.833-116.5 385.5S757.667 1296.664 615 1297.997H391v-481h252v-151z"/><glyph glyph-name="Ntilde" unicode="Ñ" horiz-adv-x="1460" d="M1288 0h-193L362 1122V0H169v1456h193l735-1127v1127h191V0zm-207 1814c0-72-20.502-130.334-61.502-175.001s-92.167-67-153.5-67c-27.333 0-51 3.333-71 10s-46.167 20.334-78.5 41.001-55.666 33.167-69.999 37.5-30.833 6.5-49.5 6.5c-27.333 0-50.666-10.5-69.999-31.5s-29-47.833-29-80.5l-124 7c0 71.333 20.167 130.333 60.5 177s91.5 70 153.5 70c23.333 0 44.333-3.333 63-10s44-19.667 76-39 56.5-32 73.5-38 35.833-9 56.5-9c28.667 0 52.5 11.333 71.5 34s28.5 49 28.5 79z"/><glyph glyph-name="Ograve" unicode="Ò" horiz-adv-x="1408" d="M1289 681c0-142.667-23.999-267.165-71.999-373.498s-116-187.5-204-243.5-190.667-84-308-84c-114.667 0-216.334 28.167-305.001 84.5S242.5 201.168 193.5 305.501 119.333 530.667 118 668v105c0 140 24.333 263.667 73 371s117.5 189.5 206.5 246.5S588.333 1476 703 1476c116.667 0 219.5-28.167 308.5-84.5s157.5-138 205.5-245 72-231.5 72-373.5v-92zm-191 94.002c0 172.667-34.666 305.167-103.999 397.5s-166.333 138.5-291 138.5c-121.333 0-216.833-46.167-286.5-138.5s-105.5-220.5-107.5-384.5v-107c0-167.333 35.167-298.833 105.5-394.5s167.166-143.5 290.499-143.5c124 0 220 45.167 288 135.5s103 219.833 105 388.5v108zM812.002 1554h-159l-258 294h223z"/><glyph glyph-name="Oacute" unicode="Ó" horiz-adv-x="1408" d="M1289 681c0-142.667-23.999-267.165-71.999-373.498s-116-187.5-204-243.5-190.667-84-308-84c-114.667 0-216.334 28.167-305.001 84.5S242.5 201.168 193.5 305.501 119.333 530.667 118 668v105c0 140 24.333 263.667 73 371s117.5 189.5 206.5 246.5S588.333 1476 703 1476c116.667 0 219.5-28.167 308.5-84.5s157.5-138 205.5-245 72-231.5 72-373.5v-92zm-191 94.002c0 172.667-34.666 305.167-103.999 397.5s-166.333 138.5-291 138.5c-121.333 0-216.833-46.167-286.5-138.5s-105.5-220.5-107.5-384.5v-107c0-167.333 35.167-298.833 105.5-394.5s167.166-143.5 290.499-143.5c124 0 220 45.167 288 135.5s103 219.833 105 388.5v108zM797.002 1848h224l-268-294h-149z"/><glyph glyph-name="Ocircumflex" unicode="Ô" horiz-adv-x="1408" d="M1289 681c0-142.667-23.999-267.165-71.999-373.498s-116-187.5-204-243.5-190.667-84-308-84c-114.667 0-216.334 28.167-305.001 84.5S242.5 201.168 193.5 305.501 119.333 530.667 118 668v105c0 140 24.333 263.667 73 371s117.5 189.5 206.5 246.5S588.333 1476 703 1476c116.667 0 219.5-28.167 308.5-84.5s157.5-138 205.5-245 72-231.5 72-373.5v-92zm-191 94.002c0 172.667-34.666 305.167-103.999 397.5s-166.333 138.5-291 138.5c-121.333 0-216.833-46.167-286.5-138.5s-105.5-220.5-107.5-384.5v-107c0-167.333 35.167-298.833 105.5-394.5s167.166-143.5 290.499-143.5c124 0 220 45.167 288 135.5s103 219.833 105 388.5v108zM1009 1574v-10H856l-150 170-149-170H404v12l246 272h112z"/><glyph glyph-name="Otilde" unicode="Õ" horiz-adv-x="1408" d="M1289 681c0-142.667-23.999-267.165-71.999-373.498s-116-187.5-204-243.5-190.667-84-308-84c-114.667 0-216.334 28.167-305.001 84.5S242.5 201.168 193.5 305.501 119.333 530.667 118 668v105c0 140 24.333 263.667 73 371s117.5 189.5 206.5 246.5S588.333 1476 703 1476c116.667 0 219.5-28.167 308.5-84.5s157.5-138 205.5-245 72-231.5 72-373.5v-92zm-191 94.002c0 172.667-34.666 305.167-103.999 397.5s-166.333 138.5-291 138.5c-121.333 0-216.833-46.167-286.5-138.5s-105.5-220.5-107.5-384.5v-107c0-167.333 35.167-298.833 105.5-394.5s167.166-143.5 290.499-143.5c124 0 220 45.167 288 135.5s103 219.833 105 388.5v108zM1061 1816c0-72-20.502-130.334-61.502-175.001s-92.167-67-153.5-67c-27.333 0-51 3.333-71 10s-46.167 20.334-78.5 41.001-55.666 33.167-69.999 37.5-30.833 6.5-49.5 6.5c-27.333 0-50.666-10.5-69.999-31.5s-29-47.833-29-80.5l-124 7c0 71.333 20.167 130.333 60.5 177s91.5 70 153.5 70c23.333 0 44.333-3.333 63-10s44-19.667 76-39 56.5-32 73.5-38 35.833-9 56.5-9c28.667 0 52.5 11.333 71.5 34s28.5 49 28.5 79z"/><glyph glyph-name="Odieresis" unicode="Ö" horiz-adv-x="1408" d="M1289 681c0-142.667-23.999-267.165-71.999-373.498s-116-187.5-204-243.5-190.667-84-308-84c-114.667 0-216.334 28.167-305.001 84.5S242.5 201.168 193.5 305.501 119.333 530.667 118 668v105c0 140 24.333 263.667 73 371s117.5 189.5 206.5 246.5S588.333 1476 703 1476c116.667 0 219.5-28.167 308.5-84.5s157.5-138 205.5-245 72-231.5 72-373.5v-92zm-191 94.002c0 172.667-34.666 305.167-103.999 397.5s-166.333 138.5-291 138.5c-121.333 0-216.833-46.167-286.5-138.5s-105.5-220.5-107.5-384.5v-107c0-167.333 35.167-298.833 105.5-394.5s167.166-143.5 290.499-143.5c124 0 220 45.167 288 135.5s103 219.833 105 388.5v108zM384.002 1683c0 30 9.167 55.167 27.5 75.5s45.5 30.5 81.5 30.5 63.333-10.167 82-30.5 28-45.5 28-75.5-9.333-55-28-75-46-30-82-30-63.167 10-81.5 30-27.5 45-27.5 75zm430-2c0 30 9.167 55.333 27.5 76s45.5 31 81.5 31 63.333-10.333 82-31 28-46 28-76-9.333-55-28-75-46-30-82-30-63.167 10-81.5 30-27.5 45-27.5 75z"/><glyph glyph-name="multiply" unicode="×" horiz-adv-x="1092" d="M89 329l330 336-328 335 119 123 329-335 329 335 119-123-328-335 330-336-119-123-331 337-331-337z"/><glyph glyph-name="Oslash" unicode="Ø" horiz-adv-x="1408" d="M1289 681c0-142.667-24-267.167-72-373.5S1101 120 1013 64 822.333-20 705-20C591-20 490.333 7.333 403 62L306-93H164l144 231C181.333 266 118 450 118 690v83c0 140 24.333 263.667 73 371s117.5 189.5 206.5 246.5S588.333 1476 703 1476c142.667 0 263.334-41.667 362.001-125l103 165h141l-159-255c91.333-124.667 137.666-285 138.999-481v-99zm-980 0c0-162.667 32.667-291 98-385l564 904c-68 74-157.333 111-268 111-121.333 0-216.833-46.167-286.5-138.5S311 952 309 788V681zm789 94c0 121.333-18.668 225.667-56.001 313l-549-881c60.667-42.667 131.334-64 212.001-64 124 0 220 45.167 288 135.5s103 219.833 105 388.5v108z"/><glyph glyph-name="Ugrave" unicode="Ù" horiz-adv-x="1328" d="M1194 1456l.001-990.002c-.667-137.333-43.834-249.666-129.501-336.999s-201.834-136.333-348.501-147l-51-2c-159.333 0-286.333 43-381 129s-142.667 204.333-144 355v992h190v-986c0-105.333 29-187.166 87-245.499s140.667-87.5 248-87.5c108.667 0 191.834 29 249.501 87s86.5 139.667 86.5 245v987h193zm-420.999 96h-159l-258 294h223z"/><glyph glyph-name="Uacute" unicode="Ú" horiz-adv-x="1328" d="M1194 1456l.001-990.002c-.667-137.333-43.834-249.666-129.501-336.999s-201.834-136.333-348.501-147l-51-2c-159.333 0-286.333 43-381 129s-142.667 204.333-144 355v992h190v-986c0-105.333 29-187.166 87-245.499s140.667-87.5 248-87.5c108.667 0 191.834 29 249.501 87s86.5 139.667 86.5 245v987h193zm-435.999 390h224l-268-294h-149z"/><glyph glyph-name="Ucircumflex" unicode="Û" horiz-adv-x="1328" d="M1194 1456l.001-990.002c-.667-137.333-43.834-249.666-129.501-336.999s-201.834-136.333-348.501-147l-51-2c-159.333 0-286.333 43-381 129s-142.667 204.333-144 355v992h190v-986c0-105.333 29-187.166 87-245.499s140.667-87.5 248-87.5c108.667 0 191.834 29 249.501 87s86.5 139.667 86.5 245v987h193zm-223.999 116v-10h-153l-150 170-149-170h-153v12l246 272h112z"/><glyph glyph-name="Udieresis" unicode="Ü" horiz-adv-x="1328" d="M1194 1456l.001-990.002c-.667-137.333-43.834-249.666-129.501-336.999s-201.834-136.333-348.501-147l-51-2c-159.333 0-286.333 43-381 129s-142.667 204.333-144 355v992h190v-986c0-105.333 29-187.166 87-245.499s140.667-87.5 248-87.5c108.667 0 191.834 29 249.501 87s86.5 139.667 86.5 245v987h193zm-848.999 225c0 30 9.167 55.167 27.5 75.5s45.5 30.5 81.5 30.5 63.333-10.167 82-30.5 28-45.5 28-75.5-9.333-55-28-75-46-30-82-30-63.167 10-81.5 30-27.5 45-27.5 75zm430-2c0 30 9.167 55.333 27.5 76s45.5 31 81.5 31 63.333-10.333 82-31 28-46 28-76-9.333-55-28-75-46-30-82-30-63.167 10-81.5 30-27.5 45-27.5 75z"/><glyph glyph-name="Yacute" unicode="Ý" horiz-adv-x="1230" d="M613 725l380 731h218L709 543V0H517v543L15 1456h220zm95 1121h224l-268-294H515z"/><glyph glyph-name="Thorn" unicode="Þ" horiz-adv-x="1210" d="M352 1456v-293h279c98 0 183.667-17.5 257-52.5s129.833-84.833 169.5-149.5 59.5-139 59.5-223c0-129.333-44-232.5-132-309.5S777.333 313 626 313H352V0H166v1456h186zm0-445V465h277c94.667 0 168.667 25.167 222 75.5S931 656 931 736c0 82-26.667 148.167-80 198.5s-125.333 75.833-216 76.5H352z"/><glyph glyph-name="germandbls" unicode="ß" horiz-adv-x="1218" d="M324 0L138.999-.002v1111c0 138.667 34.5 247.167 103.5 325.5s165.5 117.5 289.5 117.5c120 0 212.833-29.833 278.5-89.5s98.5-142.5 98.5-248.5c0-83.333-21.333-158.833-64-226.5s-64-124.5-64-170.5c0-34 12.5-66.833 37.5-98.5s68.833-71.5 131.5-119.5 108.334-94.667 137.001-140 43-93.333 43-144c0-106-33.833-188.667-101.5-248s-162.167-89-283.5-89c-54 0-111.167 7.333-171.5 22S470.334 33.332 445.001 51.999l43 155c32.667-21.333 71.5-39.333 116.5-54s85.167-22 120.5-22c71.333 0 125.833 15.667 163.5 47s56.5 74.333 56.5 129c0 34.667-12.333 68-37 100s-68.5 72.5-131.5 121.5-109 96.5-138 142.5-43.5 96-43.5 150c0 59.333 23.167 123.5 69.5 192.5s69.5 131.5 69.5 187.5c0 62.667-17.333 111.834-52 147.501S600.667 1402 542 1402c-145.333 0-218-97.667-218-293V0z"/><glyph glyph-name="agrave" unicode="à" horiz-adv-x="1114" d="M808 0c-10.667 21.333-19.336 59.332-26.003 113.999-86-89.333-188.667-134-308-134-106.667 0-194.167 30.167-262.5 90.5s-102.5 136.833-102.5 229.5c0 112.667 42.833 200.167 128.5 262.5s206.167 93.5 361.5 93.5h180v85c0 64.667-19.333 116.167-58 154.5s-95.667 57.5-171 57.5c-66 0-121.333-16.667-166-50s-67-73.666-67-120.999h-186c0 54 19.167 106.167 57.5 156.5s90.333 90.166 156 119.499 137.834 44 216.501 44c124.667 0 222.334-31.167 293.001-93.5S961.333 860.333 964 751V253c0-99.333 12.667-178.333 38-237V0H808zM500.998 140.999c58 0 112.999 15 164.999 45s89.667 69 113 117v222h-145c-226.667 0-340-66.333-340-199 0-58 19.333-103.333 58-136s88.334-49 149.001-49zM686.997 1242h-159l-258 294h223z"/><glyph glyph-name="aacute" unicode="á" horiz-adv-x="1114" d="M808 0c-10.667 21.333-19.336 59.332-26.003 113.999-86-89.333-188.667-134-308-134-106.667 0-194.167 30.167-262.5 90.5s-102.5 136.833-102.5 229.5c0 112.667 42.833 200.167 128.5 262.5s206.167 93.5 361.5 93.5h180v85c0 64.667-19.333 116.167-58 154.5s-95.667 57.5-171 57.5c-66 0-121.333-16.667-166-50s-67-73.666-67-120.999h-186c0 54 19.167 106.167 57.5 156.5s90.333 90.166 156 119.499 137.834 44 216.501 44c124.667 0 222.334-31.167 293.001-93.5S961.333 860.333 964 751V253c0-99.333 12.667-178.333 38-237V0H808zM500.998 140.999c58 0 112.999 15 164.999 45s89.667 69 113 117v222h-145c-226.667 0-340-66.333-340-199 0-58 19.333-103.333 58-136s88.334-49 149.001-49zM671.997 1536h224l-268-294h-149z"/><glyph glyph-name="acircumflex" unicode="â" horiz-adv-x="1114" d="M808 0c-10.667 21.333-19.336 59.332-26.003 113.999-86-89.333-188.667-134-308-134-106.667 0-194.167 30.167-262.5 90.5s-102.5 136.833-102.5 229.5c0 112.667 42.833 200.167 128.5 262.5s206.167 93.5 361.5 93.5h180v85c0 64.667-19.333 116.167-58 154.5s-95.667 57.5-171 57.5c-66 0-121.333-16.667-166-50s-67-73.666-67-120.999h-186c0 54 19.167 106.167 57.5 156.5s90.333 90.166 156 119.499 137.834 44 216.501 44c124.667 0 222.334-31.167 293.001-93.5S961.333 860.333 964 751V253c0-99.333 12.667-178.333 38-237V0H808zM500.998 140.999c58 0 112.999 15 164.999 45s89.667 69 113 117v222h-145c-226.667 0-340-66.333-340-199 0-58 19.333-103.333 58-136s88.334-49 149.001-49zM883.997 1262v-10h-153l-150 170-149-170h-153v12l246 272h112z"/><glyph glyph-name="atilde" unicode="ã" horiz-adv-x="1114" d="M808 0c-10.667 21.333-19.336 59.332-26.003 113.999-86-89.333-188.667-134-308-134-106.667 0-194.167 30.167-262.5 90.5s-102.5 136.833-102.5 229.5c0 112.667 42.833 200.167 128.5 262.5s206.167 93.5 361.5 93.5h180v85c0 64.667-19.333 116.167-58 154.5s-95.667 57.5-171 57.5c-66 0-121.333-16.667-166-50s-67-73.666-67-120.999h-186c0 54 19.167 106.167 57.5 156.5s90.333 90.166 156 119.499 137.834 44 216.501 44c124.667 0 222.334-31.167 293.001-93.5S961.333 860.333 964 751V253c0-99.333 12.667-178.333 38-237V0H808zM500.998 140.999c58 0 112.999 15 164.999 45s89.667 69 113 117v222h-145c-226.667 0-340-66.333-340-199 0-58 19.333-103.333 58-136s88.334-49 149.001-49zM935.997 1504c0-72-20.502-130.334-61.502-175.001s-92.167-67-153.5-67c-27.333 0-51 3.333-71 10s-46.167 20.334-78.5 41.001-55.666 33.167-69.999 37.5-30.833 6.5-49.5 6.5c-27.333 0-50.666-10.5-69.999-31.5s-29-47.833-29-80.5l-124 7c0 71.333 20.167 130.333 60.5 177s91.5 70 153.5 70c23.333 0 44.333-3.333 63-10s44-19.667 76-39 56.5-32 73.5-38 35.833-9 56.5-9c28.667 0 52.5 11.333 71.5 34s28.5 49 28.5 79z"/><glyph glyph-name="adieresis" unicode="ä" horiz-adv-x="1114" d="M808 0c-10.667 21.333-19.336 59.332-26.003 113.999-86-89.333-188.667-134-308-134-106.667 0-194.167 30.167-262.5 90.5s-102.5 136.833-102.5 229.5c0 112.667 42.833 200.167 128.5 262.5s206.167 93.5 361.5 93.5h180v85c0 64.667-19.333 116.167-58 154.5s-95.667 57.5-171 57.5c-66 0-121.333-16.667-166-50s-67-73.666-67-120.999h-186c0 54 19.167 106.167 57.5 156.5s90.333 90.166 156 119.499 137.834 44 216.501 44c124.667 0 222.334-31.167 293.001-93.5S961.333 860.333 964 751V253c0-99.333 12.667-178.333 38-237V0H808zM500.998 140.999c58 0 112.999 15 164.999 45s89.667 69 113 117v222h-145c-226.667 0-340-66.333-340-199 0-58 19.333-103.333 58-136s88.334-49 149.001-49zM258.997 1371c0 30 9.167 55.167 27.5 75.5s45.5 30.5 81.5 30.5 63.333-10.167 82-30.5 28-45.5 28-75.5-9.333-55-28-75-46-30-82-30-63.167 10-81.5 30-27.5 45-27.5 75zm430-2c0 30 9.167 55.333 27.5 76s45.5 31 81.5 31 63.333-10.333 82-31 28-46 28-76-9.333-55-28-75-46-30-82-30-63.167 10-81.5 30-27.5 45-27.5 75z"/><glyph glyph-name="aring" unicode="å" horiz-adv-x="1114" d="M808 0c-10.667 21.333-19.336 59.332-26.003 113.999-86-89.333-188.667-134-308-134-106.667 0-194.167 30.167-262.5 90.5s-102.5 136.833-102.5 229.5c0 112.667 42.833 200.167 128.5 262.5s206.167 93.5 361.5 93.5h180v85c0 64.667-19.333 116.167-58 154.5s-95.667 57.5-171 57.5c-66 0-121.333-16.667-166-50s-67-73.666-67-120.999h-186c0 54 19.167 106.167 57.5 156.5s90.333 90.166 156 119.499 137.834 44 216.501 44c124.667 0 222.334-31.167 293.001-93.5S961.333 860.333 964 751V253c0-99.333 12.667-178.333 38-237V0H808zM500.998 140.999c58 0 112.999 15 164.999 45s89.667 69 113 117v222h-145c-226.667 0-340-66.333-340-199 0-58 19.333-103.333 58-136s88.334-49 149.001-49zM795.997 1419c0-58-20.667-106.499-62-145.499s-92.333-58.5-153-58.5c-61.333 0-112.5 19.667-153.5 59s-61.5 87.666-61.5 144.999 20.5 106.333 61.5 147 92.167 61 153.5 61 112.5-20.333 153.5-61 61.5-89.667 61.5-147zm-331 0c0-31.333 11.167-58.333 33.5-81s49.833-34 82.5-34c32 0 59.333 11 82 33s34 49.333 34 82-11.167 60.5-33.5 83.5-49.833 34.5-82.5 34.5c-33.333 0-61-11.667-83-35s-33-51-33-83z"/><glyph glyph-name="ae" unicode="æ" horiz-adv-x="1729" d="M1262-20c-174 0-306.337 59.999-397.004 179.999C821.663 102.666 762.33 58.333 686.997 27s-160-47-254-47c-111.333 0-198.333 28.833-261 86.5s-94 136.834-94 237.501c0 104.667 37.833 186 113.5 244s187.167 87 334.5 87h223v85c0 71.333-18.333 127.5-55 168.5s-89.667 61.5-159 61.5c-70 0-128.333-18.333-175-55s-70-82-70-136l-184 19c0 95.333 40.333 173.166 121 233.499s183.334 90.5 308.001 90.5c76.667 0 144.334-13.833 203.001-41.5s104.667-69.167 138-124.5c42 52.667 92 93.5 150 122.5s122 43.5 192 43.5c140 0 248.667-42.833 326-128.5s116-206.167 116-361.5V497h-728c4.667-117.333 36-207.833 94-271.5s136.667-95.5 236-95.5c98.667 0 188.334 25.333 269.001 76l47 31 64-136c-105.333-80.667-232-121-380-121zM468.996 129.999c48 0 98.333 12.333 151 37s95.667 55 129 91v237h-228c-78-1.333-140.333-20.333-187-57s-70-82.667-70-138c0-51.333 17.667-92.5 53-123.5s86-46.5 152-46.5zm749.004 820c-76.667 0-139.833-28.5-189.5-85.5s-80.167-131.833-91.5-224.5h538v31c0 88-22.333 156.5-67 205.5s-108 73.5-190 73.5z"/><glyph glyph-name="ccedilla" unicode="ç" horiz-adv-x="1072" d="M574 131c66 0 123.67 20 173.003 60s76.666 90 81.999 150h175c-3.333-62-24.666-121-63.999-177S848.17 63.333 782.503 30s-135.167-50-208.5-50c-147.333 0-264.5 49.167-351.5 147.5S92.003 360.333 92.003 531v31c0 105.333 19.333 199 58 281s94.167 145.667 166.5 191 157.833 68 256.5 68c121.333 0 222.166-36.333 302.499-109s123.166-167 128.499-283h-175c-5.333 70-31.833 127.5-79.5 172.5s-106.5 67.5-176.5 67.5c-94 0-166.833-33.833-218.5-101.5s-77.5-165.5-77.5-293.5v-35c0-124.667 25.667-220.667 77-288S478.667 131 574 131zM604.003-9l-12.002-51.998c102-18 153-75.667 153-173 0-64.667-26.667-115.834-80-153.501s-127.666-56.5-222.999-56.5l-7 107c52.667 0 93.5 8.667 122.5 26s43.5 41.666 43.5 72.999c0 29.333-10.667 51-32 65s-64.666 24-129.999 30l32 134h133z"/><glyph glyph-name="egrave" unicode="è" horiz-adv-x="1085" d="M589-20c-146.667 0-266 48.17-358 144.504S93 349.67 93 511.003v34c0 107.333 20.5 203.166 61.5 287.499s98.333 150.333 172 198 153.5 71.5 239.5 71.5c140.667 0 250-46.333 328-139s117-225.334 117-398.001v-77H278c2.667-106.667 33.834-192.834 93.501-258.501s135.5-98.5 227.5-98.5c65.333 0 120.666 13.333 165.999 40s85 62 119 106l113-88C906.333 49.667 770.333-20 589-20zm-23 970.004c-74.667 0-137.335-27.167-188.002-81.5s-82-130.5-94-228.5h542v14c-5.333 94-30.666 166.833-75.999 218.5s-106.666 77.5-183.999 77.5zM670.999 1242h-159l-258 294h223z"/><glyph glyph-name="eacute" unicode="é" horiz-adv-x="1085" d="M589-20c-146.667 0-266 48.17-358 144.504S93 349.67 93 511.003v34c0 107.333 20.5 203.166 61.5 287.499s98.333 150.333 172 198 153.5 71.5 239.5 71.5c140.667 0 250-46.333 328-139s117-225.334 117-398.001v-77H278c2.667-106.667 33.834-192.834 93.501-258.501s135.5-98.5 227.5-98.5c65.333 0 120.666 13.333 165.999 40s85 62 119 106l113-88C906.333 49.667 770.333-20 589-20zm-23 970.004c-74.667 0-137.335-27.167-188.002-81.5s-82-130.5-94-228.5h542v14c-5.333 94-30.666 166.833-75.999 218.5s-106.666 77.5-183.999 77.5zM655.999 1536h224l-268-294h-149z"/><glyph glyph-name="ecircumflex" unicode="ê" horiz-adv-x="1085" d="M589-20c-146.667 0-266 48.17-358 144.504S93 349.67 93 511.003v34c0 107.333 20.5 203.166 61.5 287.499s98.333 150.333 172 198 153.5 71.5 239.5 71.5c140.667 0 250-46.333 328-139s117-225.334 117-398.001v-77H278c2.667-106.667 33.834-192.834 93.501-258.501s135.5-98.5 227.5-98.5c65.333 0 120.666 13.333 165.999 40s85 62 119 106l113-88C906.333 49.667 770.333-20 589-20zm-23 970.004c-74.667 0-137.335-27.167-188.002-81.5s-82-130.5-94-228.5h542v14c-5.333 94-30.666 166.833-75.999 218.5s-106.666 77.5-183.999 77.5zM867.999 1262v-10h-153l-150 170-149-170h-153v12l246 272h112z"/><glyph glyph-name="edieresis" unicode="ë" horiz-adv-x="1085" d="M589-20c-146.667 0-266 48.17-358 144.504S93 349.67 93 511.003v34c0 107.333 20.5 203.166 61.5 287.499s98.333 150.333 172 198 153.5 71.5 239.5 71.5c140.667 0 250-46.333 328-139s117-225.334 117-398.001v-77H278c2.667-106.667 33.834-192.834 93.501-258.501s135.5-98.5 227.5-98.5c65.333 0 120.666 13.333 165.999 40s85 62 119 106l113-88C906.333 49.667 770.333-20 589-20zm-23 970.004c-74.667 0-137.335-27.167-188.002-81.5s-82-130.5-94-228.5h542v14c-5.333 94-30.666 166.833-75.999 218.5s-106.666 77.5-183.999 77.5zM242.999 1371c0 30 9.167 55.167 27.5 75.5s45.5 30.5 81.5 30.5 63.333-10.167 82-30.5 28-45.5 28-75.5-9.333-55-28-75-46-30-82-30-63.167 10-81.5 30-27.5 45-27.5 75zm430-2c0 30 9.167 55.333 27.5 76s45.5 31 81.5 31 63.333-10.333 82-31 28-46 28-76-9.333-55-28-75-46-30-82-30-63.167 10-81.5 30-27.5 45-27.5 75z"/><glyph glyph-name="igrave" unicode="ì" horiz-adv-x="506" d="M341 0H155v1082h186V0zm18 1241H200l-258 294h223z"/><glyph glyph-name="iacute" unicode="í" horiz-adv-x="506" d="M341 0H155v1082h186V0zm2 1535h224l-268-294H150z"/><glyph glyph-name="icircumflex" unicode="î" horiz-adv-x="506" d="M341 0H155v1082h186V0zm215 1261v-10H403l-150 170-149-170H-49v12l246 272h112z"/><glyph glyph-name="idieresis" unicode="ï" horiz-adv-x="506" d="M341 0H155v1082h186V0zM-69 1370c0 30 9.167 55.167 27.5 75.5S4 1476 40 1476s63.333-10.167 82-30.5 28-45.5 28-75.5-9.333-55-28-75-46-30-82-30-63.167 10-81.5 30-27.5 45-27.5 75zm430-2c0 30 9.167 55.333 27.5 76s45.5 31 81.5 31 63.333-10.333 82-31 28-46 28-76-9.333-55-28-75-46-30-82-30-63.167 10-81.5 30-27.5 45-27.5 75z"/><glyph glyph-name="eth" unicode="ð" horiz-adv-x="1200" d="M820 1301c166-176 248.998-400.335 248.998-673.002v-93c0-105.333-19.5-200.166-58.5-284.499s-94.5-150.5-166.5-198.5-152.667-72-242-72c-90 0-171.667 21.5-245 64.5s-130.166 101.833-170.499 176.5-60.5 156.667-60.5 246c0 98 18.667 185.833 56 263.5s90.5 138.167 159.5 181.5 146.5 65 232.5 65c108.667 0 203.334-38 284.001-114-32 130-95 242-189 336l-218-148-73 99 192 131c-88 60.667-193 107.334-315 140.001l57 159c159.333-36 297.333-100.333 414-193l189 129 73-100zm63.998-666.002l-2.001 55.999c-22 40.667-56.167 73.167-102.5 97.5s-100.166 36.5-161.499 36.5c-96.667 0-172-31.833-226-95.5s-81-151.167-81-262.5c0-93.333 27.833-172.666 83.5-237.999s126.167-98 211.5-98c83.333 0 150.5 37.667 201.5 113s76.5 174.333 76.5 297v94z"/><glyph glyph-name="ntilde" unicode="ñ" horiz-adv-x="1130" d="M315 1082l5.999-136c82.667 104 190.667 156 324 156 228.667 0 344-129 346-387V0h-185v716c-.667 78-18.5 135.667-53.5 173s-89.5 56-163.5 56c-60 0-112.667-16-158-48S350.333 823 325 771V0H140v1082h175zm611.999 422c0-72-20.502-130.334-61.502-175.001s-92.167-67-153.5-67c-27.333 0-51 3.333-71 10s-46.167 20.334-78.5 41.001-55.666 33.167-69.999 37.5-30.833 6.5-49.5 6.5c-27.333 0-50.666-10.5-69.999-31.5s-29-47.833-29-80.5l-124 7c0 71.333 20.167 130.333 60.5 177s91.5 70 153.5 70c23.333 0 44.333-3.333 63-10s44-19.667 76-39 56.5-32 73.5-38 35.833-9 56.5-9c28.667 0 52.5 11.333 71.5 34s28.5 49 28.5 79z"/><glyph glyph-name="ograve" unicode="ò" horiz-adv-x="1168" d="M91 551c0 106 20.834 201.334 62.501 286.001s99.667 150 174 196 159.166 69 254.499 69c147.333 0 266.5-51 357.5-153s136.5-237.667 136.5-407v-13c0-105.333-20.167-199.833-60.5-283.5S917.5 96.667 842.5 50 681.333-20 584-20c-146.667 0-265.5 51-356.5 153S91 370 91 538v13zm186.001-21.999c0-120 27.832-216.335 83.499-289.002s130.167-109 223.5-109c94 0 168.667 36.833 224 110.5S891 418.333 891 551c0 118.667-28.167 214.834-84.5 288.501s-131.166 110.5-224.499 110.5c-91.333 0-165-36.333-221-109s-84-176.667-84-312zM681 1242H522l-258 294h223z"/><glyph glyph-name="oacute" unicode="ó" horiz-adv-x="1168" d="M91 551c0 106 20.834 201.334 62.501 286.001s99.667 150 174 196 159.166 69 254.499 69c147.333 0 266.5-51 357.5-153s136.5-237.667 136.5-407v-13c0-105.333-20.167-199.833-60.5-283.5S917.5 96.667 842.5 50 681.333-20 584-20c-146.667 0-265.5 51-356.5 153S91 370 91 538v13zm186.001-21.999c0-120 27.832-216.335 83.499-289.002s130.167-109 223.5-109c94 0 168.667 36.833 224 110.5S891 418.333 891 551c0 118.667-28.167 214.834-84.5 288.501s-131.166 110.5-224.499 110.5c-91.333 0-165-36.333-221-109s-84-176.667-84-312zM666 1536h224l-268-294H473z"/><glyph glyph-name="ocircumflex" unicode="ô" horiz-adv-x="1168" d="M91 551c0 106 20.834 201.334 62.501 286.001s99.667 150 174 196 159.166 69 254.499 69c147.333 0 266.5-51 357.5-153s136.5-237.667 136.5-407v-13c0-105.333-20.167-199.833-60.5-283.5S917.5 96.667 842.5 50 681.333-20 584-20c-146.667 0-265.5 51-356.5 153S91 370 91 538v13zm186.001-21.999c0-120 27.832-216.335 83.499-289.002s130.167-109 223.5-109c94 0 168.667 36.833 224 110.5S891 418.333 891 551c0 118.667-28.167 214.834-84.5 288.501s-131.166 110.5-224.499 110.5c-91.333 0-165-36.333-221-109s-84-176.667-84-312zM878 1262v-10H725l-150 170-149-170H273v12l246 272h112z"/><glyph glyph-name="otilde" unicode="õ" horiz-adv-x="1168" d="M91 551c0 106 20.834 201.334 62.501 286.001s99.667 150 174 196 159.166 69 254.499 69c147.333 0 266.5-51 357.5-153s136.5-237.667 136.5-407v-13c0-105.333-20.167-199.833-60.5-283.5S917.5 96.667 842.5 50 681.333-20 584-20c-146.667 0-265.5 51-356.5 153S91 370 91 538v13zm186.001-21.999c0-120 27.832-216.335 83.499-289.002s130.167-109 223.5-109c94 0 168.667 36.833 224 110.5S891 418.333 891 551c0 118.667-28.167 214.834-84.5 288.501s-131.166 110.5-224.499 110.5c-91.333 0-165-36.333-221-109s-84-176.667-84-312zM930 1504c0-72-20.502-130.334-61.502-175.001s-92.167-67-153.5-67c-27.333 0-51 3.333-71 10s-46.167 20.334-78.5 41.001-55.666 33.167-69.999 37.5-30.833 6.5-49.5 6.5c-27.333 0-50.666-10.5-69.999-31.5s-29-47.833-29-80.5l-124 7c0 71.333 20.167 130.333 60.5 177s91.5 70 153.5 70c23.333 0 44.333-3.333 63-10s44-19.667 76-39 56.5-32 73.5-38 35.833-9 56.5-9c28.667 0 52.5 11.333 71.5 34s28.5 49 28.5 79z"/><glyph glyph-name="odieresis" unicode="ö" horiz-adv-x="1168" d="M91 551c0 106 20.834 201.334 62.501 286.001s99.667 150 174 196 159.166 69 254.499 69c147.333 0 266.5-51 357.5-153s136.5-237.667 136.5-407v-13c0-105.333-20.167-199.833-60.5-283.5S917.5 96.667 842.5 50 681.333-20 584-20c-146.667 0-265.5 51-356.5 153S91 370 91 538v13zm186.001-21.999c0-120 27.832-216.335 83.499-289.002s130.167-109 223.5-109c94 0 168.667 36.833 224 110.5S891 418.333 891 551c0 118.667-28.167 214.834-84.5 288.501s-131.166 110.5-224.499 110.5c-91.333 0-165-36.333-221-109s-84-176.667-84-312zM253 1371c0 30 9.167 55.167 27.5 75.5S326 1477 362 1477s63.333-10.167 82-30.5 28-45.5 28-75.5-9.333-55-28-75-46-30-82-30-63.167 10-81.5 30-27.5 45-27.5 75zm430-2c0 30 9.167 55.333 27.5 76s45.5 31 81.5 31 63.333-10.333 82-31 28-46 28-76-9.333-55-28-75-46-30-82-30-63.167 10-81.5 30-27.5 45-27.5 75z"/><glyph glyph-name="divide" unicode="÷" horiz-adv-x="1169" d="M1069 600H71v184h998V600zm-608 498c0 32 9.5 58.667 28.5 80s47.5 32 85.5 32 66.833-10.667 86.5-32 29.5-48 29.5-80c0-31.333-9.833-57.333-29.5-78S613 989 575 989s-66.5 10.333-85.5 31-28.5 46.667-28.5 78zm0-817c0 32 9.5 58.667 28.5 80s47.5 32 85.5 32 66.833-10.667 86.5-32 29.5-48 29.5-80c0-30.667-9.833-56.5-29.5-77.5S613 172 575 172s-66.5 10.5-85.5 31.5S461 250.333 461 281z"/><glyph glyph-name="oslash" unicode="ø" horiz-adv-x="1160" d="M91 551c0 106 20.499 201.169 61.499 285.502s99 149.666 174 195.999 160.167 69.5 255.5 69.5c73.333 0 141.333-14 204-42l73 148h124l-102-205c130-102.667 195-260.667 195-474 0-105.333-20.667-200.333-62-285s-99.333-149.834-174-195.501-160-68.5-256-68.5C514.666-20 451.333-8.333 394 15l-74-149H196L296 69C159.333 168.333 91 329 91 551zm184.999-21.998c0-129.333 32.333-231 97-305l343 694c-41.333 21.333-86 32-134 32-92 0-166-36.333-222-109s-84-176.667-84-312zm614 22c0 121.333-29.001 219-87.001 293l-340-688c36.667-16.667 77-25 121-25 92.667 0 166.834 36.5 222.501 109.5s83.5 171.167 83.5 294.5v16z"/><glyph glyph-name="ugrave" unicode="ù" horiz-adv-x="1129" d="M808 107C736 22.333 630.332-20 490.999-20 375.666-20 287.833 13.5 227.5 80.5S136.667 246.667 136 378v704h185V383c0-164 66.667-246 200-246 141.333 0 235.333 52.667 282 158v787h185V0H812zM672.999 1242h-159l-258 294h223z"/><glyph glyph-name="uacute" unicode="ú" horiz-adv-x="1129" d="M808 107C736 22.333 630.332-20 490.999-20 375.666-20 287.833 13.5 227.5 80.5S136.667 246.667 136 378v704h185V383c0-164 66.667-246 200-246 141.333 0 235.333 52.667 282 158v787h185V0H812zM657.999 1536h224l-268-294h-149z"/><glyph glyph-name="ucircumflex" unicode="û" horiz-adv-x="1129" d="M808 107C736 22.333 630.332-20 490.999-20 375.666-20 287.833 13.5 227.5 80.5S136.667 246.667 136 378v704h185V383c0-164 66.667-246 200-246 141.333 0 235.333 52.667 282 158v787h185V0H812zm61.999 1155v-10h-153l-150 170-149-170h-153v12l246 272h112z"/><glyph glyph-name="udieresis" unicode="ü" horiz-adv-x="1129" d="M808 107C736 22.333 630.332-20 490.999-20 375.666-20 287.833 13.5 227.5 80.5S136.667 246.667 136 378v704h185V383c0-164 66.667-246 200-246 141.333 0 235.333 52.667 282 158v787h185V0H812zM244.999 1371c0 30 9.167 55.167 27.5 75.5s45.5 30.5 81.5 30.5 63.333-10.167 82-30.5 28-45.5 28-75.5-9.333-55-28-75-46-30-82-30-63.167 10-81.5 30-27.5 45-27.5 75zm430-2c0 30 9.167 55.333 27.5 76s45.5 31 81.5 31 63.333-10.333 82-31 28-46 28-76-9.333-55-28-75-46-30-82-30-63.167 10-81.5 30-27.5 45-27.5 75z"/><glyph glyph-name="yacute" unicode="ý" horiz-adv-x="969" d="M494 271l252 811.001h198l-435-1249c-67.333-180-174.333-270-321-270l-35 3-69 13v150l50-4c62.667 0 111.5 12.667 146.5 38S344.333-165.333 367-98l41 110L22 1082h202zm105 1265h224l-268-294H406z"/><glyph glyph-name="thorn" unicode="þ" horiz-adv-x="1180" d="M1063 529c0-164.667-37.667-297.333-113-398S772.667-20 644-20c-131.333 0-234.666 41.667-309.999 125v-521h-185v1952h185V970c75.333 88 177.666 132 306.999 132 130 0 232.833-49 308.5-147S1063 720.667 1063 546v-17zm-185 21.001c0 122-26 218.333-78 289s-123.333 106-214 106c-112 0-196-49.667-252-149v-517c55.333-98.667 140-148 254-148 88.667 0 159.167 35.167 211.5 105.5s78.5 174.833 78.5 313.5z"/><glyph glyph-name="ydieresis" unicode="ÿ" horiz-adv-x="969" d="M494 271l252 811.001h198l-435-1249c-67.333-180-174.333-270-321-270l-35 3-69 13v150l50-4c62.667 0 111.5 12.667 146.5 38S344.333-165.333 367-98l41 110L22 1082h202zM186 1371c0 30 9.167 55.167 27.5 75.5S259 1477 295 1477s63.333-10.167 82-30.5 28-45.5 28-75.5-9.333-55-28-75-46-30-82-30-63.167 10-81.5 30-27.5 45-27.5 75zm430-2c0 30 9.167 55.333 27.5 76s45.5 31 81.5 31 63.333-10.333 82-31 28-46 28-76-9.333-55-28-75-46-30-82-30-63.167 10-81.5 30-27.5 45-27.5 75z"/><glyph glyph-name="Amacron" unicode="Ā" d="M973 380H363L226 0H28l556 1456h168L1309 0h-197zM421 538h495l-248 681zm592 1082H341v143h672v-143z"/><glyph glyph-name="amacron" unicode="ā" horiz-adv-x="1114" d="M808 0c-10.667 21.333-19.336 59.332-26.003 113.999-86-89.333-188.667-134-308-134-106.667 0-194.167 30.167-262.5 90.5s-102.5 136.833-102.5 229.5c0 112.667 42.833 200.167 128.5 262.5s206.167 93.5 361.5 93.5h180v85c0 64.667-19.333 116.167-58 154.5s-95.667 57.5-171 57.5c-66 0-121.333-16.667-166-50s-67-73.666-67-120.999h-186c0 54 19.167 106.167 57.5 156.5s90.333 90.166 156 119.499 137.834 44 216.501 44c124.667 0 222.334-31.167 293.001-93.5S961.333 860.333 964 751V253c0-99.333 12.667-178.333 38-237V0H808zM500.998 140.999c58 0 112.999 15 164.999 45s89.667 69 113 117v222h-145c-226.667 0-340-66.333-340-199 0-58 19.333-103.333 58-136s88.334-49 149.001-49zM921.997 1310h-672v143h672v-143z"/><glyph glyph-name="Abreve" unicode="Ă" d="M973 380H363L226 0H28l556 1456h168L1309 0h-197zM421 538h495l-248 681zm551 1268c0-80.667-27.501-145.5-82.501-194.5s-127.167-73.5-216.5-73.5-161.666 24.667-216.999 74-83 114-83 194h151c0-46.667 12.667-83.167 38-109.5s62.333-39.5 111-39.5c46.667 0 83.167 13 109.5 39s39.5 62.667 39.5 110h150z"/><glyph glyph-name="abreve" unicode="ă" horiz-adv-x="1114" d="M808 0c-10.667 21.333-19.336 59.332-26.003 113.999-86-89.333-188.667-134-308-134-106.667 0-194.167 30.167-262.5 90.5s-102.5 136.833-102.5 229.5c0 112.667 42.833 200.167 128.5 262.5s206.167 93.5 361.5 93.5h180v85c0 64.667-19.333 116.167-58 154.5s-95.667 57.5-171 57.5c-66 0-121.333-16.667-166-50s-67-73.666-67-120.999h-186c0 54 19.167 106.167 57.5 156.5s90.333 90.166 156 119.499 137.834 44 216.501 44c124.667 0 222.334-31.167 293.001-93.5S961.333 860.333 964 751V253c0-99.333 12.667-178.333 38-237V0H808zM500.998 140.999c58 0 112.999 15 164.999 45s89.667 69 113 117v222h-145c-226.667 0-340-66.333-340-199 0-58 19.333-103.333 58-136s88.334-49 149.001-49zM880.997 1496c0-80.667-27.501-145.5-82.501-194.5s-127.167-73.5-216.5-73.5-161.666 24.667-216.999 74-83 114-83 194h151c0-46.667 12.667-83.167 38-109.5s62.333-39.5 111-39.5c46.667 0 83.167 13 109.5 39s39.5 62.667 39.5 110h150z"/><glyph glyph-name="Aogonek" unicode="Ą" d="M752 1456L1308.999 0h-38l-58-45c-75.333-60.667-113-119.667-113-177 0-48 26-72 78-72 32 0 65.333 8.667 100 26l13-121c-46.667-29.333-100-44-160-44-59.333 0-106.166 17.333-140.499 52S939-300.333 939-243c0 96 56.333 180 169 252L973 380H363L226 0H28l556 1456h168zM420.999 538h495l-248 681z"/><glyph glyph-name="aogonek" unicode="ą" horiz-adv-x="1114" d="M804 7c-10 25.333-17.337 60.999-22.004 106.999-86-89.333-188.667-134-308-134-106.667 0-194.167 30.167-262.5 90.5s-102.5 136.833-102.5 229.5c0 112.667 42.833 200.167 128.5 262.5s206.167 93.5 361.5 93.5h180v85c0 64.667-19.333 116.167-58 154.5s-95.667 57.5-171 57.5c-66 0-121.333-16.667-166-50s-67-73.666-67-120.999h-186c0 54 19.167 106.167 57.5 156.5s90.333 90.166 156 119.499 137.834 44 216.501 44c124.667 0 222.334-31.167 293.001-93.5S961.332 860.333 964 751V253c0-99.333 12.667-178.333 38-237V0h-33l-58-45c-75.333-60.667-113-119.667-113-177 0-48 26-72 78-72 32 0 65.333 8.667 100 26l13-121c-46.667-29.333-100-44-160-44-59.333 0-106.166 17.333-140.499 52S637-300.333 637-243c0 96 55.667 179.333 167 250zM500.996 140.999c58 0 112.999 15 164.999 45s89.667 69 113 117v222h-145c-226.667 0-340-66.333-340-199 0-58 19.333-103.333 58-136s88.334-49 149.001-49z"/><glyph glyph-name="Cacute" unicode="Ć" horiz-adv-x="1333" d="M1240 462c-18-154-74.83-272.833-170.497-356.5S846.669-20 688.002-20c-172 0-309.833 61.667-413.5 185s-155.5 288.333-155.5 495v140c0 135.333 24.167 254.333 72.5 357s116.833 181.5 205.5 236.5 191.334 82.5 308.001 82.5c154.667 0 278.667-43.167 372-129.5s147.666-205.833 162.999-358.5h-193c-16.667 116-52.834 200-108.501 252s-133.5 78-233.5 78c-122.667 0-218.834-45.333-288.501-136S312 962.333 312 795V654c0-158 33-283.667 99-377s158.333-140 277-140c106.667 0 188.5 24.167 245.5 72.5S1028.333 342 1047 462h193zM770.003 1879h224l-268-294h-149z"/><glyph glyph-name="cacute" unicode="ć" horiz-adv-x="1072" d="M574 131c66 0 123.67 20 173.003 60s76.666 90 81.999 150h175c-3.333-62-24.666-121-63.999-177S848.17 63.333 782.503 30s-135.167-50-208.5-50c-147.333 0-264.5 49.167-351.5 147.5S92.003 360.333 92.003 531v31c0 105.333 19.333 199 58 281s94.167 145.667 166.5 191 157.833 68 256.5 68c121.333 0 222.166-36.333 302.499-109s123.166-167 128.499-283h-175c-5.333 70-31.833 127.5-79.5 172.5s-106.5 67.5-176.5 67.5c-94 0-166.833-33.833-218.5-101.5s-77.5-165.5-77.5-293.5v-35c0-124.667 25.667-220.667 77-288S478.667 131 574 131zm49.003 1405h224l-268-294h-149z"/><glyph glyph-name="Ccircumflex" unicode="Ĉ" horiz-adv-x="1333" d="M1240 462c-18-154-74.83-272.833-170.497-356.5S846.669-20 688.002-20c-172 0-309.833 61.667-413.5 185s-155.5 288.333-155.5 495v140c0 135.333 24.167 254.333 72.5 357s116.833 181.5 205.5 236.5 191.334 82.5 308.001 82.5c154.667 0 278.667-43.167 372-129.5s147.666-205.833 162.999-358.5h-193c-16.667 116-52.834 200-108.501 252s-133.5 78-233.5 78c-122.667 0-218.834-45.333-288.501-136S312 962.333 312 795V654c0-158 33-283.667 99-377s158.333-140 277-140c106.667 0 188.5 24.167 245.5 72.5S1028.333 342 1047 462h193zM982.003 1605v-10h-153l-150 170-149-170h-153v12l246 272h112z"/><glyph glyph-name="ccircumflex" unicode="ĉ" horiz-adv-x="1072" d="M574 131c66 0 123.67 20 173.003 60s76.666 90 81.999 150h175c-3.333-62-24.666-121-63.999-177S848.17 63.333 782.503 30s-135.167-50-208.5-50c-147.333 0-264.5 49.167-351.5 147.5S92.003 360.333 92.003 531v31c0 105.333 19.333 199 58 281s94.167 145.667 166.5 191 157.833 68 256.5 68c121.333 0 222.166-36.333 302.499-109s123.166-167 128.499-283h-175c-5.333 70-31.833 127.5-79.5 172.5s-106.5 67.5-176.5 67.5c-94 0-166.833-33.833-218.5-101.5s-77.5-165.5-77.5-293.5v-35c0-124.667 25.667-220.667 77-288S478.667 131 574 131zm261.003 1131v-10h-153l-150 170-149-170h-153v12l246 272h112z"/><glyph glyph-name="Cdotaccent" unicode="Ċ" horiz-adv-x="1333" d="M1240 462c-18-154-74.83-272.833-170.497-356.5S846.669-20 688.002-20c-172 0-309.833 61.667-413.5 185s-155.5 288.333-155.5 495v140c0 135.333 24.167 254.333 72.5 357s116.833 181.5 205.5 236.5 191.334 82.5 308.001 82.5c154.667 0 278.667-43.167 372-129.5s147.666-205.833 162.999-358.5h-193c-16.667 116-52.834 200-108.501 252s-133.5 78-233.5 78c-122.667 0-218.834-45.333-288.501-136S312 962.333 312 795V654c0-158 33-283.667 99-377s158.333-140 277-140c106.667 0 188.5 24.167 245.5 72.5S1028.333 342 1047 462h193zM570.003 1710c0 30 9.167 55.333 27.5 76s45.5 31 81.5 31 63.333-10.333 82-31 28-46 28-76-9.333-55-28-75-46-30-82-30-63.167 10-81.5 30-27.5 45-27.5 75z"/><glyph glyph-name="cdotaccent" unicode="ċ" horiz-adv-x="1072" d="M574 131c66 0 123.67 20 173.003 60s76.666 90 81.999 150h175c-3.333-62-24.666-121-63.999-177S848.17 63.333 782.503 30s-135.167-50-208.5-50c-147.333 0-264.5 49.167-351.5 147.5S92.003 360.333 92.003 531v31c0 105.333 19.333 199 58 281s94.167 145.667 166.5 191 157.833 68 256.5 68c121.333 0 222.166-36.333 302.499-109s123.166-167 128.499-283h-175c-5.333 70-31.833 127.5-79.5 172.5s-106.5 67.5-176.5 67.5c-94 0-166.833-33.833-218.5-101.5s-77.5-165.5-77.5-293.5v-35c0-124.667 25.667-220.667 77-288S478.667 131 574 131zM423.003 1367c0 30 9.167 55.333 27.5 76s45.5 31 81.5 31 63.333-10.333 82-31 28-46 28-76-9.333-55-28-75-46-30-82-30-63.167 10-81.5 30-27.5 45-27.5 75z"/><glyph glyph-name="Ccaron" unicode="Č" horiz-adv-x="1333" d="M1240 462c-18-154-74.83-272.833-170.497-356.5S846.669-20 688.002-20c-172 0-309.833 61.667-413.5 185s-155.5 288.333-155.5 495v140c0 135.333 24.167 254.333 72.5 357s116.833 181.5 205.5 236.5 191.334 82.5 308.001 82.5c154.667 0 278.667-43.167 372-129.5s147.666-205.833 162.999-358.5h-193c-16.667 116-52.834 200-108.501 252s-133.5 78-233.5 78c-122.667 0-218.834-45.333-288.501-136S312 962.333 312 795V654c0-158 33-283.667 99-377s158.333-140 277-140c106.667 0 188.5 24.167 245.5 72.5S1028.333 342 1047 462h193zM678.003 1709l150 170h160v-10l-254-274h-113l-251 274v10h157z"/><glyph glyph-name="ccaron" unicode="č" horiz-adv-x="1072" d="M574 131c66 0 123.67 20 173.003 60s76.666 90 81.999 150h175c-3.333-62-24.666-121-63.999-177S848.17 63.333 782.503 30s-135.167-50-208.5-50c-147.333 0-264.5 49.167-351.5 147.5S92.003 360.333 92.003 531v31c0 105.333 19.333 199 58 281s94.167 145.667 166.5 191 157.833 68 256.5 68c121.333 0 222.166-36.333 302.499-109s123.166-167 128.499-283h-175c-5.333 70-31.833 127.5-79.5 172.5s-106.5 67.5-176.5 67.5c-94 0-166.833-33.833-218.5-101.5s-77.5-165.5-77.5-293.5v-35c0-124.667 25.667-220.667 77-288S478.667 131 574 131zm-42.997 1235l150 170h160v-10l-254-274h-113l-251 274v10h157z"/><glyph glyph-name="Dcaron" unicode="Ď" horiz-adv-x="1343" d="M169 0v1456h411c126.667 0 238.667-28 336-84s172.5-135.667 225.5-239 79.833-222 80.5-356v-93c0-137.333-26.5-257.666-79.5-360.999s-128.667-182.666-227-237.999S702.667 1.336 572 .003H169zm192 1298l.001-1141h202c148 0 263.167 46 345.5 138s123.5 223 123.5 393v85c0 165.333-38.833 293.833-116.5 385.5S727.667 1296.667 585 1298H361zm246.001 390l150 170h160v-10l-254-274h-113l-251 274v10h157z"/><glyph glyph-name="dcaron" unicode="ď" horiz-adv-x="1305" d="M95 550c0 166 39.333 299.5 118 400.5S394.667 1102 522 1102c126.667 0 227-43.333 301-130v564h185V0H838l-9 116C755 25.333 652-20 520-20c-125.333 0-227.5 51.333-306.5 154S95 370.667 95 536v14zm185-21c0-122.667 25.334-218.667 76.001-288s120.667-104 210-104c117.333 0 203 52.667 257 158v497c-55.333 102-140.333 153-255 153-90.667 0-161.334-35-212.001-105s-76-173.667-76-311zm897 609l-105 72c48 72.667 72.667 151.334 74 236.001v92h177v-76c0-60.667-13.167-120.834-39.5-180.501S1221.667 1174 1177 1138z"/><glyph glyph-name="Dcroat" unicode="Đ" horiz-adv-x="1373" d="M199 0v665.997H7v151h192v639h411c126.667 0 238.667-28 336-84s172.5-135.667 225.5-239 79.833-222 80.5-356v-93c0-137.333-26.5-257.666-79.5-360.999s-128.667-182.666-227-237.999S732.667 1.333 602 0H199zm444 665.997H391.001v-509h201c148 0 263.167 45.667 345.5 137s123.833 220 124.5 386v93c0 165.333-38.833 293.833-116.5 385.5S757.667 1296.664 615 1297.997H391v-481h252v-151z"/><glyph glyph-name="dcroat" unicode="đ" horiz-adv-x="1223" d="M1196 1233h-188V0H838l-9 116C755 25.333 652-20 520-20c-125.333 0-227.5 51.333-306.5 154S95 370.667 95 536v14c0 166 39.333 299.5 118 400.5S394.667 1102 522 1102c126.667 0 227-43.333 301-130v261H559v151h264v152h185v-152h188v-151zM280 529c0-122.667 25.334-218.667 76.001-288s120.667-104 210-104c117.333 0 203 52.667 257 158v497c-55.333 102-140.333 153-255 153-90.667 0-161.334-35-212.001-105s-76-173.667-76-311z"/><glyph glyph-name="Emacron" unicode="Ē" horiz-adv-x="1164" d="M992 673H361V157h733V0H169v1456h915v-158H361V830h631V673zm-32 959H288v143h672v-143z"/><glyph glyph-name="emacron" unicode="ē" horiz-adv-x="1085" d="M589-20c-146.667 0-266 48.17-358 144.504S93 349.67 93 511.003v34c0 107.333 20.5 203.166 61.5 287.499s98.333 150.333 172 198 153.5 71.5 239.5 71.5c140.667 0 250-46.333 328-139s117-225.334 117-398.001v-77H278c2.667-106.667 33.834-192.834 93.501-258.501s135.5-98.5 227.5-98.5c65.333 0 120.666 13.333 165.999 40s85 62 119 106l113-88C906.333 49.667 770.333-20 589-20zm-23 970.004c-74.667 0-137.335-27.167-188.002-81.5s-82-130.5-94-228.5h542v14c-5.333 94-30.666 166.833-75.999 218.5s-106.666 77.5-183.999 77.5zM905.999 1310h-672v143h672v-143z"/><glyph glyph-name="Ebreve" unicode="Ĕ" horiz-adv-x="1164" d="M992 673H361V157h733V0H169v1456h915v-158H361V830h631V673zm-73 1145c0-80.667-27.501-145.5-82.501-194.5s-127.167-73.5-216.5-73.5-161.666 24.667-216.999 74-83 114-83 194h151c0-46.667 12.667-83.167 38-109.5s62.333-39.5 111-39.5c46.667 0 83.167 13 109.5 39s39.5 62.667 39.5 110h150z"/><glyph glyph-name="ebreve" unicode="ĕ" horiz-adv-x="1085" d="M589-20c-146.667 0-266 48.17-358 144.504S93 349.67 93 511.003v34c0 107.333 20.5 203.166 61.5 287.499s98.333 150.333 172 198 153.5 71.5 239.5 71.5c140.667 0 250-46.333 328-139s117-225.334 117-398.001v-77H278c2.667-106.667 33.834-192.834 93.501-258.501s135.5-98.5 227.5-98.5c65.333 0 120.666 13.333 165.999 40s85 62 119 106l113-88C906.333 49.667 770.333-20 589-20zm-23 970.004c-74.667 0-137.335-27.167-188.002-81.5s-82-130.5-94-228.5h542v14c-5.333 94-30.666 166.833-75.999 218.5s-106.666 77.5-183.999 77.5zM864.999 1496c0-80.667-27.501-145.5-82.501-194.5s-127.167-73.5-216.5-73.5-161.666 24.667-216.999 74-83 114-83 194h151c0-46.667 12.667-83.167 38-109.5s62.333-39.5 111-39.5c46.667 0 83.167 13 109.5 39s39.5 62.667 39.5 110h150z"/><glyph glyph-name="Edotaccent" unicode="Ė" horiz-adv-x="1164" d="M992 673H361V157h733V0H169v1456h915v-158H361V830h631V673zM510 1689c0 30 9.167 55.333 27.5 76s45.5 31 81.5 31 63.333-10.333 82-31 28-46 28-76-9.333-55-28-75-46-30-82-30-63.167 10-81.5 30-27.5 45-27.5 75z"/><glyph glyph-name="edotaccent" unicode="ė" horiz-adv-x="1085" d="M589-20c-146.667 0-266 48.17-358 144.504S93 349.67 93 511.003v34c0 107.333 20.5 203.166 61.5 287.499s98.333 150.333 172 198 153.5 71.5 239.5 71.5c140.667 0 250-46.333 328-139s117-225.334 117-398.001v-77H278c2.667-106.667 33.834-192.834 93.501-258.501s135.5-98.5 227.5-98.5c65.333 0 120.666 13.333 165.999 40s85 62 119 106l113-88C906.333 49.667 770.333-20 589-20zm-23 970.004c-74.667 0-137.335-27.167-188.002-81.5s-82-130.5-94-228.5h542v14c-5.333 94-30.666 166.833-75.999 218.5s-106.666 77.5-183.999 77.5zM455.999 1367c0 30 9.167 55.333 27.5 76s45.5 31 81.5 31 63.333-10.333 82-31 28-46 28-76-9.333-55-28-75-46-30-82-30-63.167 10-81.5 30-27.5 45-27.5 75z"/><glyph glyph-name="Eogonek" unicode="Ę" horiz-adv-x="1164" d="M992 673H360.999V157h733V0h-73l-58-45c-75.333-60.667-113-119.667-113-177 0-48 26-72 78-72 32 0 65.333 8.667 100 26l13-121c-46.667-29.333-100-44-160-44-59.333 0-106.166 17.333-140.499 52S689-300.333 689-243c0 92 51.667 173 155 243H169v1456h915v-158H361V830h631V673z"/><glyph glyph-name="eogonek" unicode="ę" horiz-adv-x="1085" d="M997 189C949.667 115.667 887.666 61.004 810.999 25.004h1l-58-45c-75.333-60.667-113-119.667-113-177 0-48 26-72 78-72 32 0 65.333 8.667 100 26l13-121c-46.667-29.333-100-44-160-44-59.333 0-106.166 17.333-140.499 52s-51.5 80.667-51.5 138c0 72 32.667 138 98 198-145.333 2.667-262.5 52.167-351.5 148.5S93 352.67 93 512.003v33c0 107.333 20.5 203.166 61.5 287.499s98.333 150.333 172 198 153.5 71.5 239.5 71.5c140.667 0 250-46.333 328-139s117-225.334 117-398.001v-77H278c2.667-106.667 33.834-192.834 93.501-258.501s135.5-98.5 227.5-98.5c65.333 0 120.666 13.333 165.999 40s85 62 119 106zM565.999 950.004c-74.667 0-137.335-27.167-188.002-81.5s-82-130.5-94-228.5h542v14c-5.333 94-30.666 166.833-75.999 218.5s-106.666 77.5-183.999 77.5z"/><glyph glyph-name="Ecaron" unicode="Ě" horiz-adv-x="1164" d="M992 673H361V157h733V0H169v1456h915v-158H361V830h631V673zM618 1688l150 170h160v-10l-254-274H561l-251 274v10h157z"/><glyph glyph-name="ecaron" unicode="ě" horiz-adv-x="1085" d="M589-20c-146.667 0-266 48.17-358 144.504S93 349.67 93 511.003v34c0 107.333 20.5 203.166 61.5 287.499s98.333 150.333 172 198 153.5 71.5 239.5 71.5c140.667 0 250-46.333 328-139s117-225.334 117-398.001v-77H278c2.667-106.667 33.834-192.834 93.501-258.501s135.5-98.5 227.5-98.5c65.333 0 120.666 13.333 165.999 40s85 62 119 106l113-88C906.333 49.667 770.333-20 589-20zm-23 970.004c-74.667 0-137.335-27.167-188.002-81.5s-82-130.5-94-228.5h542v14c-5.333 94-30.666 166.833-75.999 218.5s-106.666 77.5-183.999 77.5zM563.999 1366l150 170h160v-10l-254-274h-113l-251 274v10h157z"/><glyph glyph-name="Gcircumflex" unicode="Ĝ" horiz-adv-x="1395" d="M1244 191c-49.333-70.667-118.169-123.502-206.502-158.502s-191.166-52.5-308.499-52.5c-118.667 0-224 27.833-316 83.5s-163.167 134.834-213.5 237.501-76.166 221.667-77.499 357v127c0 219.333 51.167 389.333 153.5 510s246.166 181 431.499 181c152 0 274.333-38.833 367-116.5s149.334-187.834 170.001-330.501h-192c-36 192.667-150.667 289-344 289-128.667 0-226.167-45.167-292.5-135.5S315.667 961.332 315 789.999v-119c0-163.333 37.333-293.166 112-389.499S602.667 137 730 137c72 0 135 8 189 24s98.667 43 134 81v327H716v156h528V191zM973.997 1605v-10h-153l-150 170-149-170h-153v12l246 272h112z"/><glyph glyph-name="gcircumflex" unicode="ĝ" horiz-adv-x="1149" d="M96 550c0 168.667 39 302.833 117 402.5S394.333 1102 523 1102c132 0 235-46.667 309-140l9 120h169V26c0-140-41.5-250.333-124.5-331S691-426 551-426c-78 0-154.333 16.667-229 50s-131.667 79-171 137l96 111c79.333-98 176.333-147 291-147 90 0 160.167 25.333 210.5 76S824-77 824 15v93C750 22.667 649-20 521-20c-126.667 0-229.167 51-307.5 153S96 374 96 550zm186-21.001c0-122 24.999-217.833 74.999-287.5s120-104.5 210-104.5c116.667 0 202.334 53 257.001 159v494c-56.667 103.333-141.667 155-255 155-90 0-160.333-35-211-105s-76-173.667-76-311zM858.999 1262v-10h-153l-150 170-149-170h-153v12l246 272h112z"/><glyph glyph-name="Gbreve" unicode="Ğ" horiz-adv-x="1395" d="M1244 191c-49.333-70.667-118.169-123.502-206.502-158.502s-191.166-52.5-308.499-52.5c-118.667 0-224 27.833-316 83.5s-163.167 134.834-213.5 237.501-76.166 221.667-77.499 357v127c0 219.333 51.167 389.333 153.5 510s246.166 181 431.499 181c152 0 274.333-38.833 367-116.5s149.334-187.834 170.001-330.501h-192c-36 192.667-150.667 289-344 289-128.667 0-226.167-45.167-292.5-135.5S315.667 961.332 315 789.999v-119c0-163.333 37.333-293.166 112-389.499S602.667 137 730 137c72 0 135 8 189 24s98.667 43 134 81v327H716v156h528V191zM970.997 1839c0-80.667-27.501-145.5-82.501-194.5s-127.167-73.5-216.5-73.5-161.666 24.667-216.999 74-83 114-83 194h151c0-46.667 12.667-83.167 38-109.5s62.333-39.5 111-39.5c46.667 0 83.167 13 109.5 39s39.5 62.667 39.5 110h150z"/><glyph glyph-name="gbreve" unicode="ğ" horiz-adv-x="1149" d="M96 550c0 168.667 39 302.833 117 402.5S394.333 1102 523 1102c132 0 235-46.667 309-140l9 120h169V26c0-140-41.5-250.333-124.5-331S691-426 551-426c-78 0-154.333 16.667-229 50s-131.667 79-171 137l96 111c79.333-98 176.333-147 291-147 90 0 160.167 25.333 210.5 76S824-77 824 15v93C750 22.667 649-20 521-20c-126.667 0-229.167 51-307.5 153S96 374 96 550zm186-21.001c0-122 24.999-217.833 74.999-287.5s120-104.5 210-104.5c116.667 0 202.334 53 257.001 159v494c-56.667 103.333-141.667 155-255 155-90 0-160.333-35-211-105s-76-173.667-76-311zM855.999 1496c0-80.667-27.501-145.5-82.501-194.5s-127.167-73.5-216.5-73.5-161.666 24.667-216.999 74-83 114-83 194h151c0-46.667 12.667-83.167 38-109.5s62.333-39.5 111-39.5c46.667 0 83.167 13 109.5 39s39.5 62.667 39.5 110h150z"/><glyph glyph-name="Gdotaccent" unicode="Ġ" horiz-adv-x="1395" d="M1244 191c-49.333-70.667-118.169-123.502-206.502-158.502s-191.166-52.5-308.499-52.5c-118.667 0-224 27.833-316 83.5s-163.167 134.834-213.5 237.501-76.166 221.667-77.499 357v127c0 219.333 51.167 389.333 153.5 510s246.166 181 431.499 181c152 0 274.333-38.833 367-116.5s149.334-187.834 170.001-330.501h-192c-36 192.667-150.667 289-344 289-128.667 0-226.167-45.167-292.5-135.5S315.667 961.332 315 789.999v-119c0-163.333 37.333-293.166 112-389.499S602.667 137 730 137c72 0 135 8 189 24s98.667 43 134 81v327H716v156h528V191zM561.997 1710c0 30 9.167 55.333 27.5 76s45.5 31 81.5 31 63.333-10.333 82-31 28-46 28-76-9.333-55-28-75-46-30-82-30-63.167 10-81.5 30-27.5 45-27.5 75z"/><glyph glyph-name="gdotaccent" unicode="ġ" horiz-adv-x="1149" d="M96 550c0 168.667 39 302.833 117 402.5S394.333 1102 523 1102c132 0 235-46.667 309-140l9 120h169V26c0-140-41.5-250.333-124.5-331S691-426 551-426c-78 0-154.333 16.667-229 50s-131.667 79-171 137l96 111c79.333-98 176.333-147 291-147 90 0 160.167 25.333 210.5 76S824-77 824 15v93C750 22.667 649-20 521-20c-126.667 0-229.167 51-307.5 153S96 374 96 550zm186-21.001c0-122 24.999-217.833 74.999-287.5s120-104.5 210-104.5c116.667 0 202.334 53 257.001 159v494c-56.667 103.333-141.667 155-255 155-90 0-160.333-35-211-105s-76-173.667-76-311zM446.999 1367c0 30 9.167 55.333 27.5 76s45.5 31 81.5 31 63.333-10.333 82-31 28-46 28-76-9.333-55-28-75-46-30-82-30-63.167 10-81.5 30-27.5 45-27.5 75z"/><glyph glyph-name="Gcommaaccent" unicode="Ģ" horiz-adv-x="1395" d="M1244 191c-49.333-70.667-118.169-123.502-206.502-158.502s-191.166-52.5-308.499-52.5c-118.667 0-224 27.833-316 83.5s-163.167 134.834-213.5 237.501-76.166 221.667-77.499 357v127c0 219.333 51.167 389.333 153.5 510s246.166 181 431.499 181c152 0 274.333-38.833 367-116.5s149.334-187.834 170.001-330.501h-192c-36 192.667-150.667 289-344 289-128.667 0-226.167-45.167-292.5-135.5S315.667 961.332 315 789.999v-119c0-163.333 37.333-293.166 112-389.499S602.667 137 730 137c72 0 135 8 189 24s98.667 43 134 81v327H716v156h528V191zM670.997-522.002l-105 72c48 72.667 72.667 151.334 74 236.001v92h177v-76c0-60.667-13.167-120.834-39.5-180.501s-61.833-107.5-106.5-143.5z"/><glyph glyph-name="gcommaaccent" unicode="ģ" horiz-adv-x="1149" d="M96 550c0 168.667 39 302.833 117 402.5S394.333 1102 523 1102c132 0 235-46.667 309-140l9 120h169V26c0-140-41.5-250.333-124.5-331S691-426 551-426c-78 0-154.333 16.667-229 50s-131.667 79-171 137l96 111c79.333-98 176.333-147 291-147 90 0 160.167 25.333 210.5 76S824-77 824 15v93C750 22.667 649-20 521-20c-126.667 0-229.167 51-307.5 153S96 374 96 550zm186-21.001c0-122 24.999-217.833 74.999-287.5s120-104.5 210-104.5c116.667 0 202.334 53 257.001 159v494c-56.667 103.333-141.667 155-255 155-90 0-160.333-35-211-105s-76-173.667-76-311zM597.999 1683l107-83.001c-39.333-66-60-136-62-210v-136h-185v130c0 51.333 14 105.833 42 163.5s60.667 102.834 98 135.501z"/><glyph glyph-name="Hcircumflex" unicode="Ĥ" horiz-adv-x="1460" d="M1288 0h-193v673H361V0H169v1456h192V830h734v626h193V0zm-273 1584v-10H862l-150 170-149-170H410v12l246 272h112z"/><glyph glyph-name="hcircumflex" unicode="ĥ" horiz-adv-x="1128" d="M325 951c82 100.667 188.666 151 319.999 151 228.667 0 344-129 346-387V0h-185v716c-.667 78-18.5 135.667-53.5 173s-89.5 56-163.5 56c-60 0-112.667-16-158-48S350.333 823 325 771V0H140v1536h185V951zm477.999 632v-10h-153l-150 170-149-170h-153v12l246 272h112z"/><glyph glyph-name="Hbar" unicode="Ħ" horiz-adv-x="1434" d="M1282 1166h134v-142h-134V0h-193v673H356V0H163v1024H29v142h134v290h193v-290h733v290h193v-290zM356 830h733v194H356V830z"/><glyph glyph-name="hbar" unicode="ħ" horiz-adv-x="1158" d="M606 1234H354.999V951c82 100.667 188.667 151 320 151 228.667 0 344-129 346-387V0h-185v716c-.667 78-18.5 135.667-53.5 173s-89.5 56-163.5 56c-60 0-112.667-16-158-48S380.333 823 355 771V0H170v1234H-30v151h200v151h185v-151h251v-151z"/><glyph glyph-name="Itilde" unicode="Ĩ" horiz-adv-x="557" d="M375 0H183v1456h192V0zm259 1826c0-72-20.502-130.334-61.502-175.001s-92.167-67-153.5-67c-27.333 0-51 3.333-71 10s-46.167 20.334-78.5 41.001-55.666 33.167-69.999 37.5-30.833 6.5-49.5 6.5c-27.333 0-50.666-10.5-69.999-31.5s-29-47.833-29-80.5l-124 7c0 71.333 20.167 130.333 60.5 177s91.5 70 153.5 70c23.333 0 44.333-3.333 63-10s44-19.667 76-39 56.5-32 73.5-38 35.833-9 56.5-9c28.667 0 52.5 11.333 71.5 34s28.5 49 28.5 79z"/><glyph glyph-name="itilde" unicode="ĩ" horiz-adv-x="506" d="M341 0H155v1082h186V0zm267 1502c0-72-20.502-130.334-61.502-175.001s-92.167-67-153.5-67c-27.333 0-51 3.333-71 10s-46.167 20.334-78.5 41.001-55.666 33.167-69.999 37.5-30.833 6.5-49.5 6.5c-27.333 0-50.666-10.5-69.999-31.5s-29-47.833-29-80.5l-124 7c0 71.333 20.167 130.333 60.5 177s91.5 70 153.5 70c23.333 0 44.333-3.333 63-10s44-19.667 76-39 56.5-32 73.5-38 35.833-9 56.5-9c28.667 0 52.5 11.333 71.5 34s28.5 49 28.5 79z"/><glyph glyph-name="Imacron" unicode="Ī" horiz-adv-x="557" d="M375 0H183v1456h192V0zm245 1632H-52v143h672v-143z"/><glyph glyph-name="imacron" unicode="ī" horiz-adv-x="506" d="M341 0H155v1082h186V0zm253 1308H-78v143h672v-143z"/><glyph glyph-name="Ibreve" unicode="Ĭ" horiz-adv-x="557" d="M375 0H183v1456h192V0zm204 1818c0-80.667-27.501-145.5-82.501-194.5s-127.167-73.5-216.5-73.5S118.333 1574.667 63 1624s-83 114-83 194h151c0-46.667 12.667-83.167 38-109.5s62.333-39.5 111-39.5c46.667 0 83.167 13 109.5 39s39.5 62.667 39.5 110h150z"/><glyph glyph-name="ibreve" unicode="ĭ" horiz-adv-x="506" d="M341 0H155v1082h186V0zm212 1495c0-80.667-27.501-145.5-82.501-194.5s-127.167-73.5-216.5-73.5S92.333 1251.667 37 1301s-83 114-83 194h151c0-46.667 12.667-83.167 38-109.5s62.333-39.5 111-39.5c46.667 0 83.167 13 109.5 39s39.5 62.667 39.5 110h150z"/><glyph glyph-name="Iogonek" unicode="Į" horiz-adv-x="557" d="M375 0H183v1456h192V0zm-19 9l-58.001-44.998c-75.333-60.667-113-119.667-113-177 0-48 26-72 78-72 32 0 65.333 8.667 100 26l13-121c-46.667-29.333-100-44-160-44-59.333 0-106.166 17.333-140.499 52s-51.5 80.667-51.5 138c0 59.333 22.333 114.666 67 165.999S199 27.667 281 65z"/><glyph glyph-name="iogonek" unicode="į" horiz-adv-x="497" d="M341 0H156v1082h185V0zM141 1369c0 30 9.167 55.333 27.5 76s45.5 31 81.5 31 63.333-10.333 82-31 28-46 28-76-9.333-55-28-75-46-30-82-30-63.167 10-81.5 30-27.5 45-27.5 75zM327 0l-58.001-44.998c-75.333-60.667-113-119.667-113-177 0-48 26-72 78-72 32 0 65.333 8.667 100 26l13-121c-46.667-29.333-100-44-160-44-59.333 0-106.166 17.333-140.499 52S-5-300.331-5-242.998c0 59.333 22.333 114.666 67 165.999S170 18.667 252 56z"/><glyph glyph-name="Idotaccent" unicode="İ" horiz-adv-x="557" d="M375 0H183v1456h192V0zM169 1689c0 30 9.167 55.333 27.5 76s45.5 31 81.5 31 63.333-10.333 82-31 28-46 28-76-9.333-55-28-75-46-30-82-30-63.167 10-81.5 30-27.5 45-27.5 75z"/><glyph glyph-name="dotlessi" unicode="ı" horiz-adv-x="506" d="M341 0H155v1082h186V0z"/><glyph glyph-name="IJ" unicode="Ĳ" horiz-adv-x="1687" d="M375 0H183v1456h192V0zm961 1456h193V425c0-139.333-41.833-248.333-125.5-327S1208.333-20 1069-20C924.333-20 811.666 17 730.999 91s-121 177.667-121 311h192c0-83.333 22.833-148.333 68.5-195S982.333 137 1069 137c79.333 0 143.5 25 192.5 75s73.833 120 74.5 210v1034z"/><glyph glyph-name="ij" unicode="ĳ" horiz-adv-x="986" d="M341 0H156v1082h185V0zM141 1369c0 30 9.167 55.333 27.5 76s45.5 31 81.5 31 63.333-10.333 82-31 28-46 28-76-9.333-55-28-75-46-30-82-30-63.167 10-81.5 30-27.5 45-27.5 75zm687-287l.001-1207c0-208-94.333-312-283-312-40.667 0-78.334 6-113.001 18v148c21.333-5.333 49.333-8 84-8 41.333 0 72.833 11.167 94.5 33.5S643-184.334 643-129.001v1211h185zm-203.999 287c0 29.333 9.168 54.5 27.501 75.5s45.166 31.5 80.499 31.5c36 0 63.333-10.333 82-31s28-46 28-76-9.333-55-28-75-46-30-82-30-63 10-81 30-27 45-27 75z"/><glyph glyph-name="Jcircumflex" unicode="Ĵ" horiz-adv-x="1130" d="M779 1456h193V425c0-139.333-41.833-248.333-125.5-327S651.333-20 512-20C367.333-20 254.666 17 173.999 91s-121 177.667-121 311h192c0-83.333 22.833-148.333 68.5-195S425.333 137 512 137c79.333 0 143.5 25 192.5 75s73.833 120 74.5 210v1034zm375 115v-10h-153l-150 170-149-170H549v12l246 272h112z"/><glyph glyph-name="jcircumflex" unicode="ĵ" horiz-adv-x="515" d="M357 1082V-89c0-113.333-28.333-199.666-85-258.999s-135.667-89-237-89c-39.333 0-76.333 6-111 18l14 147c20-8.667 52.333-13 97-13 43.333 0 77 17.333 101 52s36 82.667 36 144v1171h185zm212 140v-10H416l-150 170-149-170H-36v12l246 272h112z"/><glyph glyph-name="Kcommaaccent" unicode="Ķ" horiz-adv-x="1284" d="M539 677L361 492V0H169v1456h192V736l647 720h232L667 813 1285 0h-230zm62-1101l-105 72c48 72.667 72.667 151.334 74 236.001v92h177v-76c0-60.667-13.167-120.834-39.5-180.501S645.667-388 601-424z"/><glyph glyph-name="kcommaaccent" unicode="ķ" horiz-adv-x="1038" d="M442 501L326 380V0H141v1536h185V607l99 119 337 356h225L566 630 1036 0H819zm28-944l-105 72c48 72.667 72.667 151.334 74 236.001v92h177v-76c0-60.667-13.167-120.834-39.5-180.501S514.667-407 470-443z"/><glyph glyph-name="kgreenlandic" unicode="ĸ" horiz-adv-x="1139" d="M447 461H340V0H154v1082h186V624h91l397 458h223L599 557 1087 0H854z"/><glyph glyph-name="Lacute" unicode="Ĺ" horiz-adv-x="1102" d="M362 157h690V0H169v1456h193V157zm-8 1684h224l-268-294H161z"/><glyph glyph-name="lacute" unicode="ĺ" horiz-adv-x="497" d="M341 0H156v1536h185V0zm-1 1942h224l-268-294H147z"/><glyph glyph-name="Lcommaaccent" unicode="Ļ" horiz-adv-x="1102" d="M362 157h690V0H169v1456h193V157zm199-660l-105 72c48 72.667 72.667 151.334 74 236.001v92h177v-76c0-60.667-13.167-120.834-39.5-180.501S605.667-467 561-503z"/><glyph glyph-name="lcommaaccent" unicode="ļ" horiz-adv-x="497" d="M341 0H156v1536h185V0zM192-503L87-431c48 72.667 72.667 151.334 74 236.001v92h177v-76c0-60.667-13.167-120.834-39.5-180.501S236.667-467 192-503z"/><glyph glyph-name="Lcaron" unicode="Ľ" horiz-adv-x="1102" d="M362 157h690V0H169v1456h193V157zm304 900l-105 72c48 72.667 72.667 151.334 74 236.001v92h177v-76c0-60.667-13.167-120.834-39.5-180.501S710.667 1093 666 1057z"/><glyph glyph-name="lcaron" unicode="ľ" horiz-adv-x="647" d="M341 0H156v1536h185V0zm198 1138l-105 72c48 72.667 72.667 151.334 74 236.001v92h177v-76c0-60.667-13.167-120.834-39.5-180.501S583.667 1174 539 1138z"/><glyph glyph-name="Ldot" unicode="Ŀ" horiz-adv-x="1102" d="M362 157h690V0H169v1456h193V157zm223 639c0 30 9.167 55.333 27.5 76s45.5 31 81.5 31 63.333-10.333 82-31 28-46 28-76-9.333-55-28-75-46-30-82-30-63.167 10-81.5 30-27.5 45-27.5 75z"/><glyph glyph-name="ldot" unicode="ŀ" horiz-adv-x="717" d="M341 0H156v1536h185V0zm112 781c0 30 9.167 55.333 27.5 76s45.5 31 81.5 31 63.333-10.333 82-31 28-46 28-76-9.333-55-28-75-46-30-82-30-63.167 10-81.5 30-27.5 45-27.5 75z"/><glyph glyph-name="Lslash" unicode="Ł" horiz-adv-x="1103" d="M361 843l263 84V802l-263-84V157h690V0H168v657L34 615v125l134 42v674h193V843z"/><glyph glyph-name="lslash" unicode="ł" horiz-adv-x="553" d="M364 869l158 61V807l-158-61V0H178v675L34 620v123l144 55v738h186V869z"/><glyph glyph-name="Nacute" unicode="Ń" horiz-adv-x="1460" d="M1288 0h-193L362 1122V0H169v1456h193l735-1127v1127h191V0zM817 1846h224l-268-294H624z"/><glyph glyph-name="nacute" unicode="ń" horiz-adv-x="1130" d="M315 1082l5.999-136c82.667 104 190.667 156 324 156 228.667 0 344-129 346-387V0h-185v716c-.667 78-18.5 135.667-53.5 173s-89.5 56-163.5 56c-60 0-112.667-16-158-48S350.333 823 325 771V0H140v1082h175zm347.999 454h224l-268-294h-149z"/><glyph glyph-name="Ncommaaccent" unicode="Ņ" horiz-adv-x="1460" d="M1288 0h-193L362 1122V0H169v1456h193l735-1127v1127h191V0zM661-503l-105 72c48 72.667 72.667 151.334 74 236.001v92h177v-76c0-60.667-13.167-120.834-39.5-180.501S705.667-467 661-503z"/><glyph glyph-name="ncommaaccent" unicode="ņ" horiz-adv-x="1130" d="M315 1082l5.999-136c82.667 104 190.667 156 324 156 228.667 0 344-129 346-387V0h-185v716c-.667 78-18.5 135.667-53.5 173s-89.5 56-163.5 56c-60 0-112.667-16-158-48S350.333 823 325 771V0H140v1082h175zM503.999-503l-105 72c48 72.667 72.667 151.334 74 236.001v92h177v-76c0-60.667-13.167-120.834-39.5-180.501S548.666-467 503.999-503z"/><glyph glyph-name="Ncaron" unicode="Ň" horiz-adv-x="1460" d="M1288 0h-193L362 1122V0H169v1456h193l735-1127v1127h191V0zM725 1676l150 170h160v-10l-254-274H668l-251 274v10h157z"/><glyph glyph-name="ncaron" unicode="ň" horiz-adv-x="1130" d="M315 1082l5.999-136c82.667 104 190.667 156 324 156 228.667 0 344-129 346-387V0h-185v716c-.667 78-18.5 135.667-53.5 173s-89.5 56-163.5 56c-60 0-112.667-16-158-48S350.333 823 325 771V0H140v1082h175zm255.999 284l150 170h160v-10l-254-274h-113l-251 274v10h157z"/><glyph glyph-name="napostrophe" unicode="ŉ" horiz-adv-x="1130" d="M315 1082l5.999-136c82.667 104 190.667 156 324 156 228.667 0 344-129 346-387V0h-185v716c-.667 78-18.5 135.667-53.5 173s-89.5 56-163.5 56c-60 0-112.667-16-158-48S350.333 823 325 771V0H140v1082h175zm-278.001 58l-105 72c48 72.667 72.667 151.334 74 236.001v92h177v-76c0-60.667-13.167-120.834-39.5-180.501S81.666 1176 36.999 1140z"/><glyph glyph-name="Eng" unicode="Ŋ" horiz-adv-x="1419" d="M1265 1456l-.001-1539c0-112-28.5-199-85.5-261s-137.5-93-241.5-93c-40.667 0-79 6-115 18l14 154c24.667-9.333 57.334-14 98.001-14 90.667 0 136 69.333 136 208V0L354 1130V0H162v1456h192l717-1128v1128h194z"/><glyph glyph-name="eng" unicode="ŋ" horiz-adv-x="1160" d="M311 1082l13.003-154.003c77.333 116 183.666 174 318.999 174 119.333 0 209.666-34.667 270.999-104s92.666-171.666 93.999-306.999v-780c0-109.333-27.833-194.666-83.5-255.999s-135.167-92-238.5-92c-40.667 0-79 6-115 18l14 157c23.333-8.667 57-13 101-13 91.333 0 137 64.667 137 194v759c0 92.667-18.5 160.334-55.5 203.001s-97.167 64-180.5 64c-116.667 0-202-44.333-256-133V0H145v1082h166z"/><glyph glyph-name="Omacron" unicode="Ō" horiz-adv-x="1408" d="M1289 681c0-142.667-23.999-267.165-71.999-373.498s-116-187.5-204-243.5-190.667-84-308-84c-114.667 0-216.334 28.167-305.001 84.5S242.5 201.168 193.5 305.501 119.333 530.667 118 668v105c0 140 24.333 263.667 73 371s117.5 189.5 206.5 246.5S588.333 1476 703 1476c116.667 0 219.5-28.167 308.5-84.5s157.5-138 205.5-245 72-231.5 72-373.5v-92zm-191 94.002c0 172.667-34.666 305.167-103.999 397.5s-166.333 138.5-291 138.5c-121.333 0-216.833-46.167-286.5-138.5s-105.5-220.5-107.5-384.5v-107c0-167.333 35.167-298.833 105.5-394.5s167.166-143.5 290.499-143.5c124 0 220 45.167 288 135.5s103 219.833 105 388.5v108zM1047 1622H375v143h672v-143z"/><glyph glyph-name="omacron" unicode="ō" horiz-adv-x="1168" d="M91 551c0 106 20.834 201.334 62.501 286.001s99.667 150 174 196 159.166 69 254.499 69c147.333 0 266.5-51 357.5-153s136.5-237.667 136.5-407v-13c0-105.333-20.167-199.833-60.5-283.5S917.5 96.667 842.5 50 681.333-20 584-20c-146.667 0-265.5 51-356.5 153S91 370 91 538v13zm186.001-21.999c0-120 27.832-216.335 83.499-289.002s130.167-109 223.5-109c94 0 168.667 36.833 224 110.5S891 418.333 891 551c0 118.667-28.167 214.834-84.5 288.501s-131.166 110.5-224.499 110.5c-91.333 0-165-36.333-221-109s-84-176.667-84-312zM916 1310H244v143h672v-143z"/><glyph glyph-name="Obreve" unicode="Ŏ" horiz-adv-x="1408" d="M1289 681c0-142.667-23.999-267.165-71.999-373.498s-116-187.5-204-243.5-190.667-84-308-84c-114.667 0-216.334 28.167-305.001 84.5S242.5 201.168 193.5 305.501 119.333 530.667 118 668v105c0 140 24.333 263.667 73 371s117.5 189.5 206.5 246.5S588.333 1476 703 1476c116.667 0 219.5-28.167 308.5-84.5s157.5-138 205.5-245 72-231.5 72-373.5v-92zm-191 94.002c0 172.667-34.666 305.167-103.999 397.5s-166.333 138.5-291 138.5c-121.333 0-216.833-46.167-286.5-138.5s-105.5-220.5-107.5-384.5v-107c0-167.333 35.167-298.833 105.5-394.5s167.166-143.5 290.499-143.5c124 0 220 45.167 288 135.5s103 219.833 105 388.5v108zM1006 1808c0-80.667-27.501-145.5-82.501-194.5s-127.167-73.5-216.5-73.5-161.666 24.667-216.999 74-83 114-83 194h151c0-46.667 12.667-83.167 38-109.5s62.333-39.5 111-39.5c46.667 0 83.167 13 109.5 39s39.5 62.667 39.5 110h150z"/><glyph glyph-name="obreve" unicode="ŏ" horiz-adv-x="1168" d="M91 551c0 106 20.834 201.334 62.501 286.001s99.667 150 174 196 159.166 69 254.499 69c147.333 0 266.5-51 357.5-153s136.5-237.667 136.5-407v-13c0-105.333-20.167-199.833-60.5-283.5S917.5 96.667 842.5 50 681.333-20 584-20c-146.667 0-265.5 51-356.5 153S91 370 91 538v13zm186.001-21.999c0-120 27.832-216.335 83.499-289.002s130.167-109 223.5-109c94 0 168.667 36.833 224 110.5S891 418.333 891 551c0 118.667-28.167 214.834-84.5 288.501s-131.166 110.5-224.499 110.5c-91.333 0-165-36.333-221-109s-84-176.667-84-312zM875 1496c0-80.667-27.501-145.5-82.501-194.5s-127.167-73.5-216.5-73.5-161.666 24.667-216.999 74-83 114-83 194h151c0-46.667 12.667-83.167 38-109.5s62.333-39.5 111-39.5c46.667 0 83.167 13 109.5 39s39.5 62.667 39.5 110h150z"/><glyph glyph-name="Ohungarumlaut" unicode="Ő" horiz-adv-x="1408" d="M1289 681c0-142.667-23.999-267.165-71.999-373.498s-116-187.5-204-243.5-190.667-84-308-84c-114.667 0-216.334 28.167-305.001 84.5S242.5 201.168 193.5 305.501 119.333 530.667 118 668v105c0 140 24.333 263.667 73 371s117.5 189.5 206.5 246.5S588.333 1476 703 1476c116.667 0 219.5-28.167 308.5-84.5s157.5-138 205.5-245 72-231.5 72-373.5v-92zm-191 94.002c0 172.667-34.666 305.167-103.999 397.5s-166.333 138.5-291 138.5c-121.333 0-216.833-46.167-286.5-138.5s-105.5-220.5-107.5-384.5v-107c0-167.333 35.167-298.833 105.5-394.5s167.166-143.5 290.499-143.5c124 0 220 45.167 288 135.5s103 219.833 105 388.5v108zM968.002 1847h207l-269-303h-169zm-340 0h197l-218-303h-150z"/><glyph glyph-name="ohungarumlaut" unicode="ő" horiz-adv-x="1168" d="M91 551c0 106 20.834 201.334 62.501 286.001s99.667 150 174 196 159.166 69 254.499 69c147.333 0 266.5-51 357.5-153s136.5-237.667 136.5-407v-13c0-105.333-20.167-199.833-60.5-283.5S917.5 96.667 842.5 50 681.333-20 584-20c-146.667 0-265.5 51-356.5 153S91 370 91 538v13zm186.001-21.999c0-120 27.832-216.335 83.499-289.002s130.167-109 223.5-109c94 0 168.667 36.833 224 110.5S891 418.333 891 551c0 118.667-28.167 214.834-84.5 288.501s-131.166 110.5-224.499 110.5c-91.333 0-165-36.333-221-109s-84-176.667-84-312zM837 1535h207l-269-303H606zm-340 0h197l-218-303H326z"/><glyph glyph-name="OE" unicode="Œ" horiz-adv-x="1953" d="M1801 0H953.002c-118.667-14-216-21-292-21-108 0-204.333 25-289 75S221.668 174.167 175.001 264.5 104.667 457 104 571v309c0 114.667 23.167 217.5 69.5 308.5s111.833 161.667 196.5 212 181 75.5 289 75.5c82.667 0 180.667-6.667 294-20h838v-158h-723V830h631V673h-631V157h733V0zM661.002 130c75.333 0 147 4.667 215 14v1166c-72.667 10-145 15-217 15-115.333 0-205.333-38.167-270-114.5s-97.667-183.5-99-321.5V576c0-140.667 32.5-250.167 97.5-328.5S543.669 130 661.002 130z"/><glyph glyph-name="oe" unicode="œ" horiz-adv-x="1860" d="M97 551c0 106.667 20.164 202.334 60.497 287.001s97 149.834 170 195.501 156.833 68.5 251.5 68.5c91.333 0 170.5-19.5 237.5-58.5s120.833-91.833 161.5-158.5c43.333 68 97.666 121.167 163 159.5s135.332 57.5 210 57.5c138 0 246-42.333 324-127s117-205.334 117-362.001v-116h-718c4.666-113.333 34.333-202.833 89-268.5s126.667-98.5 216-98.5c125.333 0 228 36 308 108l74-126c-91.333-88-218.666-132-381.999-132-90 0-169.167 18.667-237.5 56s-123.5 89.333-165.5 156c-41.333-66-95.166-117.833-161.499-155.5S670.333-19.999 581-19.999c-146.667 0-264 50.667-352 152S97 368.667 97 538v13zm184.997-22c0-122 26.668-218.999 80.001-290.999s126.333-108 219-108c91.333 0 163.666 35.833 216.999 107.5s80 176.167 80 313.5c0 121.333-26.833 218.166-80.5 290.499S670.997 950 578.997 950c-90 0-162-35.667-216-107s-81-176-81-314zM1351 950.001c-66 0-123.999-27.167-173.999-81.5s-82.333-127.5-97-219.5h526v26c0 83.333-22.833 150-68.5 200s-107.834 75-186.501 75z"/><glyph glyph-name="Racute" unicode="Ŕ" horiz-adv-x="1261" d="M703 589H361V0H168v1456h482c164 0 290.167-37.333 378.5-112s132.5-183.334 132.5-326.001c0-90.667-24.5-169.667-73.5-237S970.333 663.333 883 630l342-618V0h-206zM361 746h295.001c95.333 0 171.166 24.667 227.499 74S968 935.333 968 1018c0 90-26.833 159-80.5 207s-131.167 72.333-232.5 73H361V746zm339.001 1100h224l-268-294h-149z"/><glyph glyph-name="racute" unicode="ŕ" horiz-adv-x="693" d="M663 916c-28 4.667-58.334 7-91.001 7C450.666 923 368.333 871.333 325 768V0H140v1082h180l3-125c60.667 96.667 146.667 145 258 145 36 0 63.333-4.667 82-14V916zm-165.001 620h224l-268-294h-149z"/><glyph glyph-name="Rcommaaccent" unicode="Ŗ" horiz-adv-x="1261" d="M703 589H361V0H168v1456h482c164 0 290.167-37.333 378.5-112s132.5-183.334 132.5-326.001c0-90.667-24.5-169.667-73.5-237S970.333 663.333 883 630l342-618V0h-206zM361 746h295.001c95.333 0 171.166 24.667 227.499 74S968 935.333 968 1018c0 90-26.833 159-80.5 207s-131.167 72.333-232.5 73H361V746zM552.001-503l-105 72c48 72.667 72.667 151.334 74 236.001v92h177v-76c0-60.667-13.167-120.834-39.5-180.501S596.668-467 552.001-503z"/><glyph glyph-name="rcommaaccent" unicode="ŗ" horiz-adv-x="693" d="M663 916c-28 4.667-58.334 7-91.001 7C450.666 923 368.333 871.333 325 768V0H140v1082h180l3-125c60.667 96.667 146.667 145 258 145 36 0 63.333-4.667 82-14V916zM187.999-503l-105 72c48 72.667 72.667 151.334 74 236.001v92h177v-76c0-60.667-13.167-120.834-39.5-180.501S232.666-467 187.999-503z"/><glyph glyph-name="Rcaron" unicode="Ř" horiz-adv-x="1261" d="M703 589H361V0H168v1456h482c164 0 290.167-37.333 378.5-112s132.5-183.334 132.5-326.001c0-90.667-24.5-169.667-73.5-237S970.333 663.333 883 630l342-618V0h-206zM361 746h295.001c95.333 0 171.166 24.667 227.499 74S968 935.333 968 1018c0 90-26.833 159-80.5 207s-131.167 72.333-232.5 73H361V746zm247.001 930l150 170h160v-10l-254-274h-113l-251 274v10h157z"/><glyph glyph-name="rcaron" unicode="ř" horiz-adv-x="693" d="M663 916c-28 4.667-58.334 7-91.001 7C450.666 923 368.333 871.333 325 768V0H140v1082h180l3-125c60.667 96.667 146.667 145 258 145 36 0 63.333-4.667 82-14V916zm-256.001 450l150 170h160v-10l-254-274h-113l-251 274v10h157z"/><glyph glyph-name="Sacute" unicode="Ś" horiz-adv-x="1215" d="M598 649c-164.667 47.333-284.501 105.5-359.501 174.5s-112.5 154.167-112.5 255.5c0 114.667 45.833 209.5 137.5 284.5S474.333 1476 621 1476c100 0 189.167-19.333 267.5-58s139-92 182-160 64.5-142.333 64.5-223H942c0 88-28 157.167-84 207.5S723 1318 621 1318c-94.667 0-168.5-20.833-221.5-62.5S320 1156 320 1082c0-59.333 25.167-109.5 75.5-150.5s136-78.5 257-112.5 215.667-71.5 284-112.5 119-88.833 152-143.5 49.5-119 49.5-193c0-118-46-212.5-138-283.5S785-20 631-20C531-20 437.667-.833 351 37.5S197.5 128.333 150.5 195 80 337.334 80 422.001h193c0-88 32.5-157.5 97.5-208.5s151.833-76.5 260.5-76.5c101.333 0 179 20.667 233 62S945 296.667 945 368s-25 126.5-75 165.5S729.333 611 598 649zm114.999 1199h224l-268-294h-149z"/><glyph glyph-name="sacute" unicode="ś" horiz-adv-x="1056" d="M770 287c0 50-18.828 88.835-56.495 116.502s-103.334 51.5-197.001 71.5-168 44-223 72-95.667 61.333-122 100-39.5 84.667-39.5 138c0 88.667 37.5 163.667 112.5 225s170.833 92 287.5 92c122.667 0 222.167-31.667 298.5-95s114.5-144.333 114.5-243h-186c0 50.667-21.5 94.334-64.5 131.001s-97.167 55-162.5 55c-67.333 0-120-14.667-158-44s-57-67.666-57-114.999c0-44.667 17.667-78.334 53-101.001s99.166-44.334 191.499-65.001 167.166-45.334 224.499-74.001 99.833-63.167 127.5-103.5 41.5-89.5 41.5-147.5c0-96.667-38.667-174.167-116-232.5s-177.666-87.5-301-87.5c-86.666 0-163.333 15.333-230 46s-118.834 73.5-156.501 128.5-56.5 114.5-56.5 178.5h185c3.333-62 28.166-111.167 74.499-147.5s107.5-54.5 183.5-54.5c70 0 126.167 14.167 168.5 42.5S770 239.667 770 287zM653.005 1536h224l-268-294h-149z"/><glyph glyph-name="Scircumflex" unicode="Ŝ" horiz-adv-x="1215" d="M598 649c-164.667 47.333-284.501 105.5-359.501 174.5s-112.5 154.167-112.5 255.5c0 114.667 45.833 209.5 137.5 284.5S474.333 1476 621 1476c100 0 189.167-19.333 267.5-58s139-92 182-160 64.5-142.333 64.5-223H942c0 88-28 157.167-84 207.5S723 1318 621 1318c-94.667 0-168.5-20.833-221.5-62.5S320 1156 320 1082c0-59.333 25.167-109.5 75.5-150.5s136-78.5 257-112.5 215.667-71.5 284-112.5 119-88.833 152-143.5 49.5-119 49.5-193c0-118-46-212.5-138-283.5S785-20 631-20C531-20 437.667-.833 351 37.5S197.5 128.333 150.5 195 80 337.334 80 422.001h193c0-88 32.5-157.5 97.5-208.5s151.833-76.5 260.5-76.5c101.333 0 179 20.667 233 62S945 296.667 945 368s-25 126.5-75 165.5S729.333 611 598 649zm326.999 925v-10h-153l-150 170-149-170h-153v12l246 272h112z"/><glyph glyph-name="scircumflex" unicode="ŝ" horiz-adv-x="1056" d="M770 287c0 50-18.828 88.835-56.495 116.502s-103.334 51.5-197.001 71.5-168 44-223 72-95.667 61.333-122 100-39.5 84.667-39.5 138c0 88.667 37.5 163.667 112.5 225s170.833 92 287.5 92c122.667 0 222.167-31.667 298.5-95s114.5-144.333 114.5-243h-186c0 50.667-21.5 94.334-64.5 131.001s-97.167 55-162.5 55c-67.333 0-120-14.667-158-44s-57-67.666-57-114.999c0-44.667 17.667-78.334 53-101.001s99.166-44.334 191.499-65.001 167.166-45.334 224.499-74.001 99.833-63.167 127.5-103.5 41.5-89.5 41.5-147.5c0-96.667-38.667-174.167-116-232.5s-177.666-87.5-301-87.5c-86.666 0-163.333 15.333-230 46s-118.834 73.5-156.501 128.5-56.5 114.5-56.5 178.5h185c3.333-62 28.166-111.167 74.499-147.5s107.5-54.5 183.5-54.5c70 0 126.167 14.167 168.5 42.5S770 239.667 770 287zm95.005 975v-10h-153l-150 170-149-170h-153v12l246 272h112z"/><glyph glyph-name="Scedilla" unicode="Ş" horiz-adv-x="1215" d="M598 649c-164.667 47.333-284.501 105.5-359.501 174.5s-112.5 154.167-112.5 255.5c0 114.667 45.833 209.5 137.5 284.5S474.333 1476 621 1476c100 0 189.167-19.333 267.5-58s139-92 182-160 64.5-142.333 64.5-223H942c0 88-28 157.167-84 207.5S723 1318 621 1318c-94.667 0-168.5-20.833-221.5-62.5S320 1156 320 1082c0-59.333 25.167-109.5 75.5-150.5s136-78.5 257-112.5 215.667-71.5 284-112.5 119-88.833 152-143.5 49.5-119 49.5-193c0-118-46-212.5-138-283.5S785-20 631-20C531-20 437.667-.833 351 37.5S197.5 128.333 150.5 195 80 337.334 80 422.001h193c0-88 32.5-157.5 97.5-208.5s151.833-76.5 260.5-76.5c101.333 0 179 20.667 233 62S945 296.667 945 368s-25 126.5-75 165.5S729.333 611 598 649zM699.999 0l-12.002-51.998c102-18 153-75.667 153-173 0-64.667-26.667-115.834-80-153.501s-127.666-56.5-222.999-56.5l-7 107c52.667 0 93.5 8.667 122.5 26s43.5 41.666 43.5 72.999c0 29.333-10.667 51-32 65s-64.666 24-129.999 30l32 134h133z"/><glyph glyph-name="scedilla" unicode="ş" horiz-adv-x="1056" d="M770 287c0 50-18.828 88.835-56.495 116.502s-103.334 51.5-197.001 71.5-168 44-223 72-95.667 61.333-122 100-39.5 84.667-39.5 138c0 88.667 37.5 163.667 112.5 225s170.833 92 287.5 92c122.667 0 222.167-31.667 298.5-95s114.5-144.333 114.5-243h-186c0 50.667-21.5 94.334-64.5 131.001s-97.167 55-162.5 55c-67.333 0-120-14.667-158-44s-57-67.666-57-114.999c0-44.667 17.667-78.334 53-101.001s99.166-44.334 191.499-65.001 167.166-45.334 224.499-74.001 99.833-63.167 127.5-103.5 41.5-89.5 41.5-147.5c0-96.667-38.667-174.167-116-232.5s-177.666-87.5-301-87.5c-86.666 0-163.333 15.333-230 46s-118.834 73.5-156.501 128.5-56.5 114.5-56.5 178.5h185c3.333-62 28.166-111.167 74.499-147.5s107.5-54.5 183.5-54.5c70 0 126.167 14.167 168.5 42.5S770 239.667 770 287zM634.005-7.998l-12.002-51.998c102-18 153-75.667 153-173 0-64.667-26.667-115.834-80-153.501s-127.666-56.5-222.999-56.5l-7 107c52.667 0 93.5 8.667 122.5 26s43.5 41.666 43.5 72.999c0 29.333-10.667 51-32 65s-64.666 24-129.999 30l32 134h133z"/><glyph glyph-name="Scaron" unicode="Š" horiz-adv-x="1215" d="M598 649c-164.667 47.333-284.501 105.5-359.501 174.5s-112.5 154.167-112.5 255.5c0 114.667 45.833 209.5 137.5 284.5S474.333 1476 621 1476c100 0 189.167-19.333 267.5-58s139-92 182-160 64.5-142.333 64.5-223H942c0 88-28 157.167-84 207.5S723 1318 621 1318c-94.667 0-168.5-20.833-221.5-62.5S320 1156 320 1082c0-59.333 25.167-109.5 75.5-150.5s136-78.5 257-112.5 215.667-71.5 284-112.5 119-88.833 152-143.5 49.5-119 49.5-193c0-118-46-212.5-138-283.5S785-20 631-20C531-20 437.667-.833 351 37.5S197.5 128.333 150.5 195 80 337.334 80 422.001h193c0-88 32.5-157.5 97.5-208.5s151.833-76.5 260.5-76.5c101.333 0 179 20.667 233 62S945 296.667 945 368s-25 126.5-75 165.5S729.333 611 598 649zm22.999 1029l150 170h160v-10l-254-274h-113l-251 274v10h157z"/><glyph glyph-name="scaron" unicode="š" horiz-adv-x="1056" d="M770 287c0 50-18.828 88.835-56.495 116.502s-103.334 51.5-197.001 71.5-168 44-223 72-95.667 61.333-122 100-39.5 84.667-39.5 138c0 88.667 37.5 163.667 112.5 225s170.833 92 287.5 92c122.667 0 222.167-31.667 298.5-95s114.5-144.333 114.5-243h-186c0 50.667-21.5 94.334-64.5 131.001s-97.167 55-162.5 55c-67.333 0-120-14.667-158-44s-57-67.666-57-114.999c0-44.667 17.667-78.334 53-101.001s99.166-44.334 191.499-65.001 167.166-45.334 224.499-74.001 99.833-63.167 127.5-103.5 41.5-89.5 41.5-147.5c0-96.667-38.667-174.167-116-232.5s-177.666-87.5-301-87.5c-86.666 0-163.333 15.333-230 46s-118.834 73.5-156.501 128.5-56.5 114.5-56.5 178.5h185c3.333-62 28.166-111.167 74.499-147.5s107.5-54.5 183.5-54.5c70 0 126.167 14.167 168.5 42.5S770 239.667 770 287zM561.005 1366l150 170h160v-10l-254-274h-113l-251 274v10h157z"/><glyph glyph-name="Tcommaaccent" unicode="Ţ" horiz-adv-x="1222" d="M1175 1298H707V0H516v1298H49v158h1126v-158zM685 0l-12.002-51.998c102-18 153-75.667 153-173 0-64.667-26.667-115.834-80-153.501s-127.666-56.5-222.999-56.5l-7 107c52.667 0 93.5 8.667 122.5 26s43.5 41.666 43.5 72.999c0 29.333-10.667 51-32 65S585.333-140 520-134L552 0h133z"/><glyph glyph-name="tcommaaccent" unicode="ţ" horiz-adv-x="669" d="M391 1344l.001-262h202V939h-202V268c0-43.333 9-75.833 27-97.5s48.667-32.5 92-32.5c21.333 0 50.666 4 87.999 12V0c-48.667-13.333-96-20-142-20-82.667 0-145 25-187 75s-63 121-63 213v671H9v143h197v262h185zM524.001 0l-12.002-51.998c102-18 153-75.667 153-173 0-64.667-26.667-115.834-80-153.501s-127.666-56.5-222.999-56.5l-7 107c52.667 0 93.5 8.667 122.5 26S521-260.333 521-229c0 29.333-10.667 51-32 65s-64.666 24-129.999 30l32 134h133z"/><glyph glyph-name="Tcaron" unicode="Ť" horiz-adv-x="1222" d="M1175 1298H707V0H516v1298H49v158h1126v-158zm-565 378l150 170h160v-10l-254-274H553l-251 274v10h157z"/><glyph glyph-name="tcaron" unicode="ť" horiz-adv-x="709" d="M391 1344l.001-262h202V939h-202V268c0-43.333 9-75.833 27-97.5s48.667-32.5 92-32.5c21.333 0 50.666 4 87.999 12V0c-48.667-13.333-96-20-142-20-82.667 0-145 25-187 75s-63 121-63 213v671H9v143h197v262h185zm211.001-87l-105 72c48 72.667 72.667 151.334 74 236.001v92h177v-76c0-60.667-13.167-120.834-39.5-180.501s-61.833-107.5-106.5-143.5z"/><glyph glyph-name="Tbar" unicode="Ŧ" horiz-adv-x="1222" d="M938 823H707V0H516v823H302v151h214v324H49v158h1126v-158H707V974h231V823z"/><glyph glyph-name="tbar" unicode="ŧ" horiz-adv-x="669" d="M391 1344l.001-262h202V939h-202V753h233V602h-233V268c0-43.333 9-75.833 27-97.5s48.667-32.5 92-32.5c21.333 0 50.666 4 87.999 12V0c-48.667-13.333-96-20-142-20-82.667 0-145 25-187 75s-63 121-63 213v334H-12v151h218v186H9v143h197v262h185z"/><glyph glyph-name="Utilde" unicode="Ũ" horiz-adv-x="1328" d="M1194 1456l.001-990.002c-.667-137.333-43.834-249.666-129.501-336.999s-201.834-136.333-348.501-147l-51-2c-159.333 0-286.333 43-381 129s-142.667 204.333-144 355v992h190v-986c0-105.333 29-187.166 87-245.499s140.667-87.5 248-87.5c108.667 0 191.834 29 249.501 87s86.5 139.667 86.5 245v987h193zm-172 358c0-72-20.502-130.334-61.502-175.001s-92.167-67-153.5-67c-27.333 0-51 3.333-71 10s-46.167 20.334-78.5 41.001-55.666 33.167-69.999 37.5-30.833 6.5-49.5 6.5c-27.333 0-50.666-10.5-69.999-31.5s-29-47.833-29-80.5l-124 7c0 71.333 20.167 130.333 60.5 177s91.5 70 153.5 70c23.333 0 44.333-3.333 63-10s44-19.667 76-39 56.5-32 73.5-38 35.833-9 56.5-9c28.667 0 52.5 11.333 71.5 34s28.5 49 28.5 79z"/><glyph glyph-name="utilde" unicode="ũ" horiz-adv-x="1129" d="M808 107C736 22.333 630.332-20 490.999-20 375.666-20 287.833 13.5 227.5 80.5S136.667 246.667 136 378v704h185V383c0-164 66.667-246 200-246 141.333 0 235.333 52.667 282 158v787h185V0H812zm113.999 1397c0-72-20.502-130.334-61.502-175.001s-92.167-67-153.5-67c-27.333 0-51 3.333-71 10s-46.167 20.334-78.5 41.001-55.666 33.167-69.999 37.5-30.833 6.5-49.5 6.5c-27.333 0-50.666-10.5-69.999-31.5s-29-47.833-29-80.5l-124 7c0 71.333 20.167 130.333 60.5 177s91.5 70 153.5 70c23.333 0 44.333-3.333 63-10s44-19.667 76-39 56.5-32 73.5-38 35.833-9 56.5-9c28.667 0 52.5 11.333 71.5 34s28.5 49 28.5 79z"/><glyph glyph-name="Umacron" unicode="Ū" horiz-adv-x="1328" d="M1194 1456l.001-990.002c-.667-137.333-43.834-249.666-129.501-336.999s-201.834-136.333-348.501-147l-51-2c-159.333 0-286.333 43-381 129s-142.667 204.333-144 355v992h190v-986c0-105.333 29-187.166 87-245.499s140.667-87.5 248-87.5c108.667 0 191.834 29 249.501 87s86.5 139.667 86.5 245v987h193zm-186 164H336v143h672v-143z"/><glyph glyph-name="umacron" unicode="ū" horiz-adv-x="1129" d="M808 107C736 22.333 630.332-20 490.999-20 375.666-20 287.833 13.5 227.5 80.5S136.667 246.667 136 378v704h185V383c0-164 66.667-246 200-246 141.333 0 235.333 52.667 282 158v787h185V0H812zm99.999 1203h-672v143h672v-143z"/><glyph glyph-name="Ubreve" unicode="Ŭ" horiz-adv-x="1328" d="M1194 1456l.001-990.002c-.667-137.333-43.834-249.666-129.501-336.999s-201.834-136.333-348.501-147l-51-2c-159.333 0-286.333 43-381 129s-142.667 204.333-144 355v992h190v-986c0-105.333 29-187.166 87-245.499s140.667-87.5 248-87.5c108.667 0 191.834 29 249.501 87s86.5 139.667 86.5 245v987h193zm-226.999 350c0-80.667-27.501-145.5-82.501-194.5S757.333 1538 668 1538s-161.666 24.667-216.999 74-83 114-83 194h151c0-46.667 12.667-83.167 38-109.5s62.333-39.5 111-39.5c46.667 0 83.167 13 109.5 39s39.5 62.667 39.5 110h150z"/><glyph glyph-name="ubreve" unicode="ŭ" horiz-adv-x="1129" d="M808 107C736 22.333 630.332-20 490.999-20 375.666-20 287.833 13.5 227.5 80.5S136.667 246.667 136 378v704h185V383c0-164 66.667-246 200-246 141.333 0 235.333 52.667 282 158v787h185V0H812zm58.999 1389c0-80.667-27.501-145.5-82.501-194.5s-127.167-73.5-216.5-73.5-161.666 24.667-216.999 74-83 114-83 194h151c0-46.667 12.667-83.167 38-109.5s62.333-39.5 111-39.5c46.667 0 83.167 13 109.5 39s39.5 62.667 39.5 110h150z"/><glyph glyph-name="Uring" unicode="Ů" horiz-adv-x="1328" d="M1194 1456l.001-990.002c-.667-137.333-43.834-249.666-129.501-336.999s-201.834-136.333-348.501-147l-51-2c-159.333 0-286.333 43-381 129s-142.667 204.333-144 355v992h190v-986c0-105.333 29-187.166 87-245.499s140.667-87.5 248-87.5c108.667 0 191.834 29 249.501 87s86.5 139.667 86.5 245v987h193zm-311.999 273c0-58-20.667-106.499-62-145.499s-92.333-58.5-153-58.5c-61.333 0-112.5 19.667-153.5 59s-61.5 87.666-61.5 144.999 20.5 106.333 61.5 147 92.167 61 153.5 61 112.5-20.333 153.5-61 61.5-89.667 61.5-147zm-331 0c0-31.333 11.167-58.333 33.5-81s49.833-34 82.5-34c32 0 59.333 11 82 33s34 49.333 34 82-11.167 60.5-33.5 83.5-49.833 34.5-82.5 34.5c-33.333 0-61-11.667-83-35s-33-51-33-83z"/><glyph glyph-name="uring" unicode="ů" horiz-adv-x="1129" d="M808 107C736 22.333 630.332-20 490.999-20 375.666-20 287.833 13.5 227.5 80.5S136.667 246.667 136 378v704h185V383c0-164 66.667-246 200-246 141.333 0 235.333 52.667 282 158v787h185V0H812zm-26.001 1312c0-58-20.667-106.499-62-145.499s-92.333-58.5-153-58.5c-61.333 0-112.5 19.667-153.5 59s-61.5 87.666-61.5 144.999 20.5 106.333 61.5 147 92.167 61 153.5 61 112.5-20.333 153.5-61 61.5-89.667 61.5-147zm-331 0c0-31.333 11.167-58.333 33.5-81s49.833-34 82.5-34c32 0 59.333 11 82 33s34 49.333 34 82-11.167 60.5-33.5 83.5-49.833 34.5-82.5 34.5c-33.333 0-61-11.667-83-35s-33-51-33-83z"/><glyph glyph-name="Uhungarumlaut" unicode="Ű" horiz-adv-x="1328" d="M1194 1456l.001-990.002c-.667-137.333-43.834-249.666-129.501-336.999s-201.834-136.333-348.501-147l-51-2c-159.333 0-286.333 43-381 129s-142.667 204.333-144 355v992h190v-986c0-105.333 29-187.166 87-245.499s140.667-87.5 248-87.5c108.667 0 191.834 29 249.501 87s86.5 139.667 86.5 245v987h193zm-264.999 389h207l-269-303h-169zm-340 0h197l-218-303h-150z"/><glyph glyph-name="uhungarumlaut" unicode="ű" horiz-adv-x="1129" d="M808 107C736 22.333 630.332-20 490.999-20 375.666-20 287.833 13.5 227.5 80.5S136.667 246.667 136 378v704h185V383c0-164 66.667-246 200-246 141.333 0 235.333 52.667 282 158v787h185V0H812zm20.999 1428h207l-269-303h-169zm-340 0h197l-218-303h-150z"/><glyph glyph-name="Uogonek" unicode="Ų" horiz-adv-x="1328" d="M1194 1456l-.002-991.002c-.667-98.667-24-185.667-70-261s-112.667-132.666-200-171.999c-103.333-76-155-146-155-210 0-48 26-72 78-72 32 0 65.333 8.667 100 26l13-121c-46.667-29.333-100-44-160-44-59.333 0-106.166 17.333-140.499 52s-51.5 80.667-51.5 138c0 64.667 26.333 124.667 79 180l-22-1c-159.333 0-286.333 43-381 129s-142.667 204.333-144 355v992h190v-986c0-105.333 29-187.166 87-245.499s140.667-87.5 248-87.5c108.667 0 191.834 29 249.501 87s86.5 139.667 86.5 245v987h193z"/><glyph glyph-name="uogonek" unicode="ų" horiz-adv-x="1129" d="M978 0l-58.002-45c-75.333-60.667-113-119.667-113-177 0-48 26-72 78-72 32 0 65.333 8.667 100 26l13-121c-46.667-29.333-100-44-160-44-59.333 0-106.166 17.333-140.499 52s-51.5 80.667-51.5 138c0 95.333 55.333 178.333 166 249l-4 101c-72-84.667-177.667-127-317-127C375.666-20 287.833 13.5 227.5 80.5S136.667 246.667 136 378v704h185V383c0-164 66.667-246 200-246 141.333 0 235.333 52.667 282 158v787h185V0h-10z"/><glyph glyph-name="Wcircumflex" unicode="Ŵ" horiz-adv-x="1817" d="M483 459l28-192 41 173 288 1016h162l281-1016 40-176 31 196 226 996h193L1420 0h-175L945 1061l-23 111-23-111L588 0H413L61 1456h192zm744 1113v-10h-153l-150 170-149-170H622v12l246 272h112z"/><glyph glyph-name="wcircumflex" unicode="ŵ" horiz-adv-x="1539" d="M1098 255l208 827h185L1176 0h-150L763 820 507 0H357L43 1082h184l213-810 252 810h149zm-32 1007v-10H913l-150 170-149-170H461v12l246 272h112z"/><glyph glyph-name="Ycircumflex" unicode="Ŷ" horiz-adv-x="1230" d="M613 725l380 731h218L709 543V0H517v543L15 1456h220zm307 847v-10H767l-150 170-149-170H315v12l246 272h112z"/><glyph glyph-name="ycircumflex" unicode="ŷ" horiz-adv-x="969" d="M494 271l252 811.001h198l-435-1249c-67.333-180-174.333-270-321-270l-35 3-69 13v150l50-4c62.667 0 111.5 12.667 146.5 38S344.333-165.333 367-98l41 110L22 1082h202zm317 991v-10H658l-150 170-149-170H206v12l246 272h112z"/><glyph glyph-name="Ydieresis" unicode="Ÿ" horiz-adv-x="1230" d="M613 725l380 731h218L709 543V0H517v543L15 1456h220zm-318 956c0 30 9.167 55.167 27.5 75.5S368 1787 404 1787s63.333-10.167 82-30.5 28-45.5 28-75.5-9.333-55-28-75-46-30-82-30-63.167 10-81.5 30-27.5 45-27.5 75zm430-2c0 30 9.167 55.333 27.5 76s45.5 31 81.5 31 63.333-10.333 82-31 28-46 28-76-9.333-55-28-75-46-30-82-30-63.167 10-81.5 30-27.5 45-27.5 75z"/><glyph glyph-name="Zacute" unicode="Ź" horiz-adv-x="1226" d="M313 157h833V0H86v144l798 1154H99v158h1015v-141zm394 1689h224l-268-294H514z"/><glyph glyph-name="zacute" unicode="ź" horiz-adv-x="1015" d="M314 151h633V0H88v136l597 793H97v153h820V951zm291 1385h224l-268-294H412z"/><glyph glyph-name="Zdotaccent" unicode="Ż" horiz-adv-x="1226" d="M313 157h833V0H86v144l798 1154H99v158h1015v-141zm194 1520c0 30 9.167 55.333 27.5 76s45.5 31 81.5 31 63.333-10.333 82-31 28-46 28-76-9.333-55-28-75-46-30-82-30-63.167 10-81.5 30-27.5 45-27.5 75z"/><glyph glyph-name="zdotaccent" unicode="ż" horiz-adv-x="1015" d="M314 151h633V0H88v136l597 793H97v153h820V951zm91 1216c0 30 9.167 55.333 27.5 76s45.5 31 81.5 31 63.333-10.333 82-31 28-46 28-76-9.333-55-28-75-46-30-82-30-63.167 10-81.5 30-27.5 45-27.5 75z"/><glyph glyph-name="Zcaron" unicode="Ž" horiz-adv-x="1226" d="M313 157h833V0H86v144l798 1154H99v158h1015v-141zm302 1519l150 170h160v-10l-254-274H558l-251 274v10h157z"/><glyph glyph-name="zcaron" unicode="ž" horiz-adv-x="1015" d="M314 151h633V0H88v136l597 793H97v153h820V951zm199 1215l150 170h160v-10l-254-274H456l-251 274v10h157z"/><glyph glyph-name="longs" unicode="ſ" horiz-adv-x="508" d="M160 0l-.001 1198c.667 112.667 30.334 200.667 89.001 264s142 95 250 95c39.333 0 87-7 143-21l-23-142c-26.667 7.333-57 11-91 11-122 0-183-73.667-183-221V0H160z"/><glyph glyph-name="uni018F" unicode="Ə" horiz-adv-x="1415" d="M697-20c-190 0-338.168 57.5-444.501 172.5S92.999 433.333 92.999 650v117h1012v7c0 172-40.667 305.333-122 400S787.333 1316 640 1316c-110 0-211.333-19.333-304-58l-61-26-47 143 22 13c105.333 58.667 235.333 88 390 88 201.333 0 361.333-62.833 480-188.5s178-300.167 178-523.5v-84c0-131.333-26-250.5-78-357.5S1095.667 131.667 1003 71 808.333-20 697-20zm-.001 158C809.666 138 903 181.5 977 268.5S1093 472 1103 618H286v-34c0-145.333 35.167-256 105.5-332s172.166-114 305.499-114z"/><glyph glyph-name="florin" unicode="ƒ" horiz-adv-x="697" d="M608 939H405.002V-87c0-111.333-28-197.5-84-258.5s-135.333-91.5-238-91.5c-40.667 0-77.667 6-111 18l14 147c20-8.667 52.333-13 97-13 43.333 0 76.833 17.333 100.5 52s35.5 82.667 35.5 144V939h-171v143h171v120c1.333 111.333 31.166 198.333 89.499 261s141.166 94 248.499 94c39.333 0 87-7 143-21l-22-147c-25.333 6.667-58 10-98 10-114 0-172.333-65-175-195v-122h203V939z"/><glyph glyph-name="Ohorn" unicode="Ơ" horiz-adv-x="1406" d="M1272 681c0-142.667-23.999-267.168-71.999-373.501s-116-187.5-204-243.5-190.667-84-308-84c-114 0-215.333 28-304 84s-157.834 137-207.501 243-74.834 228-75.501 366v100c0 140 24.333 263.5 73 370.5s117.5 189.167 206.5 246.5 190.833 86 305.5 86c160 0 291.667-51.667 395-155 64 4.667 111.5 28.834 142.5 72.501s46.5 109.5 46.5 197.5h167c0-222-87.667-353.333-263-394 64.667-114.667 97.334-254 98.001-418v-98zm-190 93.999c0 172-34.499 304.333-103.499 397s-166.5 139-292.5 139c-121.333 0-216.833-46.167-286.5-138.5s-105.5-220.5-107.5-384.5v-107c0-167.333 35.167-298.833 105.5-394.5s167.166-143.5 290.499-143.5c127.333 0 224.833 47 292.5 141s101.5 226.667 101.5 398v93z"/><glyph glyph-name="ohorn" unicode="ơ" horiz-adv-x="1170" d="M91 551c0 106 20.501 201.172 61.501 285.505s99 149.666 174 195.999 160.167 69.5 255.5 69.5c138 0 252.333-46 343-138 47.333 5.333 81.666 24.666 102.999 57.999s32 92.666 32 177.999h150c0-194-69-308-207-342 48.667-92 73-194.333 73-307v-22c0-105.333-20.667-200.333-62-285S914.667 94.168 840 48.501s-160-68.5-256-68.5c-148 0-267.167 51.167-357.5 153.5S91 370.667 91 538v13zm185.001-21.995c0-120 27.832-216.334 83.499-289.001s130.5-109 224.5-109c92.667 0 166.834 36.5 222.501 109.5s83.5 171.167 83.5 294.5v16c0 120.667-28.167 217.334-84.5 290.001s-130.833 109-223.5 109c-92 0-166-36.333-222-109s-84-176.667-84-312z"/><glyph glyph-name="Uhorn" unicode="Ư" horiz-adv-x="1424" d="M1194 1456l-.001-212.999c76.667 7.333 131.167 33.833 163.5 79.5s48.5 117.5 48.5 215.5h159c0-140-29.5-244.833-88.5-314.5s-153.167-108.5-282.5-116.5v-642c-.667-132.667-41.667-242.334-123-329.001s-192.333-137.334-333-152.001l-73-4c-159.333 0-286.333 43-381 129s-142.667 204.333-144 355v992h190v-986c0-105.333 29-187.166 87-245.499s140.667-87.5 248-87.5c108.667 0 191.834 29 249.501 87s86.5 139.667 86.5 245v987h193z"/><glyph glyph-name="uhorn" unicode="ư" horiz-adv-x="1267" d="M1295 1168c0-120-24.502-204.5-73.502-253.5s-126.833-74.833-233.5-77.5V0h-176l-4 107c-72-84.667-177.667-127-317-127-115.333 0-203.166 33.5-263.499 100.5s-90.833 166.167-91.5 297.5v704h185V383c0-164 66.667-246 200-246 141.333 0 235.333 52.667 282 158v787h185V951c45.333 1.333 79.333 7.833 102 19.5s38.834 29.5 48.501 53.5 14.5 72 14.5 144h142z"/><glyph glyph-name="uni01F0" unicode="ǰ" horiz-adv-x="515" d="M357 1082V-89c0-113.333-28.333-199.666-85-258.999s-135.667-89-237-89c-39.333 0-76.333 6-111 18l14 147c20-8.667 52.333-13 97-13 43.333 0 77 17.333 101 52s36 82.667 36 144v1171h185zm-92 244l150 170h160v-10l-254-274H208l-251 274v10h157z"/><glyph glyph-name="Aringacute" unicode="Ǻ" d="M973 380H363L226 0H28l556 1456h168L1309 0h-197zM421 538h495l-248 681zm358 1402h189l-220-184H634zm-275-399c0 46.667 16.667 86.167 50 118.5s74 48.5 122 48.5c45.333 0 84.5-15.667 117.5-47s49.5-71.333 49.5-120c0-47.333-16.167-86.333-48.5-117s-71.833-46-118.5-46c-48 0-88.667 15.667-122 47s-50 70-50 116zm85 0c0-23.333 8.501-43.333 25.501-60s37.5-25 61.5-25c23.333 0 43 8.167 59 24.5s24 36.5 24 60.5c0 25.333-8 46.333-24 63s-35.667 25-59 25c-24.667 0-45.334-8.667-62.001-26s-25-38-25-62z"/><glyph glyph-name="aringacute" unicode="ǻ" horiz-adv-x="1114" d="M808 0c-10.667 21.333-19.336 59.332-26.003 113.999-86-89.333-188.667-134-308-134-106.667 0-194.167 30.167-262.5 90.5s-102.5 136.833-102.5 229.5c0 112.667 42.833 200.167 128.5 262.5s206.167 93.5 361.5 93.5h180v85c0 64.667-19.333 116.167-58 154.5s-95.667 57.5-171 57.5c-66 0-121.333-16.667-166-50s-67-73.666-67-120.999h-186c0 54 19.167 106.167 57.5 156.5s90.333 90.166 156 119.499 137.834 44 216.501 44c124.667 0 222.334-31.167 293.001-93.5S961.333 860.333 964 751V253c0-99.333 12.667-178.333 38-237V0H808zM500.998 140.999c58 0 112.999 15 164.999 45s89.667 69 113 117v222h-145c-226.667 0-340-66.333-340-199 0-58 19.333-103.333 58-136s88.334-49 149.001-49zM687.997 1631h189l-220-184h-114zm-275-399c0 46.667 16.667 86.167 50 118.5s74 48.5 122 48.5c45.333 0 84.5-15.667 117.5-47s49.5-71.333 49.5-120c0-47.333-16.167-86.333-48.5-117s-71.833-46-118.5-46c-48 0-88.667 15.667-122 47s-50 70-50 116zm85 0c0-23.333 8.501-43.333 25.501-60s37.5-25 61.5-25c23.333 0 43 8.167 59 24.5s24 36.5 24 60.5c0 25.333-8 46.333-24 63s-35.667 25-59 25c-24.667 0-45.334-8.667-62.001-26s-25-38-25-62z"/><glyph glyph-name="AEacute" unicode="Ǽ" horiz-adv-x="1914" d="M1879 0H996l-15 353H417L212 0H-14l880 1456h951v-152h-691l20-471h590V682h-584l22-531h705V0zM518 527h456l-31 733zm511 1331h224l-268-294H836z"/><glyph glyph-name="aeacute" unicode="ǽ" horiz-adv-x="1729" d="M1262-20c-174 0-306.337 59.999-397.004 179.999C821.663 102.666 762.33 58.333 686.997 27s-160-47-254-47c-111.333 0-198.333 28.833-261 86.5s-94 136.834-94 237.501c0 104.667 37.833 186 113.5 244s187.167 87 334.5 87h223v85c0 71.333-18.333 127.5-55 168.5s-89.667 61.5-159 61.5c-70 0-128.333-18.333-175-55s-70-82-70-136l-184 19c0 95.333 40.333 173.166 121 233.499s183.334 90.5 308.001 90.5c76.667 0 144.334-13.833 203.001-41.5s104.667-69.167 138-124.5c42 52.667 92 93.5 150 122.5s122 43.5 192 43.5c140 0 248.667-42.833 326-128.5s116-206.167 116-361.5V497h-728c4.667-117.333 36-207.833 94-271.5s136.667-95.5 236-95.5c98.667 0 188.334 25.333 269.001 76l47 31 64-136c-105.333-80.667-232-121-380-121zM468.996 129.999c48 0 98.333 12.333 151 37s95.667 55 129 91v237h-228c-78-1.333-140.333-20.333-187-57s-70-82.667-70-138c0-51.333 17.667-92.5 53-123.5s86-46.5 152-46.5zm749.004 820c-76.667 0-139.833-28.5-189.5-85.5s-80.167-131.833-91.5-224.5h538v31c0 88-22.333 156.5-67 205.5s-108 73.5-190 73.5zM949.997 1537h224l-268-294h-149z"/><glyph glyph-name="Oslashacute" unicode="Ǿ" horiz-adv-x="1408" d="M1289 681c0-142.667-24-267.167-72-373.5S1101 120 1013 64 822.333-20 705-20C591-20 490.333 7.333 403 62L306-93H164l144 231C181.333 266 118 450 118 690v83c0 140 24.333 263.667 73 371s117.5 189.5 206.5 246.5S588.333 1476 703 1476c142.667 0 263.334-41.667 362.001-125l103 165h141l-159-255c91.333-124.667 137.666-285 138.999-481v-99zm-980 0c0-162.667 32.667-291 98-385l564 904c-68 74-157.333 111-268 111-121.333 0-216.833-46.167-286.5-138.5S311 952 309 788V681zm789 94c0 121.333-18.668 225.667-56.001 313l-549-881c60.667-42.667 131.334-64 212.001-64 124 0 220 45.167 288 135.5s103 219.833 105 388.5v108zM804.999 1920h224l-268-294h-149z"/><glyph glyph-name="oslashacute" unicode="ǿ" horiz-adv-x="1160" d="M91 551c0 106 20.499 201.169 61.499 285.502s99 149.666 174 195.999 160.167 69.5 255.5 69.5c73.333 0 141.333-14 204-42l73 148h124l-102-205c130-102.667 195-260.667 195-474 0-105.333-20.667-200.333-62-285s-99.333-149.834-174-195.501-160-68.5-256-68.5C514.666-20 451.333-8.333 394 15l-74-149H196L296 69C159.333 168.333 91 329 91 551zm184.999-21.998c0-129.333 32.333-231 97-305l343 694c-41.333 21.333-86 32-134 32-92 0-166-36.333-222-109s-84-176.667-84-312zm614 22c0 121.333-29.001 219-87.001 293l-340-688c36.667-16.667 77-25 121-25 92.667 0 166.834 36.5 222.501 109.5s83.5 171.167 83.5 294.5v16zM626.998 1536h224l-268-294h-149z"/><glyph glyph-name="Scommaaccent" unicode="Ș" horiz-adv-x="1215" d="M598 649c-164.667 47.333-284.501 105.5-359.501 174.5s-112.5 154.167-112.5 255.5c0 114.667 45.833 209.5 137.5 284.5S474.333 1476 621 1476c100 0 189.167-19.333 267.5-58s139-92 182-160 64.5-142.333 64.5-223H942c0 88-28 157.167-84 207.5S723 1318 621 1318c-94.667 0-168.5-20.833-221.5-62.5S320 1156 320 1082c0-59.333 25.167-109.5 75.5-150.5s136-78.5 257-112.5 215.667-71.5 284-112.5 119-88.833 152-143.5 49.5-119 49.5-193c0-118-46-212.5-138-283.5S785-20 631-20C531-20 437.667-.833 351 37.5S197.5 128.333 150.5 195 80 337.334 80 422.001h193c0-88 32.5-157.5 97.5-208.5s151.833-76.5 260.5-76.5c101.333 0 179 20.667 233 62S945 296.667 945 368s-25 126.5-75 165.5S729.333 611 598 649zM569.999-513l-105 72c48 72.667 72.667 151.334 74 236.001v92h177v-76c0-60.667-13.167-120.834-39.5-180.501S614.666-477 569.999-513z"/><glyph glyph-name="scommaaccent" unicode="ș" horiz-adv-x="1056" d="M770 287c0 50-18.828 88.835-56.495 116.502s-103.334 51.5-197.001 71.5-168 44-223 72-95.667 61.333-122 100-39.5 84.667-39.5 138c0 88.667 37.5 163.667 112.5 225s170.833 92 287.5 92c122.667 0 222.167-31.667 298.5-95s114.5-144.333 114.5-243h-186c0 50.667-21.5 94.334-64.5 131.001s-97.167 55-162.5 55c-67.333 0-120-14.667-158-44s-57-67.666-57-114.999c0-44.667 17.667-78.334 53-101.001s99.166-44.334 191.499-65.001 167.166-45.334 224.499-74.001 99.833-63.167 127.5-103.5 41.5-89.5 41.5-147.5c0-96.667-38.667-174.167-116-232.5s-177.666-87.5-301-87.5c-86.666 0-163.333 15.333-230 46s-118.834 73.5-156.501 128.5-56.5 114.5-56.5 178.5h185c3.333-62 28.166-111.167 74.499-147.5s107.5-54.5 183.5-54.5c70 0 126.167 14.167 168.5 42.5S770 239.667 770 287zM504.005-521.998l-105 72c48 72.667 72.667 151.334 74 236.001v92h177v-76c0-60.667-13.167-120.834-39.5-180.501s-61.833-107.5-106.5-143.5z"/><glyph glyph-name="uni021A" unicode="Ț" horiz-adv-x="1222" d="M1175 1298H707V0H516v1298H49v158h1126v-158zM555-513l-105 72c48 72.667 72.667 151.334 74 236.001v92h177v-76c0-60.667-13.167-120.834-39.5-180.501S599.667-477 555-513z"/><glyph glyph-name="uni021B" unicode="ț" horiz-adv-x="669" d="M391 1344l.001-262h202V939h-202V268c0-43.333 9-75.833 27-97.5s48.667-32.5 92-32.5c21.333 0 50.666 4 87.999 12V0c-48.667-13.333-96-20-142-20-82.667 0-145 25-187 75s-63 121-63 213v671H9v143h197v262h185zm3.001-1857l-105 72c48 72.667 72.667 151.334 74 236.001v92h177v-76c0-60.667-13.167-120.834-39.5-180.501S438.668-477 394.001-513z"/><glyph glyph-name="uni0237" unicode="ȷ" horiz-adv-x="515" d="M357 1082V-89c0-113.333-28.333-199.666-85-258.999s-135.667-89-237-89c-39.333 0-76.333 6-111 18l14 147c20-8.667 52.333-13 97-13 43.333 0 77 17.333 101 52s36 82.667 36 144v1171h185z"/><glyph glyph-name="uni0259" unicode="ə" horiz-adv-x="1079" d="M511 1103c146.667 0 265.004-50 355.004-150s135-233 135-399v-36c0-99.333-20.667-190.333-62-273s-98-147.5-170-194.5-148.667-70.167-230-69.5C400.337-19 292.17 23.333 214.503 108s-116.5 204.667-116.5 360v116h717c-4.667 112-33.834 201.333-87.501 268S601.668 952 511.001 952c-124 0-227-36-309-108l-73 125c93.333 89.333 220.666 134 381.999 134zm28.004-971c65.333 0 123.166 27.333 173.499 82s82.5 127.667 96.5 219h-525v-26c0-83.333 22.833-150 68.5-200s107.834-75 186.501-75z"/><glyph glyph-name="afii57929" unicode="ʼ" horiz-adv-x="409" d="M153 1046l-105 72c62 86.667 94 178 96 274v144h183v-130c-.667-66.667-17.167-133.167-49.5-199.5S203.667 1086.667 153 1046z"/><glyph glyph-name="circumflex" unicode="ˆ" horiz-adv-x="964" d="M774 1262v-10H621l-150 170-149-170H169v12l246 272h112z"/><glyph glyph-name="caron" unicode="ˇ" horiz-adv-x="909" d="M449 1365l150 170h160v-10l-254-274H392l-251 274v10h157z"/><glyph glyph-name="uni02C9" unicode="ˉ" horiz-adv-x="939" d="M814 1302H142v143h672v-143z"/><glyph glyph-name="breve" unicode="˘" horiz-adv-x="874" d="M728 1495c0-80.667-27.501-145.5-82.501-194.5s-127.167-73.5-216.5-73.5-161.666 24.667-216.999 74-83 114-83 194h151c0-46.667 12.667-83.167 38-109.5s62.333-39.5 111-39.5c46.667 0 83.167 13 109.5 39s39.5 62.667 39.5 110h150z"/><glyph glyph-name="dotaccent" unicode="˙" horiz-adv-x="497" d="M141 1367c0 30 9.167 55.333 27.5 76s45.5 31 81.5 31 63.333-10.333 82-31 28-46 28-76-9.333-55-28-75-46-30-82-30-63.167 10-81.5 30-27.5 45-27.5 75z"/><glyph glyph-name="ring" unicode="˚" horiz-adv-x="685" d="M551 1408c0-58-20.667-106.499-62-145.499s-92.333-58.5-153-58.5c-61.333 0-112.5 19.667-153.5 59S121 1350.667 121 1408s20.5 106.333 61.5 147 92.167 61 153.5 61 112.5-20.333 153.5-61 61.5-89.667 61.5-147zm-331 0c0-31.333 11.167-58.333 33.5-81s49.833-34 82.5-34c32 0 59.333 11 82 33s34 49.333 34 82-11.167 60.5-33.5 83.5-49.833 34.5-82.5 34.5c-33.333 0-61-11.667-83-35s-33-51-33-83z"/><glyph glyph-name="ogonek" unicode="˛" horiz-adv-x="554" d="M382 0l-58.001-44.998c-75.333-60.667-113-119.667-113-177 0-48 26-72 78-72 32 0 65.333 8.667 100 26l13-121c-46.667-29.333-100-44-160-44-59.333 0-106.166 17.333-140.499 52s-51.5 80.667-51.5 138c0 59.333 22.333 114.666 67 165.999S225 18.667 307 56z"/><glyph glyph-name="tilde" unicode="˜" horiz-adv-x="966" d="M830 1500c0-72-20.502-130.334-61.502-175.001s-92.167-67-153.5-67c-27.333 0-51 3.333-71 10s-46.167 20.334-78.5 41.001-55.666 33.167-69.999 37.5-30.833 6.5-49.5 6.5c-27.333 0-50.666-10.5-69.999-31.5s-29-47.833-29-80.5l-124 7c0 71.333 20.167 130.333 60.5 177s91.5 70 153.5 70c23.333 0 44.333-3.333 63-10s44-19.667 76-39 56.5-32 73.5-38 35.833-9 56.5-9c28.667 0 52.5 11.333 71.5 34s28.5 49 28.5 79z"/><glyph glyph-name="hungarumlaut" unicode="˝" horiz-adv-x="764" d="M605 1535h207l-269-303H374zm-340 0h197l-218-303H94z"/><glyph glyph-name="uni02F3" unicode="˳" horiz-adv-x="602" d="M126-242c0 46.667 16.669 86.167 50.002 118.5S250.668-75 300.001-75c47.333 0 87.333-16 120-48s49-71.667 49-119c0-46.667-16-85.5-48-116.5s-72.333-46.5-121-46.5c-50.667 0-92.334 15.667-125.001 47s-49 70-49 116zm87.002 0c0-23.333 8.669-43 26.002-59s37.666-24 60.999-24 43 8 59 24 24 35.667 24 59c0 24-8 44.333-24 61s-35.667 25-59 25c-24.667 0-45.334-8.667-62.001-26s-25-37.333-25-60z"/><glyph glyph-name="gravecomb" unicode="̀" horiz-adv-x="0" d="M-440 1242h-159l-258 294h224z"/><glyph glyph-name="acutecomb" unicode="́" horiz-adv-x="0" d="M-464 1536h224l-268-294h-149z"/><glyph glyph-name="tildecomb" unicode="̃" horiz-adv-x="0" d="M-178 1500c0-72-20.502-130.334-61.502-175.001s-92.167-67-153.5-67c-27.333 0-51 3.333-71 10s-46.167 20.334-78.5 41.001-55.666 33.167-69.999 37.5-30.833 6.5-49.5 6.5c-27.333 0-50.666-10.5-69.999-31.5s-29-47.833-29-80.5l-124 7c0 71.333 20.167 130.333 60.5 177s91.5 70 153.5 70c23.333 0 44.333-3.333 63-10s44-19.667 76-39 56.5-32 73.5-38 35.833-9 56.5-9c28.667 0 52.5 11.333 71.5 34s28.5 49 28.5 79z"/><glyph glyph-name="hookabovecomb" unicode="̉" horiz-adv-x="0" d="M-652 1241l-.999 153.001c50 3.333 86.667 10 110 20s35 28 35 54-15.167 45.5-45.5 58.5-70.5 19.5-120.5 19.5l7 106c99.333 0 174.666-17.167 225.999-51.5s77-79.833 77-136.5c0-40.667-13-74.334-39-101.001s-64.667-43.667-116-51l-1-71h-132z"/><glyph glyph-name="uni030F" unicode="̏" horiz-adv-x="0" d="M-510 1252h-169l-306 266h225zm261 0h-150l-246 266h206z"/><glyph glyph-name="dotbelowcomb" unicode="̣" horiz-adv-x="0" d="M-712-245c0 30 9.167 55.333 27.5 76s45.5 31 81.5 31 63.333-10.333 82-31 28-46 28-76-9.333-55-28-75-46-30-82-30-63.167 10-81.5 30-27.5 45-27.5 75z"/><glyph glyph-name="tonos" unicode="΄" horiz-adv-x="525" d="M237 1599h174l-116-337H183z"/><glyph glyph-name="dieresistonos" unicode="΅" horiz-adv-x="1035" d="M481 1672h188l-101-264H433zm-368-301c0 30 9.167 55.167 27.5 75.5S186 1477 222 1477s63.333-10.167 82-30.5 28-45.5 28-75.5-9.333-55-28-75-46-30-82-30-63.167 10-81.5 30-27.5 45-27.5 75zm567-2c0 30 9.167 55.333 27.5 76s45.5 31 81.5 31 63.333-10.333 82-31 28-46 28-76-9.333-55-28-75-46-30-82-30-63.167 10-81.5 30-27.5 45-27.5 75z"/><glyph glyph-name="Alphatonos" unicode="Ά" d="M973 380H363L226 0H28l556 1456h168L1309 0h-197zM421 538h495l-248 681zM241 1599h174l-116-337H187z"/><glyph glyph-name="anoteleia" unicode="·" horiz-adv-x="535" d="M147 729c0 32 9.5 58.667 28.5 80s47.5 32 85.5 32 66.833-10.667 86.5-32 29.5-48 29.5-80c0-31.333-9.833-57.5-29.5-78.5S299 619 261 619s-66.5 10.5-85.5 31.5S147 697.667 147 729z"/><glyph glyph-name="Epsilontonos" unicode="Έ" horiz-adv-x="1164" d="M992 673H361V157h733V0H169v1456h915v-158H361V830h631V673zm-1153 926H13l-116-337h-112z"/><glyph glyph-name="Etatonos" unicode="Ή" horiz-adv-x="1460" d="M1288 0h-193v673H361V0H169v1456h192V830h734v626h193V0zM-147 1601H27l-116-337h-112z"/><glyph glyph-name="Iotatonos" unicode="Ί" horiz-adv-x="557" d="M375 0H183v1456h192V0zm-516 1600H33l-116-337h-112z"/><glyph glyph-name="Omicrontonos" unicode="Ό" horiz-adv-x="1428" d="M1309 681c0-142.667-23.999-267.165-71.999-373.498s-116-187.5-204-243.5-190.667-84-308-84c-114.667 0-216.334 28.167-305.001 84.5S262.5 201.168 213.5 305.501 139.333 530.667 138 668v105c0 140 24.333 263.667 73 371s117.5 189.5 206.5 246.5S608.333 1476 723 1476c116.667 0 219.5-28.167 308.5-84.5s157.5-138 205.5-245 72-231.5 72-373.5v-92zm-191 94.002c0 172.667-34.666 305.167-103.999 397.5s-166.333 138.5-291 138.5c-121.333 0-216.833-46.167-286.5-138.5s-105.5-220.5-107.5-384.5v-107c0-167.333 35.167-298.833 105.5-394.5s167.166-143.5 290.499-143.5c124 0 220 45.167 288 135.5s103 219.833 105 388.5v108zM28.002 1599h174l-116-337h-112z"/><glyph glyph-name="Upsilontonos" unicode="Ύ" horiz-adv-x="1330" d="M713 725l380 731h218L809 543V0H617v543l-502 913h220zm-895 874H-8l-116-337h-112z"/><glyph glyph-name="Omegatonos" unicode="Ώ" horiz-adv-x="1382" d="M757 162c92 18 163.669 74.334 215.002 169.001s78 220 80 376v134c0 154-32.333 272-97 354s-153.334 123-266.001 123-201-41.667-265-125-96-201.333-96-354v-113c0-160 26.167-289.333 78.5-388S533.334 180.667 630.001 162V0h-492v157h221c-70.667 68-126 153.167-166 255.5s-60 207.5-60 315.5v111c0 124 23.5 234.667 70.5 332s112.833 172.5 197.5 225.5 180.667 79.5 288 79.5c106.667 0 202.167-26 286.5-78s150.166-125.333 197.499-220 72-202 74-322V726c0-106.667-20-211.167-60-313.5S1091.667 225 1021 157h220V0H757v162zM31.002 1599h174l-116-337h-112z"/><glyph glyph-name="iotadieresistonos" unicode="ΐ" horiz-adv-x="663" d="M380 1082l.001-809c0-42 9.167-73.667 27.5-95s48.833-32 91.5-32c32 0 61 4 87 12l1-151C540.334-5.667 492.667-12 444-12c-166 0-249 98-249 294v800h185zm-112.999 570h188l-101-264h-135zm-368-301c0 30 9.167 55.167 27.5 75.5s45.5 30.5 81.5 30.5 63.333-10.167 82-30.5 28-45.5 28-75.5-9.333-55-28-75-46-30-82-30-63.167 10-81.5 30-27.5 45-27.5 75zm567-2c0 30 9.167 55.333 27.5 76s45.5 31 81.5 31 63.333-10.333 82-31 28-46 28-76-9.333-55-28-75-46-30-82-30-63.167 10-81.5 30-27.5 45-27.5 75z"/><glyph glyph-name="Alpha" unicode="Α" d="M973 380H363L226 0H28l556 1456h168L1309 0h-197zM421 538h495l-248 681z"/><glyph glyph-name="Beta" unicode="Β" horiz-adv-x="1275" d="M169 0l.001 1456h476c158 0 276.833-32.667 356.5-98s119.5-162 119.5-290c0-68-19.333-128.167-58-180.5S971.667 794.667 905 766c78.667-22 140.834-63.833 186.501-125.5s68.5-135.167 68.5-220.5c0-130.667-42.333-233.334-127-308.001S828.667-.001 674-.001H169zm192.001 681.001V157.002h317c89.333 0 159.833 23.167 211.5 69.5s77.5 110.166 77.5 191.499c0 175.333-95.333 263-286 263h-320zm0 154.001h290c84 0 151.167 21 201.5 63s75.5 99 75.5 171c0 80-23.333 138.167-70 174.5s-117.667 54.5-213 54.5h-284v-463z"/><glyph glyph-name="Gamma" unicode="Γ" horiz-adv-x="1139" d="M1072 1298H370V0H177v1456h895v-158z"/><glyph glyph-name="uni2206" unicode="Δ" horiz-adv-x="1444" d="M646 1456h170L1395 0H31zM293 157h844L728 1221z"/><glyph glyph-name="uni2206" unicode="∆" horiz-adv-x="1444" d="M646 1456h170L1395 0H31zM293 157h844L728 1221z"/><glyph glyph-name="Epsilon" unicode="Ε" horiz-adv-x="1164" d="M992 673H361V157h733V0H169v1456h915v-158H361V830h631V673z"/><glyph glyph-name="Zeta" unicode="Ζ" horiz-adv-x="1226" d="M313 157h833V0H86v144l798 1154H99v158h1015v-141z"/><glyph glyph-name="Eta" unicode="Η" horiz-adv-x="1460" d="M1288 0h-193v673H361V0H169v1456h192V830h734v626h193V0z"/><glyph glyph-name="Theta" unicode="Θ" horiz-adv-x="1393" d="M960 659H443v152h517V659zm314 22c0-142-23.831-265.998-71.498-371.998s-115.5-187.333-203.5-244-191-85-309-85c-114.667 0-216.334 28.167-305.001 84.5s-157.5 136.666-206.5 240.999-74.167 225.166-75.5 362.499v105c0 140 24.333 263.667 73 371s117.5 189.5 206.5 246.5 190.833 85.5 305.5 85.5c116.667 0 219-28 307-84s156.167-136.5 204.5-241.5S1272.667 924 1274 786V681zm-191 94.002c0 172.667-34.668 305.167-104.001 397.5s-166.333 138.5-291 138.5c-121.333 0-216.833-46.167-286.5-138.5s-105.5-220.5-107.5-384.5v-107c0-166.667 34.833-298 104.5-394s166.834-144 291.501-144c124 0 220 45.167 288 135.5s103 219.833 105 388.5v108z"/><glyph glyph-name="Iota" unicode="Ι" horiz-adv-x="557" d="M375 0H183v1456h192V0z"/><glyph glyph-name="Kappa" unicode="Κ" horiz-adv-x="1284" d="M539 677L361 492V0H169v1456h192V736l647 720h232L667 813 1285 0h-230z"/><glyph glyph-name="Lambda" unicode="Λ" horiz-adv-x="1342" d="M666 1161L256 0H50l530 1456h172L1283 0h-207z"/><glyph glyph-name="Mu" unicode="Μ" horiz-adv-x="1788" d="M417 1456L893 268l476 1188h249V0h-192v567l18 612L966 0H819L342 1176l19-609V0H169v1456h248z"/><glyph glyph-name="Nu" unicode="Ν" horiz-adv-x="1460" d="M1288 0h-193L362 1122V0H169v1456h193l735-1127v1127h191V0z"/><glyph glyph-name="Xi" unicode="Ξ" horiz-adv-x="1169" d="M120 157h937V0H120v157zm87 674h754V674H207v157zm-83 625h916v-158H124v158z"/><glyph glyph-name="Omicron" unicode="Ο" horiz-adv-x="1408" d="M1289 681c0-142.667-23.999-267.165-71.999-373.498s-116-187.5-204-243.5-190.667-84-308-84c-114.667 0-216.334 28.167-305.001 84.5S242.5 201.168 193.5 305.501 119.333 530.667 118 668v105c0 140 24.333 263.667 73 371s117.5 189.5 206.5 246.5S588.333 1476 703 1476c116.667 0 219.5-28.167 308.5-84.5s157.5-138 205.5-245 72-231.5 72-373.5v-92zm-191 94.002c0 172.667-34.666 305.167-103.999 397.5s-166.333 138.5-291 138.5c-121.333 0-216.833-46.167-286.5-138.5s-105.5-220.5-107.5-384.5v-107c0-167.333 35.167-298.833 105.5-394.5s167.166-143.5 290.499-143.5c124 0 220 45.167 288 135.5s103 219.833 105 388.5v108z"/><glyph glyph-name="Pi" unicode="Π" horiz-adv-x="1461" d="M1281 0h-193v1298H370V0H178v1456h1103V0z"/><glyph glyph-name="Rho" unicode="Ρ" horiz-adv-x="1292" d="M361 570l.001-570.001h-192v1456h537c159.333 0 284.166-40.667 374.499-122s135.5-189 135.5-323c0-141.333-44.167-250.166-132.5-326.499S868.667 570 704 570H361zm.001 156.999L706 727c102.667 0 181.334 24.167 236.001 72.5s82 118.166 82 209.499c0 86.667-27.333 156-82 208s-129.667 79-225 81h-356v-571z"/><glyph glyph-name="Sigma" unicode="Σ" horiz-adv-x="1169" d="M754 718L309 157h783V0H69v143l481 586-481 583v144h974v-158H311l443-556v-24z"/><glyph glyph-name="Tau" unicode="Τ" horiz-adv-x="1222" d="M1175 1298H707V0H516v1298H49v158h1126v-158z"/><glyph glyph-name="Upsilon" unicode="Υ" horiz-adv-x="1230" d="M613 725l380 731h218L709 543V0H517v543L15 1456h220z"/><glyph glyph-name="Phi" unicode="Φ" horiz-adv-x="1467" d="M834 1271c107.333-2 203.833-26 289.5-72s152.5-110.667 200.5-194 72-177 72-281c0-105.333-23.833-199.666-71.5-282.999s-114-147.833-199-193.5S943.333 177.667 834 175V0H640v175c-167.333 2.667-303 54.5-407 155.5S77 562 77 722c0 98.667 20.833 187.667 62.5 267s101.167 143.333 178.5 192c92.667 58 200 88 322 90v185h194v-185zM268 722c0-122.667 32.332-217.332 96.999-283.999S521.333 336.667 640 334v777c-120-2.667-212-37.667-276-105s-96-162-96-284zm937 2.002c0 120.667-32.167 214.666-96.5 281.999s-155.833 102.333-274.5 105v-777c120 2.667 211.833 37.834 275.5 105.501s95.5 162.5 95.5 284.5z"/><glyph glyph-name="Chi" unicode="Χ" horiz-adv-x="1284" d="M644 898l349 558h226L759 734 1230 0h-228L644 568 284 0H57l472 734-461 722h225z"/><glyph glyph-name="Psi" unicode="Ψ" horiz-adv-x="1417" d="M790 523c104 15.333 185 58.836 243 130.503s87 164.167 87 277.5v525h193v-528c0-106-21.167-199.833-63.5-281.5s-103-147-182-196-171.5-78.5-277.5-88.5v-362H597v362c-154 15.333-276.5 72.666-367.5 171.999s-137.5 228-139.5 386v536h192v-529c.667-108.667 28.5-198.834 83.5-270.501S497.667 540.667 597 524v932h193V523z"/><glyph glyph-name="uni2126" unicode="Ω" horiz-adv-x="1362" d="M737 162c92 18 163.669 74.334 215.002 169.001s78 220 80 376v134c0 154-32.333 272-97 354s-153.334 123-266.001 123-201-41.667-265-125-96-201.333-96-354v-113c0-160 26.167-289.333 78.5-388S513.334 180.667 610.001 162V0h-492v157h221c-70.667 68-126 153.167-166 255.5s-60 207.5-60 315.5v111c0 124 23.5 234.667 70.5 332s112.833 172.5 197.5 225.5 180.667 79.5 288 79.5c106.667 0 202.167-26 286.5-78s150.166-125.333 197.499-220 72-202 74-322V726c0-106.667-20-211.167-60-313.5S1071.667 225 1001 157h220V0H737v162z"/><glyph glyph-name="uni2126" unicode="Ω" horiz-adv-x="1362" d="M737 162c92 18 163.669 74.334 215.002 169.001s78 220 80 376v134c0 154-32.333 272-97 354s-153.334 123-266.001 123-201-41.667-265-125-96-201.333-96-354v-113c0-160 26.167-289.333 78.5-388S513.334 180.667 610.001 162V0h-492v157h221c-70.667 68-126 153.167-166 255.5s-60 207.5-60 315.5v111c0 124 23.5 234.667 70.5 332s112.833 172.5 197.5 225.5 180.667 79.5 288 79.5c106.667 0 202.167-26 286.5-78s150.166-125.333 197.499-220 72-202 74-322V726c0-106.667-20-211.167-60-313.5S1071.667 225 1001 157h220V0H737v162z"/><glyph glyph-name="Iotadieresis" unicode="Ϊ" horiz-adv-x="557" d="M375 0H183v1456h192V0zM-43 1693c0 30 9.167 55.167 27.5 75.5S30 1799 66 1799s63.333-10.167 82-30.5 28-45.5 28-75.5-9.333-55-28-75-46-30-82-30-63.167 10-81.5 30-27.5 45-27.5 75zm430-2c0 30 9.167 55.333 27.5 76s45.5 31 81.5 31 63.333-10.333 82-31 28-46 28-76-9.333-55-28-75-46-30-82-30-63.167 10-81.5 30-27.5 45-27.5 75z"/><glyph glyph-name="Upsilondieresis" unicode="Ϋ" horiz-adv-x="1230" d="M613 725l380 731h218L709 543V0H517v543L15 1456h220zm-318 956c0 30 9.167 55.167 27.5 75.5S368 1787 404 1787s63.333-10.167 82-30.5 28-45.5 28-75.5-9.333-55-28-75-46-30-82-30-63.167 10-81.5 30-27.5 45-27.5 75zm430-2c0 30 9.167 55.333 27.5 76s45.5 31 81.5 31 63.333-10.333 82-31 28-46 28-76-9.333-55-28-75-46-30-82-30-63.167 10-81.5 30-27.5 45-27.5 75z"/><glyph glyph-name="alphatonos" unicode="ά" horiz-adv-x="1157" d="M1006 1082V285c1.333-93.333 28-140 80-140 12.667 0 24 1.667 34 5l23-137c-32-22.667-72.667-34-122-34-98 0-159.667 55-185 165C764.667 34 659.334-21 520.001-21c-128 0-230 47.167-306 141.5s-114 222.833-114 385.5v15c0 176 37.667 316.833 113 422.5s178.333 158.5 309 158.5c135.333 0 238.666-53.667 309.999-161l17 141h157zM285 500c0-116.667 24.333-207.499 73-272.499s118-97.5 208-97.5c115.333 0 200.333 62 255 186v446c-56.667 125.333-141 188-253 188-89.333 0-158.833-37.833-208.5-113.5S285 648.667 285 500zm325 1094h174l-116-337H556z"/><glyph glyph-name="epsilontonos" unicode="έ" horiz-adv-x="1104" d="M286 304c0-51.333 24.501-93.335 73.501-126.002s112.833-49 191.5-49c75.333 0 138.833 18.333 190.5 55s77.5 82 77.5 136h185c0-103.333-42.5-185.833-127.5-247.5s-193.5-92.5-325.5-92.5c-136 0-245.333 29.5-328 88.5s-124 137.5-124 235.5c0 124 68.333 208 205 252-58.667 24-104.334 56.333-137.001 97s-49 85.334-49 134.001c0 98.667 38.5 175.667 115.5 231s182.833 83 317.5 83c124 0 227.5-29.833 310.5-89.5S986 874.665 986 779.998H801c0 46.667-23.833 86.834-71.5 120.501s-107.167 50.5-178.5 50.5c-74.667 0-134.5-15.167-179.5-45.5S304 835.333 304 786c0-106.667 81.333-160 244-160h196V478H520c-156-4-234-62-234-174zm250.001 1289h174l-116-337h-112z"/><glyph glyph-name="etatonos" unicode="ή" horiz-adv-x="1160" d="M312 1082l10.999-136c80 104 186.667 156 320 156 126.667 0 219-32.833 277-98.5s87.333-166.5 88-302.5V-415h-185V690c0 90.667-18 156.667-54 198s-96.667 62-182 62c-61.333 0-113.666-14.5-156.999-43.5S353.667 837 331 785V0H145v1082h167zm250.999 512h174l-116-337h-112z"/><glyph glyph-name="iotatonos" unicode="ί" horiz-adv-x="663" d="M380 1082l.001-809c0-42 9.167-73.667 27.5-95s48.833-32 91.5-32c32 0 61 4 87 12l1-151C540.334-5.667 492.667-12 444-12c-166 0-249 98-249 294v800h185zm-100.999 491h174l-116-337h-112z"/><glyph glyph-name="upsilondieresistonos" unicode="ΰ" horiz-adv-x="1117" d="M329 1082V435c0-203.333 67-305 201-305 86 0 157.333 41.667 214 125s85 185.666 85 306.999c-3.333 154-44.333 327.333-123 520h195c75.333-160.667 113-334 113-520 0-175.333-42.833-316.166-128.5-422.499S684.333-20 539-20C409.667-20 311.667 17.333 245 92S144.333 275.667 143 419v663h186zm185 570h188l-101-264H466zm-368-301c0 30 9.167 55.167 27.5 75.5S219 1457 255 1457s63.333-10.167 82-30.5 28-45.5 28-75.5-9.333-55-28-75-46-30-82-30-63.167 10-81.5 30-27.5 45-27.5 75zm567-2c0 30 9.167 55.333 27.5 76s45.5 31 81.5 31 63.333-10.333 82-31 28-46 28-76-9.333-55-28-75-46-30-82-30-63.167 10-81.5 30-27.5 45-27.5 75z"/><glyph glyph-name="alpha" unicode="α" horiz-adv-x="1157" d="M1006 1082V285c1.333-93.333 28-140 80-140 12.667 0 24 1.667 34 5l23-137c-32-22.667-72.667-34-122-34-98 0-159.667 55-185 165C764.667 34 659.334-21 520.001-21c-128 0-230 47.167-306 141.5s-114 222.833-114 385.5v15c0 176 37.667 316.833 113 422.5s178.333 158.5 309 158.5c135.333 0 238.666-53.667 309.999-161l17 141h157zM285 500c0-116.667 24.333-207.499 73-272.499s118-97.5 208-97.5c115.333 0 200.333 62 255 186v446c-56.667 125.333-141 188-253 188-89.333 0-158.833-37.833-208.5-113.5S285 648.667 285 500z"/><glyph glyph-name="beta" unicode="β" horiz-adv-x="1213" d="M605 1476c128.667 0 232.168-36.498 310.501-109.498s117.5-167.5 117.5-283.5c0-60.667-16.333-116.334-49-167.001S905.667 824.667 847 794c82-30 144.833-77.5 188.5-142.5S1101 510.667 1101 424c0-136.667-41.5-244.834-124.5-324.501S783.667-20.001 647-20.001c-120.667 0-221 31.667-301 95v-459H160v1457c0 72 20.333 139.333 61 202s95.5 111.834 164.5 147.501S527.667 1476 605 1476zm243.001-389c0 68-22.666 124.499-67.999 169.499s-103.666 67.5-174.999 67.5c-72 0-133-23.667-183-71s-75.333-106.666-76-177.999V246c29.333-34.667 68-62.5 116-83.5s103.333-31.5 166-31.5c89.333 0 159.666 26.667 210.999 80s77 123 77 209c0 78.667-23.333 145.5-70 200.5S739.668 704 667.001 706h-150v152h85c80 0 141 19.833 183 59.5s63 96.167 63 169.5z"/><glyph glyph-name="gamma" unicode="γ" horiz-adv-x="1026" d="M522 276l280 806h189L612 57v-473H426V64L46 1082h189z"/><glyph glyph-name="delta" unicode="δ" horiz-adv-x="1160" d="M221 1269c0 90.667 33.833 162.501 101.5 215.501s159.834 79.5 276.501 79.5c92.667 0 183.667-18.333 273-55l-2-160c-100.667 39.333-192.334 59-275.001 59-57.333 0-102.833-12-136.5-36s-50.5-56.667-50.5-98c0-72 73.833-133.5 221.5-184.5s256-121.333 325-211S1059.667 678.667 1063 548v-39c0-102-19.667-193.5-59-274.5s-95.5-143.667-168.5-188S677.667-20 581-20c-148 0-265.833 49.167-353.5 147.5S96 355.666 96 516.999v13c0 110 31.333 209 94 297s142 143.667 238 167l-1 5c-66 26-116.833 62.333-152.5 109S221 1208.333 221 1269zm62-759.999c0-117.333 26.833-209.833 80.5-277.5s126.167-101.5 217.5-101.5c90.667 0 162.667 33.667 216 101s80 167 80 299c0 90.667-28.167 172.5-84.5 245.5s-126.166 117.833-209.499 134.5c-90.667 0-163.334-34.167-218.001-102.5s-82-167.833-82-298.5z"/><glyph glyph-name="epsilon" unicode="ε" horiz-adv-x="1104" d="M286 304c0-51.333 24.501-93.335 73.501-126.002s112.833-49 191.5-49c75.333 0 138.833 18.333 190.5 55s77.5 82 77.5 136h185c0-103.333-42.5-185.833-127.5-247.5s-193.5-92.5-325.5-92.5c-136 0-245.333 29.5-328 88.5s-124 137.5-124 235.5c0 124 68.333 208 205 252-58.667 24-104.334 56.333-137.001 97s-49 85.334-49 134.001c0 98.667 38.5 175.667 115.5 231s182.833 83 317.5 83c124 0 227.5-29.833 310.5-89.5S986 874.665 986 779.998H801c0 46.667-23.833 86.834-71.5 120.501s-107.167 50.5-178.5 50.5c-74.667 0-134.5-15.167-179.5-45.5S304 835.333 304 786c0-106.667 81.333-160 244-160h196V478H520c-156-4-234-62-234-174z"/><glyph glyph-name="zeta" unicode="ζ" horiz-adv-x="1061" d="M963 1456l-.001-120.001-350-427c-92-107.333-155-199.166-189-275.499s-51-158.833-51-247.5c0-60 11.167-106.167 33.5-138.5s60.833-56.833 115.5-73.5l247-72c54-16 92.833-38.667 116.5-68s35.5-70 35.5-122c-1.333-46-20-97.667-56-155s-76.333-104-121-140l-98 84c31.333 35.333 55.5 67.166 72.5 95.499s25.5 57.5 25.5 87.5c0 45.333-51.333 81-154 107s-172 47-208 63c-68.667 30-118.167 70.5-148.5 121.5s-45.5 119.5-45.5 205.5c0 86.667 24.333 183.334 73 290.001S376.333 881 461 981l285 323H109v152h854z"/><glyph glyph-name="eta" unicode="η" horiz-adv-x="1160" d="M312 1082l10.999-136c80 104 186.667 156 320 156 126.667 0 219-32.833 277-98.5s87.333-166.5 88-302.5V-415h-185V690c0 90.667-18 156.667-54 198s-96.667 62-182 62c-61.333 0-113.666-14.5-156.999-43.5S353.667 837 331 785V0H145v1082h167z"/><glyph glyph-name="theta" unicode="θ" horiz-adv-x="1166" d="M1042 640c0-214-39.333-377.499-118-490.499s-192.334-169.5-341.001-169.5c-146 0-258.667 55.333-338 166s-120.333 268.667-123 474v205c0 211.333 39.333 372.666 118 483.999S432.333 1476 581 1476c148 0 261.167-54 339.5-162s118.833-264.333 121.5-469V640zM307 801.001h549v55c0 151.333-23.167 267.166-69.5 347.499S671.667 1324 581 1324c-89.333 0-157.333-40.167-204-120.5s-70-196.166-70-347.499v-55zm549-152H306.999v-39c0-152.667 24.333-270.667 73-354s116.334-125 203.001-125 153.5 40 200.5 120 71.167 195.667 72.5 347v51z"/><glyph glyph-name="iota" unicode="ι" horiz-adv-x="663" d="M380 1082l.001-809c0-42 9.167-73.667 27.5-95s48.833-32 91.5-32c32 0 61 4 87 12l1-151C540.334-5.667 492.667-12 444-12c-166 0-249 98-249 294v800h185z"/><glyph glyph-name="kappa" unicode="κ" horiz-adv-x="1139" d="M447 461H340V0H154v1082h186V624h91l397 458h223L599 557 1087 0H854z"/><glyph glyph-name="lambda" unicode="λ" horiz-adv-x="1134" d="M261 1518c65.333 0 118-13.332 158-39.999s71-71.667 93-135l427-1109c13.333-34 27.5-57.5 42.5-70.5s34.167-19.5 57.5-19.5l38 3 6-152c-24-8-50-12-78-12-51.333 0-90 6.167-116 18.5s-49.333 32.833-70 61.5-40.667 69.667-60 123l-230 593-286-779H37l394 1029-96 235c-15.333 37.333-31.833 63.666-49.5 78.999s-41.5 23-71.5 23l-47-2-1 142c28 8 59.667 12 95 12z"/><glyph glyph-name="mu" unicode="μ" horiz-adv-x="1160" d="M339 1082l.001-633c.667-108.667 18.167-189 52.5-241S481.667 130 559 130c132.667 0 219.667 50.667 261 152v800h186V0H839l-9 115C768 25 680.333-20 567-20c-98 0-174 24.333-228 73v-469H154v1498h185z"/><glyph glyph-name="nu" unicode="ν" horiz-adv-x="992" d="M497 251l268 831h189L566 0H425L33 1082h189z"/><glyph glyph-name="xi" unicode="ξ" horiz-adv-x="1004" d="M882 1288c-88 24-164.331 35.999-228.998 35.999-94 0-167.667-17.167-221-51.5s-80-79.833-80-136.5c0-146 111-219 333-219h133v-152h-150c-121.333-1.333-215.166-28-281.499-80s-99.5-132.333-99.5-241c0-74.667 24-138.167 72-190.5s117.167-89.333 207.5-111 156.166-38.667 197.499-51S836.668 66.333 858.001 53c52.667-32.667 79-84 79-154 0-42.667-17.333-91.834-52-147.501s-76-103.834-124-144.501l-107 84 57 64c32.667 40 49 80.667 49 122 0 26-12.667 46.667-38 62s-76.333 31.5-153 48.5-143.167 36.5-199.5 58.5-104.333 50.5-144 85.5-70.334 78-92.001 129-32.5 113.5-32.5 187.5c0 96.667 27.333 178.834 82 246.501S315 811.333 415 842c-78.667 28-139.834 67.333-183.501 118s-65.5 108-65.5 172c0 106 43 189.833 129 251.5s205 92.5 357 92.5c96.667 0 182.334-13 257.001-39z"/><glyph glyph-name="omicron" unicode="ο" horiz-adv-x="1168" d="M91 551c0 106 20.834 201.334 62.501 286.001s99.667 150 174 196 159.166 69 254.499 69c147.333 0 266.5-51 357.5-153s136.5-237.667 136.5-407v-13c0-105.333-20.167-199.833-60.5-283.5S917.5 96.667 842.5 50 681.333-20 584-20c-146.667 0-265.5 51-356.5 153S91 370 91 538v13zm186.001-21.999c0-120 27.832-216.335 83.499-289.002s130.167-109 223.5-109c94 0 168.667 36.833 224 110.5S891 418.333 891 551c0 118.667-28.167 214.834-84.5 288.501s-131.166 110.5-224.499 110.5c-91.333 0-165-36.333-221-109s-84-176.667-84-312z"/><glyph glyph-name="pi" unicode="π" horiz-adv-x="1220" d="M1137 929l-155.999.001v-654c0-42.667 9-74.834 27-96.501s48.667-32.5 92-32.5c32 0 61 4 87 12l1-151C1141.334-5.667 1093.667-12 1045-12c-166 0-249 98-249 294v647H395V0H210v929H41v153h1096V929z"/><glyph glyph-name="rho" unicode="ρ" horiz-adv-x="1160" d="M592 1102c138 0 247.668-47.001 329.001-141.001s125.666-225.667 132.999-395l1-66c0-160-37.333-286.667-112-380s-175.667-140-303-140c-130 0-233 41.333-309 124v-520H145v996c0 105.333 18.833 197.333 56.5 276s90.667 139.334 159 182.001 145.5 64 231.5 64zM331.001 277.999c55.333-98 140-147.001 254-147.001 90 0 160 32.5 210 97.5s75 162.5 75 292.5c0 136.667-24.167 242.334-72.5 317.001s-116.833 112-205.5 112c-78 0-141-36-189-108s-72-164.333-72-277v-287z"/><glyph glyph-name="sigma1" unicode="ς" horiz-adv-x="1101" d="M573 1102c126 0 227.498-35.503 304.498-106.503s115.5-166.5 115.5-286.5h-175c0 73.333-22.333 131.833-67 175.5s-104 65.5-178 65.5c-88 0-157.833-36.5-209.5-109.5s-77.5-169.167-77.5-288.5v-32c0-173.333 106.667-293 320-359l134-38c65.333-19.333 111.333-45 138-77s40-74.667 40-128c-1.333-42-18.5-90.833-51.5-146.5s-74.167-104.167-123.5-145.5l-98 85 47 54c32.667 40 49 83.333 49 130 0 28.667-11.667 50.167-35 64.5S642.332-12.67 584.999-.003c-157.333 34.667-277.333 94.834-360 180.501s-124 198.834-124 339.501v42c0 101.333 19.833 193.833 59.5 277.5S255.833 987.833 327.5 1033.5 481 1102 573 1102z"/><glyph glyph-name="sigma" unicode="σ" horiz-adv-x="1160" d="M1147 929l-283.997-.002c133.333-98.667 200-239 200-421v-17c0-93.333-20.333-179.166-61-257.499S904.169 93.333 830.502 48s-157.167-68-250.5-68c-145.333 0-262.333 50.5-351 151.5s-133 236.5-133 406.5v13c0 101.333 19.667 192.333 59 273s95.166 143.667 167.499 189 155.166 68.333 248.499 69h576V929zM282.003 528.998c0-122 26.668-218.833 80.001-290.5s126-107.5 218-107.5c92.667 0 165.5 36.167 218.5 108.5s79.5 176.166 79.5 311.499c0 114.667-26.833 206.334-80.5 275.001s-126.834 103-219.501 103c-91.333 0-163.5-34-216.5-102s-79.5-167.333-79.5-298z"/><glyph glyph-name="tau" unicode="τ" horiz-adv-x="1068" d="M985 932H614V269c0-88.667 35-133 105-133 28.667 0 59.334 8.667 92.001 26l42-130C802.334-2.667 741.667-20 671-20c-83.333 0-144.5 24.5-183.5 73.5S428.667 175.667 428 273v659H81v150h904V932z"/><glyph glyph-name="upsilon" unicode="υ" horiz-adv-x="1117" d="M329 1082V435c0-203.333 67-305 201-305 86 0 157.333 41.667 214 125s85 185.666 85 306.999c-3.333 154-44.333 327.333-123 520h195c75.333-160.667 113-334 113-520 0-175.333-42.833-316.166-128.5-422.499S684.333-20 539-20C409.667-20 311.667 17.333 245 92S144.333 275.667 143 419v663h186z"/><glyph glyph-name="phi" unicode="φ" horiz-adv-x="1443" d="M620-17C449.333-1.667 317.833 57.165 225.5 159.498S87 396.664 87 563.997c0 112 21.5 211.833 64.5 299.5s106.833 160.5 191.5 218.5l101-133c-107.333-93.333-164.333-221.666-171-384.999 0-115.333 30.167-211.166 90.5-287.499S509.333 153.333 620 136v716c0 70 23 125.833 69 167.5s106.667 62.5 182 62.5c86.667 0 167.5-23.5 242.5-70.5S1247.667 899.667 1291 817s65-173.667 65-273c0-162-48.333-292.5-145-391.5S979-3 805-17v-461H620v461zm185 152.999c113.333 14.667 202.667 59 268 133s98 165.667 98 275c-3.333 112.667-32.5 205-87.5 277s-125.833 108-212.5 108c-44 0-66-27.333-66-82v-711z"/><glyph glyph-name="chi" unicode="χ" horiz-adv-x="1015" d="M145 1097c116 0 203.333-63.999 262-191.999l149-339 255 516h187l-352-721 218-498c40.667-85.333 83.667-129 129-131h26l72 5-47-158c-16-10-36.333-15-61-15-60.667 0-111 15.667-151 47S751.333-297.333 710-208L548 162 267-415H71l387 784-168 387c-48.667 122-108.667 183-180 183l-68-5-1 148c45.333 10 80 15 104 15z"/><glyph glyph-name="psi" unicode="ψ" horiz-adv-x="1434" d="M796 1082V136.001c114 16 203.5 62.167 268.5 138.5s97.5 173.833 97.5 292.5c-3.333 154.667-45.666 326.334-126.999 515.001h194c78.667-157.333 118-329 118-515 0-172.667-47.5-309.667-142.5-411s-231.167-159-408.5-173v-455h-185v457c-170 17.333-298.5 77.666-385.5 180.999S95.001 412.667 95.001 596v486h186V584c1.333-129.333 29.666-232 84.999-308s137-122.333 245-139v945h185z"/><glyph glyph-name="omega" unicode="ω" horiz-adv-x="1687" d="M452 1082c-92-188.667-140.334-362.668-145.001-522.001 0-135.333 19-240.833 57-316.5s92.333-113.5 163-113.5c72 0 126.833 28.833 164.5 86.5s56.5 141.834 56.5 252.501v301h187V464c.667-109.333 19.834-192.333 57.501-249s92.167-85 163.5-85c70.667 0 125 37.667 163 113s57 181 57 317c-4.667 159.333-53 333.333-145 522h195c90-162.667 135-336.667 135-522 0-183.333-34.5-325.833-103.5-427.5S1291.333-20 1166-20c-160 0-268.333 79.333-325 238-27.333-78-68.333-137.167-123-177.5S596.333-20 517-20c-125.333 0-222.5 50.833-291.5 152.5S122 376.667 122 560c0 191.333 45 365.333 135 522h195z"/><glyph glyph-name="iotadieresis" unicode="ϊ" horiz-adv-x="663" d="M380 1082l.001-809c0-42 9.167-73.667 27.5-95s48.833-32 91.5-32c32 0 61 4 87 12l1-151C540.334-5.667 492.667-12 444-12c-166 0-249 98-249 294v800h185zm-406.999 269c0 30 9.167 55.167 27.5 75.5s45.5 30.5 81.5 30.5 63.333-10.167 82-30.5 28-45.5 28-75.5-9.333-55-28-75-46-30-82-30-63.167 10-81.5 30-27.5 45-27.5 75zm430-2c0 30 9.167 55.333 27.5 76s45.5 31 81.5 31 63.333-10.333 82-31 28-46 28-76-9.333-55-28-75-46-30-82-30-63.167 10-81.5 30-27.5 45-27.5 75z"/><glyph glyph-name="upsilondieresis" unicode="ϋ" horiz-adv-x="1117" d="M329 1082V435c0-203.333 67-305 201-305 86 0 157.333 41.667 214 125s85 185.666 85 306.999c-3.333 154-44.333 327.333-123 520h195c75.333-160.667 113-334 113-520 0-175.333-42.833-316.166-128.5-422.499S684.333-20 539-20C409.667-20 311.667 17.333 245 92S144.333 275.667 143 419v663h186zm-109 269c0 30 9.167 55.167 27.5 75.5S293 1457 329 1457s63.333-10.167 82-30.5 28-45.5 28-75.5-9.333-55-28-75-46-30-82-30-63.167 10-81.5 30-27.5 45-27.5 75zm430-2c0 30 9.167 55.333 27.5 76s45.5 31 81.5 31 63.333-10.333 82-31 28-46 28-76-9.333-55-28-75-46-30-82-30-63.167 10-81.5 30-27.5 45-27.5 75z"/><glyph glyph-name="omicrontonos" unicode="ό" horiz-adv-x="1168" d="M91 551c0 106 20.834 201.334 62.501 286.001s99.667 150 174 196 159.166 69 254.499 69c147.333 0 266.5-51 357.5-153s136.5-237.667 136.5-407v-13c0-105.333-20.167-199.833-60.5-283.5S917.5 96.667 842.5 50 681.333-20 584-20c-146.667 0-265.5 51-356.5 153S91 370 91 538v13zm186.001-21.999c0-120 27.832-216.335 83.499-289.002s130.167-109 223.5-109c94 0 168.667 36.833 224 110.5S891 418.333 891 551c0 118.667-28.167 214.834-84.5 288.501s-131.166 110.5-224.499 110.5c-91.333 0-165-36.333-221-109s-84-176.667-84-312zM560 1594h174l-116-337H506z"/><glyph glyph-name="upsilontonos" unicode="ύ" horiz-adv-x="1117" d="M329 1082V435c0-203.333 67-305 201-305 86 0 157.333 41.667 214 125s85 185.666 85 306.999c-3.333 154-44.333 327.333-123 520h195c75.333-160.667 113-334 113-520 0-175.333-42.833-316.166-128.5-422.499S684.333-20 539-20C409.667-20 311.667 17.333 245 92S144.333 275.667 143 419v663h186zm198 491h174l-116-337H473z"/><glyph glyph-name="omegatonos" unicode="ώ" horiz-adv-x="1687" d="M452 1082c-92-188.667-140.334-362.668-145.001-522.001 0-135.333 19-240.833 57-316.5s92.333-113.5 163-113.5c72 0 126.833 28.833 164.5 86.5s56.5 141.834 56.5 252.501v301h187V464c.667-109.333 19.834-192.333 57.501-249s92.167-85 163.5-85c70.667 0 125 37.667 163 113s57 181 57 317c-4.667 159.333-53 333.333-145 522h195c90-162.667 135-336.667 135-522 0-183.333-34.5-325.833-103.5-427.5S1291.333-20 1166-20c-160 0-268.333 79.333-325 238-27.333-78-68.333-137.167-123-177.5S596.333-20 517-20c-125.333 0-222.5 50.833-291.5 152.5S122 376.667 122 560c0 191.333 45 365.333 135 522h195zm379.999 488h174l-116-337h-112z"/><glyph glyph-name="theta1" unicode="ϑ" horiz-adv-x="1185" d="M1145 627c-40-15.333-87.669-25.998-143.002-31.998v-166c-1.333-140.667-40.166-250.667-116.499-330s-181.166-119-314.499-119c-135.333 0-244.166 41.167-326.499 123.5s-123.5 195.166-123.5 338.499v327l186 2v-336c0-95.333 23.333-168.833 70-220.5s111.334-77.5 194.001-77.5c77.333 0 137.666 24.333 180.999 73s65 123.667 65 225v166c-144.667 20.667-261.834 78-351.501 172s-134.5 213.333-134.5 358c0 106.667 30.667 191.167 92 253.5s142 93.5 242 93.5c106 0 188.667-32.833 248-98.5s89-157.834 89-276.501V752c42 3.333 87 11.333 135 24zm-628.002 487c0-88.667 27-164.5 81-227.5s127-104.5 219-124.5v360c-3.333 132-54 198-152 198-98.667 0-148-65.333-148-196v-10z"/><glyph glyph-name="Upsilon1" unicode="ϒ" horiz-adv-x="1090" d="M548 774l224.998 507c28.667 66 60.834 113.667 96.501 143s82.5 44 140.5 44c48 0 89.333-9 124-27l-36-151c-8.667 5.333-26 8-52 8-46.667 0-82-26.333-106-79l-297-649V0h-191v572l-296 647c-26 52.667-61.333 79-106 79-26 0-43.333-2.667-52-8l-36 150c34.667 18.667 75.667 28 123 28 58.667 0 105.834-14 141.501-42s67.5-73 95.5-135z"/><glyph glyph-name="omega1" unicode="ϖ" horiz-adv-x="1608" d="M1563 929h-136c42.667-114.667 64-237.667 64-369 0-182-31.333-324.167-94-426.5S1246-20 1132-20c-160.667 0-268.667 79.667-324 239C752.667 59.667 645-20 485-20c-113.333 0-201.5 50.667-264.5 152S126 376 126 560c0 127.333 21.333 250.333 64 369H74v153h1489V929zm-258-369c-2.667 113.333-28.668 236.333-78.001 369h-837c-50-133.333-76.333-256.333-79-369 0-135.333 16-240.833 48-316.5s77.333-113.5 136-113.5c70 0 123.833 27.833 161.5 83.5s57.167 137.5 58.5 245.5v263h187V459c1.333-108 20.833-189.833 58.5-245.5S1052.333 130 1123 130c57.333 0 102 37.667 134 113s48 181 48 317z"/><glyph glyph-name="uni0400" unicode="Ѐ" horiz-adv-x="1164" d="M992 673H361V157h733V0H169v1456h915v-158H361V830h631V673zm-267 891H566l-258 294h223z"/><glyph glyph-name="afii10023" unicode="Ё" horiz-adv-x="1164" d="M992 673H361V157h733V0H169v1456h915v-158H361V830h631V673zM297 1693c0 30 9.167 55.167 27.5 75.5S370 1799 406 1799s63.333-10.167 82-30.5 28-45.5 28-75.5-9.333-55-28-75-46-30-82-30-63.167 10-81.5 30-27.5 45-27.5 75zm430-2c0 30 9.167 55.333 27.5 76s45.5 31 81.5 31 63.333-10.333 82-31 28-46 28-76-9.333-55-28-75-46-30-82-30-63.167 10-81.5 30-27.5 45-27.5 75z"/><glyph glyph-name="afii10051" unicode="Ђ" horiz-adv-x="1535" d="M1172 1298l-522.001.001v-455c104.667 32 201 48 289 48 162.667 0 289.667-40.167 381-120.5s137-192.833 137-337.5-43.333-254.834-130-330.501-209-113.5-367-113.5l-2 150c103.333 0 180.333 24.167 231 72.5s76 121.833 76 220.5c-1.333 94.667-29.166 167-83.499 217S1046 724 938 724c-100 0-196-15.333-288-46V0H457v1298H42v158h1130v-158z"/><glyph glyph-name="afii10052" unicode="Ѓ" horiz-adv-x="1139" d="M1072 1298H370V0H177v1456h895v-158zm-356 560h224l-268-294H523z"/><glyph glyph-name="afii10053" unicode="Є" horiz-adv-x="1380" d="M1244 462c-18-154-74.83-272.834-170.496-356.501s-222.834-125.5-381.501-125.5c-172 0-309.833 61.667-413.5 185s-155.5 288.333-155.5 495v139c0 134 23.833 252.5 71.5 355.5s116 182.333 205 238 192.167 83.5 309.5 83.5c154.667 0 278.667-43.167 372-129.5s147.666-205.833 162.999-358.5h-192c-16.667 114.667-52.834 198.334-108.501 251.001S809.667 1318 709 1318c-123.333 0-219.333-45.167-288-135.5S317.333 969 316 813h570V656H316v-2c0-158 33-283.667 99-377s158.333-140 277-140c106.667 0 188.5 24.167 245.5 72.5S1032.333 342 1051 462h193z"/><glyph glyph-name="afii10054" unicode="Ѕ" horiz-adv-x="1215" d="M598 649c-164.667 47.333-284.501 105.5-359.501 174.5s-112.5 154.167-112.5 255.5c0 114.667 45.833 209.5 137.5 284.5S474.333 1476 621 1476c100 0 189.167-19.333 267.5-58s139-92 182-160 64.5-142.333 64.5-223H942c0 88-28 157.167-84 207.5S723 1318 621 1318c-94.667 0-168.5-20.833-221.5-62.5S320 1156 320 1082c0-59.333 25.167-109.5 75.5-150.5s136-78.5 257-112.5 215.667-71.5 284-112.5 119-88.833 152-143.5 49.5-119 49.5-193c0-118-46-212.5-138-283.5S785-20 631-20C531-20 437.667-.833 351 37.5S197.5 128.333 150.5 195 80 337.334 80 422.001h193c0-88 32.5-157.5 97.5-208.5s151.833-76.5 260.5-76.5c101.333 0 179 20.667 233 62S945 296.667 945 368s-25 126.5-75 165.5S729.333 611 598 649z"/><glyph glyph-name="afii10055" unicode="І" horiz-adv-x="557" d="M375 0H183v1456h192V0z"/><glyph glyph-name="afii10056" unicode="Ї" horiz-adv-x="557" d="M375 0H183v1456h192V0zM-43 1693c0 30 9.167 55.167 27.5 75.5S30 1799 66 1799s63.333-10.167 82-30.5 28-45.5 28-75.5-9.333-55-28-75-46-30-82-30-63.167 10-81.5 30-27.5 45-27.5 75zm430-2c0 30 9.167 55.333 27.5 76s45.5 31 81.5 31 63.333-10.333 82-31 28-46 28-76-9.333-55-28-75-46-30-82-30-63.167 10-81.5 30-27.5 45-27.5 75z"/><glyph glyph-name="afii10057" unicode="Ј" horiz-adv-x="1130" d="M779 1456h193V425c0-139.333-41.833-248.333-125.5-327S651.333-20 512-20C367.333-20 254.666 17 173.999 91s-121 177.667-121 311h192c0-83.333 22.833-148.333 68.5-195S425.333 137 512 137c79.333 0 143.5 25 192.5 75s73.833 120 74.5 210v1034z"/><glyph glyph-name="afii10058" unicode="Љ" horiz-adv-x="2193" d="M1262 1456l.002-565.002h361c148-2 265.667-43 353-123s131-187.667 131-323c0-132-43-238.5-129-319.5s-203-122.833-351-125.5h-557v1298h-512l-26-577c-10-193.333-29.833-338.666-59.5-435.999s-73.167-168.833-130.5-214.5-134-69.167-230-70.5h-63v157l40 2c62 4.667 109.667 24.834 143 60.501S290.668 312 308.001 390 337.667 588 345 750l30 706h887zm0-723.002v-576h351c93.333 0 167 26.333 221 79s81 123 81 211c0 85.333-26.167 154-78.5 206s-124.5 78.667-216.5 80h-358z"/><glyph glyph-name="afii10059" unicode="Њ" horiz-adv-x="2212" d="M370 825l718 .001v631h192v-610h362c150.667-2 268.834-40.667 354.501-116s128.5-176 128.5-302c0-127.333-42.833-229.833-128.5-307.5S1793.667 2.667 1645 0h-557v668H370V0H177v1456h193V825zm910-135.999V166.002h351c94.667 0 168.667 23.667 222 71s80 111.666 80 192.999c0 77.333-25.333 139.333-76 186s-122 71-214 73h-363z"/><glyph glyph-name="afii10060" unicode="Ћ" horiz-adv-x="1666" d="M1190 1298H662V866c106.667 26.667 218.334 40 335.001 40 166.667 0 290.334-36.333 371.001-109s122-182.667 124-330V0h-193v462c-.667 101.333-23.834 174.333-69.501 219s-123.167 67-232.5 67C884.334 748 772.667 734 662 706V0H470v1298H62v158h1128v-158z"/><glyph glyph-name="afii10061" unicode="Ќ" horiz-adv-x="1284" d="M539 677L361 492V0H169v1456h192V736l647 720h232L667 813 1285 0h-230zm156 1163h224l-268-294H502z"/><glyph glyph-name="uni040D" unicode="Ѝ" horiz-adv-x="1460" d="M1087 1456h192V0h-192v1122L370 0H177v1456h193V334zm-248 108H680l-258 294h223z"/><glyph glyph-name="afii10062" unicode="Ў" horiz-adv-x="1287" d="M669 611l335.001 844.999h223l-515-1213c-34.667-77.333-67-132.166-97-164.499s-65.167-57-105.5-74S418.668-21 358.001-21c-52.667 0-86.334 3-101.001 9l6 152 91-4c70 0 122 33.667 156 101l25 52 38 89L77 1456h215zm277.001 1207c0-80.667-27.501-145.5-82.501-194.5S736.333 1550 647 1550s-161.666 24.667-216.999 74-83 114-83 194h151c0-46.667 12.667-83.167 38-109.5s62.333-39.5 111-39.5c46.667 0 83.167 13 109.5 39s39.5 62.667 39.5 110h150z"/><glyph glyph-name="afii10145" unicode="Џ" horiz-adv-x="1460" d="M176 1456h193V157h718v1299h192V0H831v-359H638V0H176v1456z"/><glyph glyph-name="afii10017" unicode="А" d="M973 380H363L226 0H28l556 1456h168L1309 0h-197zM421 538h495l-248 681z"/><glyph glyph-name="afii10018" unicode="Б" horiz-adv-x="1291" d="M1057 1298H355V862h362c152-2 270.667-41 356-117s128-179.333 128-310c0-131.333-43-236-129-314S868.667 2.667 720 0H162v1456h895v-158zM355 704V157.001h351c95.333 0 169.5 25.333 222.5 76s79.5 118.667 79.5 204c0 82-25.5 146.667-76.5 194S808 702.667 714 704H355z"/><glyph glyph-name="afii10019" unicode="В" horiz-adv-x="1275" d="M169 0l.001 1456h476c158 0 276.833-32.667 356.5-98s119.5-162 119.5-290c0-68-19.333-128.167-58-180.5S971.667 794.667 905 766c78.667-22 140.834-63.833 186.501-125.5s68.5-135.167 68.5-220.5c0-130.667-42.333-233.334-127-308.001S828.667-.001 674-.001H169zm192.001 681.001V157.002h317c89.333 0 159.833 23.167 211.5 69.5s77.5 110.166 77.5 191.499c0 175.333-95.333 263-286 263h-320zm0 154.001h290c84 0 151.167 21 201.5 63s75.5 99 75.5 171c0 80-23.333 138.167-70 174.5s-117.667 54.5-213 54.5h-284v-463z"/><glyph glyph-name="afii10020" unicode="Г" horiz-adv-x="1139" d="M1072 1298H370V0H177v1456h895v-158z"/><glyph glyph-name="afii10021" unicode="Д" horiz-adv-x="1540" d="M1479-357h-191V0H243v-358H51l-1 515h119c62.667 70.667 112.5 165.5 149.5 284.5S378.667 691 388 833l32 623h871V157h190zM388 157h710.002v1141h-493l-21-428c-8.667-167.333-30.834-310-66.501-428S438.667 229 388 157z"/><glyph glyph-name="afii10022" unicode="Е" horiz-adv-x="1164" d="M992 673H361V157h733V0H169v1456h915v-158H361V830h631V673z"/><glyph glyph-name="afii10024" unicode="Ж" horiz-adv-x="1859" d="M1192 664h-156V0H844v664H679L267 0H27l490 768-452 688h227l387-632h165v632h192V824h158l387 632h226l-452-687L1845 0h-239z"/><glyph glyph-name="afii10025" unicode="З" horiz-adv-x="1215" d="M916 1065c0 77.333-28.167 138.837-84.5 184.504s-135.5 68.5-237.5 68.5c-85.333 0-156.833-23.5-214.5-70.5s-86.5-105.167-86.5-174.5H101c0 77.333 21.167 146.666 63.5 207.999S266 1390.169 342 1424.502s160 51.5 252 51.5c162.667 0 289-36.5 379-109.5s135-174.5 135-304.5c0-67.333-20.667-128.666-62-183.999s-99-99-173-131c171.333-57.333 257-171 257-341 0-130.667-48.667-234.334-146-311.001s-227.333-115-390-115c-96.667 0-184.5 17.167-263.5 51.5S190 114.668 146 178.001 80 316.667 80 404h192c0-76.667 30.333-140.5 91-191.5S500.667 136 594 136c104.667 0 188.167 24.333 250.5 73S938 322 938 402c0 170.667-105.667 257.667-317 261H441v158h179c97.333 2 171 24 221 66s75 101.333 75 178z"/><glyph glyph-name="afii10026" unicode="И" horiz-adv-x="1460" d="M1087 1456h192V0h-192v1122L370 0H177v1456h193V334z"/><glyph glyph-name="afii10027" unicode="Й" horiz-adv-x="1460" d="M1087 1456h192V0h-192v1122L370 0H177v1456h193V334zm-54 362c0-80.667-27.501-145.5-82.501-194.5s-127.167-73.5-216.5-73.5-161.666 24.667-216.999 74-83 114-83 194h151c0-46.667 12.667-83.167 38-109.5s62.333-39.5 111-39.5c46.667 0 83.167 13 109.5 39s39.5 62.667 39.5 110h150z"/><glyph glyph-name="afii10028" unicode="К" horiz-adv-x="1316" d="M547 654H370V0H178v1456h192V814h150l509 642h239L712 750 1309 0h-235z"/><glyph glyph-name="afii10029" unicode="Л" horiz-adv-x="1449" d="M1270 1456l.002-1456h-192v1298h-522l-26-577c-10-193.333-29.833-338.666-59.5-435.999s-73.167-168.833-130.5-214.5-134-69.167-230-70.5h-63v157l40 2c62 4.667 109.667 24.834 143 60.501s58.666 92.5 75.999 170.5 29.666 198 36.999 360l30 706h897z"/><glyph glyph-name="afii10030" unicode="М" horiz-adv-x="1788" d="M417 1456L893 268l476 1188h249V0h-192v567l18 612L966 0H819L342 1176l19-609V0H169v1456h248z"/><glyph glyph-name="afii10031" unicode="Н" horiz-adv-x="1460" d="M1288 0h-193v673H361V0H169v1456h192V830h734v626h193V0z"/><glyph glyph-name="afii10032" unicode="О" horiz-adv-x="1408" d="M1289 681c0-142.667-23.999-267.165-71.999-373.498s-116-187.5-204-243.5-190.667-84-308-84c-114.667 0-216.334 28.167-305.001 84.5S242.5 201.168 193.5 305.501 119.333 530.667 118 668v105c0 140 24.333 263.667 73 371s117.5 189.5 206.5 246.5S588.333 1476 703 1476c116.667 0 219.5-28.167 308.5-84.5s157.5-138 205.5-245 72-231.5 72-373.5v-92zm-191 94.002c0 172.667-34.666 305.167-103.999 397.5s-166.333 138.5-291 138.5c-121.333 0-216.833-46.167-286.5-138.5s-105.5-220.5-107.5-384.5v-107c0-167.333 35.167-298.833 105.5-394.5s167.166-143.5 290.499-143.5c124 0 220 45.167 288 135.5s103 219.833 105 388.5v108z"/><glyph glyph-name="afii10033" unicode="П" horiz-adv-x="1461" d="M1281 0h-193v1298H370V0H178v1456h1103V0z"/><glyph glyph-name="afii10034" unicode="Р" horiz-adv-x="1292" d="M361 570l.001-570.001h-192v1456h537c159.333 0 284.166-40.667 374.499-122s135.5-189 135.5-323c0-141.333-44.167-250.166-132.5-326.499S868.667 570 704 570H361zm.001 156.999L706 727c102.667 0 181.334 24.167 236.001 72.5s82 118.166 82 209.499c0 86.667-27.333 156-82 208s-129.667 79-225 81h-356v-571z"/><glyph glyph-name="afii10035" unicode="С" horiz-adv-x="1333" d="M1240 462c-18-154-74.83-272.833-170.497-356.5S846.669-20 688.002-20c-172 0-309.833 61.667-413.5 185s-155.5 288.333-155.5 495v140c0 135.333 24.167 254.333 72.5 357s116.833 181.5 205.5 236.5 191.334 82.5 308.001 82.5c154.667 0 278.667-43.167 372-129.5s147.666-205.833 162.999-358.5h-193c-16.667 116-52.834 200-108.501 252s-133.5 78-233.5 78c-122.667 0-218.834-45.333-288.501-136S312 962.333 312 795V654c0-158 33-283.667 99-377s158.333-140 277-140c106.667 0 188.5 24.167 245.5 72.5S1028.333 342 1047 462h193z"/><glyph glyph-name="afii10036" unicode="Т" horiz-adv-x="1222" d="M1175 1298H707V0H516v1298H49v158h1126v-158z"/><glyph glyph-name="afii10037" unicode="У" horiz-adv-x="1287" d="M669 611l335.001 844.999h223l-515-1213c-34.667-77.333-67-132.166-97-164.499s-65.167-57-105.5-74S418.668-21 358.001-21c-52.667 0-86.334 3-101.001 9l6 152 91-4c70 0 122 33.667 156 101l25 52 38 89L77 1456h215z"/><glyph glyph-name="afii10038" unicode="Ф" horiz-adv-x="1580" d="M888 1310l30.999.002c110-.667 210.333-26.334 301-77.001s161.167-120.5 211.5-209.5 75.5-188.5 75.5-298.5c0-110.667-25.333-211-76-301s-120.667-160.167-210-210.5S1032.333 137.335 923 136.002h-35v-196H702v196h-28c-111.333 0-212.5 25.333-303.5 76s-161.667 120.667-212 210S83 611.668 83 723.001 108.167 934.667 158.5 1024s121 159.333 212 210 192.167 76 303.5 76h28v206h186v-206zm-214.001-151c-125.333 0-224.5-38.501-297.5-115.501s-109.5-183.833-109.5-320.5c0-137.333 36.333-244.166 109-320.499s172.667-114.5 300-114.5h26v871h-28zm214 0V288h28c127.333 0 226.833 39.167 298.5 117.5s107.5 184.833 107.5 319.5c0 133.333-35.833 239-107.5 317s-172.5 117-302.5 117h-24z"/><glyph glyph-name="afii10039" unicode="Х" horiz-adv-x="1284" d="M644 898l349 558h226L759 734 1230 0h-228L644 568 284 0H57l472 734-461 722h225z"/><glyph glyph-name="afii10040" unicode="Ц" horiz-adv-x="1497" d="M175 1456h193V157h718v1299h192V161h153l-18-512h-173V0H175v1456z"/><glyph glyph-name="afii10041" unicode="Ч" horiz-adv-x="1402" d="M1224 1456l-.003-1456h-193v603c-70-20-133.667-33.833-191-41.5S717.331 550 643.998 550c-166 0-289.333 36-370 108s-122 182.333-124 331v467h193V994c.667-101.333 23.834-174.333 69.501-219S535.333 708 644 708c126.667 0 255.667 18 387 54v694h193z"/><glyph glyph-name="afii10042" unicode="Ш" horiz-adv-x="1927" d="M369 1456V157h501v1299h191V157h498v1299h192V0H176v1456h193z"/><glyph glyph-name="afii10043" unicode="Щ" horiz-adv-x="1984" d="M369 1456V157h501v1299h191V157h498v1299h192V151h147l-18-502h-165V0H176v1456h193z"/><glyph glyph-name="afii10044" unicode="Ъ" horiz-adv-x="1554" d="M16 1456l603-.001v-594h346c159.333 0 282.333-38.167 369-114.5s130-180.5 130-312.5c0-131.333-43-236.166-129-314.499S1130.667 2 980 0H426v1304H16v152zm603-752.001V157h351c94.667 0 168.5 25.333 221.5 76s79.5 118.667 79.5 204c0 82-25.5 146.667-76.5 194s-123.167 71.666-216.5 72.999H619z"/><glyph glyph-name="afii10045" unicode="Ы" horiz-adv-x="1771" d="M370 862h362c152-2 270.667-41 356-117s128-179.333 128-310c0-131.333-43-236-129-314S883.667 2.667 735 0H178v1456h192V862zm0-158V157.001h351c95.333 0 169.5 25.333 222.5 76s79.5 118.667 79.5 204c0 82-25.5 146.667-76.5 194S823 702.667 729 704H370zM1584 .001h-192v1456h192V.001z"/><glyph glyph-name="afii10046" unicode="Ь" horiz-adv-x="1285" d="M355 862h362c152-2 270.667-41 356-117s128-179.333 128-310c0-131.333-43-236-129-314S868.667 2.667 720 0H163v1456h192V862zm0-158V157.001h351c95.333 0 169.5 25.333 222.5 76s79.5 118.667 79.5 204c0 82-25.5 146.667-76.5 194S808 702.667 714 704H355z"/><glyph glyph-name="afii10047" unicode="Э" horiz-adv-x="1380" d="M340 462c18.667-120 56.502-204.167 113.502-252.5s138.833-72.5 245.5-72.5c115.333 0 206.5 45 273.5 135s101.167 215 102.5 375h-573v158h573c0 158-34.5 283-103.5 375s-165.5 138-289.5 138c-100 0-177.833-26-233.5-78s-91.834-136-108.501-252h-193c15.333 152.667 69.666 272.167 162.999 358.5S527.333 1476 682 1476c117.333 0 220.5-27.833 309.5-83.5s157.333-135 205-238S1268 933 1268 799V654c0-134-23.667-252.333-71-355S1082.834 117.5 996.501 62.5 811.001-20 699.001-20C540.334-20 413.167 21.833 317.5 105.5S165 308 147 462h193z"/><glyph glyph-name="afii10048" unicode="Ю" horiz-adv-x="1831" d="M1754 681c0-142.667-23.999-267.166-71.999-373.499s-116-187.5-204-243.5-190.667-84-308-84c-110.667 0-209.834 26.667-297.501 80S716.166 189.667 666.499 289s-77.167 215.333-82.5 348h-209V0h-192v1456h192V788h208c2 137.333 27 257.833 75 361.5s116.333 184 205 241S1053.333 1476 1168 1476c116.667 0 219.5-28.167 308.5-84.5s157.5-138 205.5-245 72-231.5 72-373.5v-92zm-191 94.001c0 172.667-34.666 305.167-103.999 397.5s-166.333 138.5-291 138.5c-121.333 0-216.833-46.167-286.5-138.5s-105.5-220.5-107.5-384.5v-107c0-167.333 35.167-298.833 105.5-394.5s167.166-143.5 290.499-143.5c124 0 220 45.167 288 135.5s103 219.833 105 388.5v108z"/><glyph glyph-name="afii10049" unicode="Я" horiz-adv-x="1304" d="M931 0v567H595L294 0H89l338 620c-188 74-282 206.333-282 397 0 138.667 45.5 246.5 136.5 323.5S499 1456 661 1456h463V0H931zM337 1017c0-88 27.5-158.667 82.5-212S551 724.667 649 724h282v574H658c-104 0-183.5-24.667-238.5-74S337 1105.667 337 1017z"/><glyph glyph-name="afii10065" unicode="а" horiz-adv-x="1114" d="M808 0c-10.667 21.333-19.336 59.332-26.003 113.999-86-89.333-188.667-134-308-134-106.667 0-194.167 30.167-262.5 90.5s-102.5 136.833-102.5 229.5c0 112.667 42.833 200.167 128.5 262.5s206.167 93.5 361.5 93.5h180v85c0 64.667-19.333 116.167-58 154.5s-95.667 57.5-171 57.5c-66 0-121.333-16.667-166-50s-67-73.666-67-120.999h-186c0 54 19.167 106.167 57.5 156.5s90.333 90.166 156 119.499 137.834 44 216.501 44c124.667 0 222.334-31.167 293.001-93.5S961.333 860.333 964 751V253c0-99.333 12.667-178.333 38-237V0H808zM500.998 140.999c58 0 112.999 15 164.999 45s89.667 69 113 117v222h-145c-226.667 0-340-66.333-340-199 0-58 19.333-103.333 58-136s88.334-49 149.001-49z"/><glyph glyph-name="afii10066" unicode="б" horiz-adv-x="1132" d="M615 1020c136 0 244.834-45.5 326.501-136.5s122.5-210.833 122.5-359.5v-17c0-102-19.667-193.167-59-273.5s-95.833-142.666-169.5-186.999-158.5-66.5-254.5-66.5c-145.333 0-262.333 48.5-351 145.5s-133 227.167-133 390.5v90c0 227.333 42.167 408 126.5 542s208.833 215.667 373.5 245c93.333 16.667 156.333 37 189 61s49 57 49 99h152c0-83.333-18.833-148.333-56.5-195s-97.834-79.667-180.501-99l-138-31c-110-26-192.5-69.833-247.5-131.5S273.667 952.667 257 850c98 113.333 217.333 170 358 170zm-35.999-152c-90.667 0-162.666-30.5-215.999-91.5s-80-145.5-80-253.5v-16c0-116 26.833-207.833 80.5-275.5S489.669 130 581.002 130c92 0 164.667 34 218 102s80 167.333 80 298c0 102-26.833 183.833-80.5 245.5S671.668 868 579.001 868z"/><glyph glyph-name="afii10067" unicode="в" horiz-adv-x="1170" d="M157 0v1082h422c144 0 254.5-25.167 331.5-75.5S1026 882.334 1026 785.001c0-50-15-95.167-45-135.5s-74.333-71.166-133-92.499c65.333-15.333 117.833-45.333 157.5-90s59.5-98 59.5-160c0-99.333-36.5-175.333-109.5-228s-176.167-79-309.5-79H157zm185 474.998l.001-326h306c77.333 0 135.166 14.333 173.499 43s57.5 69 57.5 121c0 108-79.333 162-238 162H342zm.001 148l239 .001c173.333 0 260 50.667 260 152s-82 153.666-246 156.999h-253v-309z"/><glyph glyph-name="afii10068" unicode="г" horiz-adv-x="859" d="M839 929H340V0H154v1082h685V929z"/><glyph glyph-name="afii10069" unicode="д" horiz-adv-x="1236" d="M131 151l64 79c72 93.333 113 233.333 123 420l17 432h697V151h139v-469H986V0H231v-318H46l1 469h84zm219 0l497-.001v760H514l-11-258C491.667 437.666 440.667 270.333 350 151z"/><glyph glyph-name="afii10070" unicode="е" horiz-adv-x="1085" d="M589-20c-146.667 0-266 48.17-358 144.504S93 349.67 93 511.003v34c0 107.333 20.5 203.166 61.5 287.499s98.333 150.333 172 198 153.5 71.5 239.5 71.5c140.667 0 250-46.333 328-139s117-225.334 117-398.001v-77H278c2.667-106.667 33.834-192.834 93.501-258.501s135.5-98.5 227.5-98.5c65.333 0 120.666 13.333 165.999 40s85 62 119 106l113-88C906.333 49.667 770.333-20 589-20zm-23 970.004c-74.667 0-137.335-27.167-188.002-81.5s-82-130.5-94-228.5h542v14c-5.333 94-30.666 166.833-75.999 218.5s-106.666 77.5-183.999 77.5z"/><glyph glyph-name="afii10072" unicode="ж" horiz-adv-x="1568" d="M1003 470H873V0H688v470H558L255 0H21l387 560-350 522h224l279-448h127v448h185V634h126l281 448h224l-351-523L1540 0h-234z"/></font>
</defs>
</svg>
