<svg width="14" height="14" viewBox="0 0 14 14" fill="none" xmlns="http://www.w3.org/2000/svg">
<path fill-rule="evenodd" clip-rule="evenodd" d="M7 14C10.866 14 14 10.866 14 7C14 3.13401 10.866 0 7 0C3.13401 0 0 3.13401 0 7C0 10.866 3.13401 14 7 14Z" fill="#C4183C"/>
<path d="M4.873 8.578C5.449 8.098 5.908 7.699 6.25 7.381C6.592 7.057 6.877 6.721 7.105 6.373C7.333 6.025 7.447 5.683 7.447 5.347C7.447 5.041 7.375 4.801 7.231 4.627C7.087 4.453 6.865 4.366 6.565 4.366C6.265 4.366 6.034 4.468 5.872 4.672C5.71 4.87 5.626 5.143 5.62 5.491H4.396C4.42 4.771 4.633 4.225 5.035 3.853C5.443 3.481 5.959 3.295 6.583 3.295C7.267 3.295 7.792 3.478 8.158 3.844C8.524 4.204 8.707 4.681 8.707 5.275C8.707 5.743 8.581 6.19 8.329 6.616C8.077 7.042 7.789 7.414 7.465 7.732C7.141 8.044 6.718 8.422 6.196 8.866H8.851V9.91H4.405V8.974L4.873 8.578Z" fill="white"/>
</svg>
