<svg width="14" height="14" fill="none" xmlns="http://www.w3.org/2000/svg"><path fill-rule="evenodd" clip-rule="evenodd" d="M7 14A7 7 0 107 0a7 7 0 000 14z" fill="#C4183C"/><path d="M4.873 8.578A35.03 35.03 0 006.25 7.381c.342-.324.627-.66.855-1.008.228-.348.342-.69.342-1.026 0-.306-.072-.546-.216-.72-.144-.174-.366-.261-.666-.261-.3 0-.531.102-.693.306-.162.198-.246.471-.252.819H4.396c.024-.72.237-1.266.639-1.638.408-.372.924-.558 1.548-.558.684 0 1.209.183 1.575.549.366.36.549.837.549 1.431 0 .468-.126.915-.378 1.341-.252.426-.54.798-.864 1.116-.324.312-.747.69-1.269 1.134h2.655V9.91H4.405v-.936l.468-.396z" fill="#fff"/></svg>